<?xml version="1.0" encoding="UTF-8"?>
<svg version="1.1" xmlns="http://www.w3.org/2000/svg" width="512" height="512">
<path d="M0 0 C10.68839133 11.32889418 13.54456903 23.6311763 13.2109375 38.796875 C12.5119117 52.23314953 6.05800809 62.10152572 -3.4765625 71.1484375 C-10.89654234 77.47242711 -17.60834618 79.77494498 -27.1640625 81.8984375 C-27.1640625 89.8184375 -27.1640625 97.7384375 -27.1640625 105.8984375 C-24.8540625 105.8984375 -22.5440625 105.8984375 -20.1640625 105.8984375 C-17.44710476 106.36404518 -14.83518227 106.87729391 -12.1640625 107.5234375 C-11.42712158 107.70092529 -10.69018066 107.87841309 -9.9309082 108.0612793 C12.86229338 113.81758232 36.78813907 127.71299325 49.8359375 147.8984375 C49.8359375 148.5584375 49.8359375 149.2184375 49.8359375 149.8984375 C56.52006502 146.26277187 63.19150457 142.60619514 69.8359375 138.8984375 C69.59617187 137.19300781 69.59617187 137.19300781 69.3515625 135.453125 C68.02399379 124.75254456 67.33874439 112.90169974 71.8359375 102.8984375 C72.22652344 102.01027344 72.61710937 101.12210937 73.01953125 100.20703125 C79.28547796 87.44438058 88.89121928 80.02550257 101.8359375 74.8984375 C114.4197469 70.8314962 128.69106891 72.04541988 140.4609375 78.0234375 C152.45272826 85.29250849 161.79503815 96.43968433 165.42578125 110.12109375 C166.90832814 120.16005413 167.04776941 131.54944698 162.8359375 140.8984375 C162.43375 141.79820312 162.0315625 142.69796875 161.6171875 143.625 C155.61596498 155.72746542 145.83297035 164.24092095 133.0859375 168.7109375 C119.06938777 172.86218045 105.16999547 171.27013993 92.23828125 164.4375 C88.0196752 161.73484832 84.41694884 158.3843012 80.8359375 154.8984375 C75.92152338 156.33495855 71.83355392 158.44003365 67.4609375 161.0234375 C66.82027344 161.39597656 66.17960937 161.76851562 65.51953125 162.15234375 C63.95545273 163.06277752 62.39528216 163.97991941 60.8359375 164.8984375 C61.09117187 165.72021484 61.09117187 165.72021484 61.3515625 166.55859375 C62.98324778 171.89628762 64.5085614 177.25932271 65.9609375 182.6484375 C66.29351562 183.88078125 66.62609375 185.113125 66.96875 186.3828125 C72.187465 207.53976521 69.62670581 230.85067649 61.5703125 250.9296875 C60.7194398 252.86054089 60.7194398 252.86054089 60.8359375 254.8984375 C63.40629279 256.89159461 66.28256383 258.44265911 69.0859375 260.0859375 C69.86324219 260.56224609 70.64054687 261.03855469 71.44140625 261.52929688 C72.19550781 261.97466797 72.94960938 262.42003906 73.7265625 262.87890625 C74.41782227 263.29035889 75.10908203 263.70181152 75.82128906 264.12573242 C78.28762731 265.07168014 79.40117382 264.83959319 81.8359375 263.8984375 C83.68280848 262.44406773 83.68280848 262.44406773 85.4609375 260.6484375 C96.75151986 250.40911979 109.86335164 249.04434595 124.46142578 249.70751953 C136.25708341 250.6559263 146.27650513 257.54436745 154.2421875 265.9609375 C162.98446829 276.58880826 166.69810755 289.28296872 165.5859375 302.9765625 C163.51356094 317.40918494 157.26740057 327.67063604 146.23046875 337.109375 C134.40825435 345.9422856 121.12362457 347.27474845 106.8359375 345.8984375 C93.69472352 343.52978901 83.66241974 335.37362006 75.8359375 324.8984375 C70.5597201 316.15384369 68.50458906 308.04353798 68.6484375 297.8984375 C68.64908203 297.03476562 68.64972656 296.17109375 68.65039062 295.28125 C68.68441249 290.30649758 69.12141273 285.90011087 69.8359375 280.8984375 C63.2359375 277.2684375 56.6359375 273.6384375 49.8359375 269.8984375 C49.1759375 271.2184375 48.5159375 272.5384375 47.8359375 273.8984375 C45.67137229 276.714832 43.24569833 279.29086048 40.8359375 281.8984375 C40.124375 282.68734375 39.4128125 283.47625 38.6796875 284.2890625 C21.57930838 302.41546437 -2.41421733 312.67622292 -27.1640625 313.8984375 C-27.1640625 321.8184375 -27.1640625 329.7384375 -27.1640625 337.8984375 C-24.1940625 338.5584375 -21.2240625 339.2184375 -18.1640625 339.8984375 C-5.42300249 344.46322015 4.13225197 354.61668416 10.15234375 366.49609375 C14.85157806 378.13775088 14.8301022 393.64429922 10.1640625 405.29296875 C3.63447135 418.10249021 -6.26139599 428.16345422 -20.1015625 432.7109375 C-33.23305615 436.14721621 -47.04551427 435.38327936 -59.1640625 428.8984375 C-71.36388442 421.06443814 -79.82548105 410.05460601 -83.1640625 395.8984375 C-84.66850513 381.90031082 -83.41554549 368.69563675 -74.9140625 357.0234375 C-65.71165897 346.33036385 -56.95859933 340.96389013 -43.1640625 337.8984375 C-43.1640625 329.9784375 -43.1640625 322.0584375 -43.1640625 313.8984375 C-44.8346875 313.8159375 -46.5053125 313.7334375 -48.2265625 313.6484375 C-76.23867121 311.21831318 -98.40195377 295.96506913 -117.1640625 275.8984375 C-120.1640625 272.24364908 -120.1640625 272.24364908 -120.1640625 269.8984375 C-126.7640625 273.5284375 -133.3640625 277.1584375 -140.1640625 280.8984375 C-139.6690625 284.3634375 -139.6690625 284.3634375 -139.1640625 287.8984375 C-137.89675418 305.36981215 -140.31104795 318.20960184 -151.8203125 331.86328125 C-160.69522272 341.42892741 -172.38751748 346.02693445 -185.2421875 346.8984375 C-200.11474505 346.8984375 -211.75942094 342.06034573 -222.328125 331.796875 C-233.01651633 320.46798082 -235.87269403 308.1656987 -235.5390625 293 C-234.8400367 279.56372547 -228.38613309 269.69534928 -218.8515625 260.6484375 C-207.25630678 250.73222222 -194.38687937 248.89282598 -179.63769531 249.66015625 C-169.27671337 250.65821373 -159.39401376 255.66642209 -152.67578125 263.671875 C-152.17691406 264.07664062 -151.67804688 264.48140625 -151.1640625 264.8984375 C-148.18984155 264.42580975 -145.86970129 263.31860165 -143.2734375 261.83203125 C-142.56445312 261.42919922 -141.85546875 261.02636719 -141.125 260.61132812 C-140.39539063 260.19044922 -139.66578125 259.76957031 -138.9140625 259.3359375 C-138.16898437 258.91119141 -137.42390625 258.48644531 -136.65625 258.04882812 C-134.82307289 257.00297708 -132.99323573 255.95127558 -131.1640625 254.8984375 C-131.35339355 254.28452148 -131.54272461 253.67060547 -131.73779297 253.03808594 C-140.39687195 224.84137387 -142.89547616 197.67513689 -132.15234375 169.62890625 C-131.05061631 167.06897286 -131.05061631 167.06897286 -131.1640625 164.8984375 C-133.73441779 162.90528039 -136.61068883 161.35421589 -139.4140625 159.7109375 C-140.19136719 159.23462891 -140.96867187 158.75832031 -141.76953125 158.26757812 C-142.52363281 157.82220703 -143.27773437 157.37683594 -144.0546875 156.91796875 C-144.74594727 156.50651611 -145.43720703 156.09506348 -146.14941406 155.67114258 C-148.61575231 154.72519486 -149.72929882 154.95728181 -152.1640625 155.8984375 C-154.01093348 157.35280727 -154.01093348 157.35280727 -155.7890625 159.1484375 C-167.07964486 169.38775521 -180.19147664 170.75252905 -194.78955078 170.08935547 C-206.68046854 169.13328949 -216.639891 162.18435421 -224.640625 153.6953125 C-234.46442077 142.10827133 -236.30701647 128.92663431 -235.38720703 114.19238281 C-234.24034977 102.4025898 -227.55422651 92.49203023 -219.1015625 84.4921875 C-208.7252714 75.95685127 -196.3103151 72.11418609 -182.9296875 73.1484375 C-168.04925751 75.10455036 -157.69004385 81.11830593 -147.953125 92.50390625 C-141.24707442 101.47947176 -138.81990853 110.85020996 -138.9765625 121.8984375 C-138.9775293 123.19394531 -138.9775293 123.19394531 -138.97851562 124.515625 C-139.01253749 129.49037742 -139.44953773 133.89676413 -140.1640625 138.8984375 C-133.5640625 142.5284375 -126.9640625 146.1584375 -120.1640625 149.8984375 C-119.5040625 148.5784375 -118.8440625 147.2584375 -118.1640625 145.8984375 C-115.99949729 143.082043 -113.57382333 140.50601452 -111.1640625 137.8984375 C-110.09671875 136.71507812 -110.09671875 136.71507812 -109.0078125 135.5078125 C-94.39256408 120.01564918 -75.66903658 111.54390057 -55.1640625 106.8984375 C-54.34292969 106.69992188 -53.52179688 106.50140625 -52.67578125 106.296875 C-50.1640625 105.8984375 -50.1640625 105.8984375 -43.1640625 105.8984375 C-43.1640625 97.9784375 -43.1640625 90.0584375 -43.1640625 81.8984375 C-46.1340625 81.2384375 -49.1040625 80.5784375 -52.1640625 79.8984375 C-64.90512251 75.33365485 -74.46037697 65.18019084 -80.48046875 53.30078125 C-85.17970306 41.65912412 -85.1582272 26.15257578 -80.4921875 14.50390625 C-74.3574418 2.46897865 -65.31424781 -7.1006459 -52.6171875 -12.10546875 C-50.14596482 -12.89979033 -47.6986195 -13.54379591 -45.1640625 -14.1015625 C-44.12378906 -14.33359375 -44.12378906 -14.33359375 -43.0625 -14.5703125 C-26.6207001 -17.2798226 -11.6005315 -11.26549809 0 0 Z M-59.5390625 13.2109375 C-66.17196842 21.89778303 -67.28958078 30.03776625 -66.1640625 40.8984375 C-64.31594657 49.03452181 -59.76757215 55.77240561 -52.8515625 60.46875 C-44.22837072 65.43275842 -35.12316839 66.47659539 -25.3046875 64.25 C-16.88561919 61.19089754 -11.11740775 56.13976662 -6.6640625 48.3984375 C-2.72536869 39.81079362 -2.59364837 30.36716937 -5.7265625 21.4609375 C-10.36931306 11.77381436 -17.18622563 6.67277631 -27.1640625 2.8984375 C-39.03929548 -0.33852117 -51.32632967 4.33788444 -59.5390625 13.2109375 Z M-211.5390625 101.2109375 C-212.45346015 102.41108442 -213.32953998 103.64143795 -214.1640625 104.8984375 C-214.5765625 105.51976562 -214.9890625 106.14109375 -215.4140625 106.78125 C-219.2480984 113.78369056 -219.40236061 122.14460819 -218.1640625 129.8984375 C-215.09522646 139.79935376 -209.10798864 146.44334886 -200.1015625 151.3359375 C-192.21122225 154.48934338 -182.58465554 154.15145451 -174.6640625 151.2734375 C-166.15371962 147.21552567 -161.30223072 141.31363864 -157.1640625 132.8984375 C-154.41292235 124.82842641 -155.24524991 114.76081009 -158.85546875 107.140625 C-164.10041052 98.15376955 -171.49970203 92.98759382 -181.5859375 90.23828125 C-192.87901046 88.49626468 -203.84021011 92.89308191 -211.5390625 101.2109375 Z M91.8359375 101.8984375 C85.87549957 110.67599783 85.0374893 118.35892122 85.8359375 128.8984375 C87.74506075 137.31698097 92.3771448 144.08332629 99.67578125 148.69140625 C109.33409754 153.81896131 117.23050769 155.08892892 127.8359375 151.8984375 C136.58642387 148.12271743 142.72507341 141.89495361 146.7734375 133.2734375 C149.44578799 124.78280492 149.04610622 115.44556094 145.3359375 107.3984375 C141.14595654 100.09786178 135.38556826 94.70384789 127.515625 91.55859375 C114.01603579 88.2328932 101.03785855 91.42869622 91.8359375 101.8984375 Z M-94.1640625 144.8984375 C-94.91042969 145.54425781 -95.65679687 146.19007813 -96.42578125 146.85546875 C-111.68443821 161.0948834 -121.54707651 182.38375281 -122.54296875 203.12890625 C-123.23748565 228.41153225 -116.8604247 249.67476766 -100.1640625 268.8984375 C-99.51824219 269.64480469 -98.87242187 270.39117187 -98.20703125 271.16015625 C-82.84884468 287.61766565 -60.04826949 296.91887646 -37.78515625 297.9296875 C-14.10168101 297.72529936 7.24899442 289.87860007 24.8359375 273.8984375 C25.46757812 273.34800781 26.09921875 272.79757812 26.75 272.23046875 C41.76308773 258.34850407 51.14199165 236.97756739 52.25 216.7734375 C53.08945355 191.07324427 46.43714951 169.00458585 28.8359375 149.8984375 C28.28679687 149.269375 27.73765625 148.6403125 27.171875 147.9921875 C12.6156186 132.21693426 -10.00460355 123.07162262 -31.1875 121.9296875 C-55.05824917 121.67907596 -76.18242625 129.28082056 -94.1640625 144.8984375 Z M-211.5390625 277.2109375 C-212.45346015 278.41108442 -213.32953998 279.64143795 -214.1640625 280.8984375 C-214.5765625 281.51976562 -214.9890625 282.14109375 -215.4140625 282.78125 C-219.2480984 289.78369056 -219.40236061 298.14460819 -218.1640625 305.8984375 C-215.09522646 315.79935376 -209.10798864 322.44334886 -200.1015625 327.3359375 C-192.24864431 330.4743875 -182.62943195 330.15316411 -174.7265625 327.3359375 C-166.33678345 323.35009562 -160.82598845 317.40102093 -157.1640625 308.8984375 C-154.49041819 300.75753336 -155.21740862 290.81957544 -158.85546875 283.140625 C-164.10041052 274.15376955 -171.49970203 268.98759382 -181.5859375 266.23828125 C-192.87901046 264.49626468 -203.84021011 268.89308191 -211.5390625 277.2109375 Z M92.4609375 277.2109375 C91.54653985 278.41108442 90.67046002 279.64143795 89.8359375 280.8984375 C89.4234375 281.51976562 89.0109375 282.14109375 88.5859375 282.78125 C84.7519016 289.78369056 84.59763939 298.14460819 85.8359375 305.8984375 C88.90477354 315.79935376 94.89201136 322.44334886 103.8984375 327.3359375 C111.75135569 330.4743875 121.37056805 330.15316411 129.2734375 327.3359375 C137.66321655 323.35009562 143.17401155 317.40102093 146.8359375 308.8984375 C149.50958181 300.75753336 148.78259138 290.81957544 145.14453125 283.140625 C139.89958948 274.15376955 132.50029797 268.98759382 122.4140625 266.23828125 C111.12098954 264.49626468 100.15978989 268.89308191 92.4609375 277.2109375 Z M-59.1640625 364.7109375 C-60.20937594 366.07316748 -61.21221194 367.46933596 -62.1640625 368.8984375 C-62.59589844 369.54167969 -63.02773437 370.18492187 -63.47265625 370.84765625 C-67.29135659 377.78474164 -67.39149416 386.21265044 -66.1640625 393.8984375 C-63.33743923 403.01790818 -58.17292298 409.41287074 -49.96875 414.171875 C-41.52304085 418.32116068 -33.10457369 418.88317171 -24.1640625 415.8984375 C-15.6743209 411.96080255 -9.78739301 406.81850673 -5.7890625 398.3359375 C-2.90181372 390.36567511 -2.88727112 381.51278555 -5.7265625 373.5234375 C-9.68733016 365.08949517 -15.63534462 359.57161914 -24.1640625 355.8984375 C-36.70306249 351.78115392 -50.17892154 355.21181602 -59.1640625 364.7109375 Z " fill="#fff" transform="translate(291.1640625,46.1015625)"/>
<path d="M0 0 C2.5 1.5 2.5 1.5 4 4 C4.77292146 7.44841884 5.01664441 8.74790094 4 12 C2.28671265 14.27526855 2.28671265 14.27526855 0.04443359 16.66992188 C-0.77365784 17.54720947 -1.59174927 18.42449707 -2.43463135 19.32836914 C-6.42223033 23.48114168 -10.44736843 27.59025421 -14.5234375 31.65625 C-15.82542587 32.95967346 -15.82542587 32.95967346 -17.15371704 34.28942871 C-18.96925202 36.10563849 -20.78602745 37.92060907 -22.60400391 39.734375 C-25.39211998 42.5170868 -28.17479621 45.30515948 -30.95703125 48.09375 C-32.72884572 49.86490446 -34.50096994 51.63574911 -36.2734375 53.40625 C-37.10467133 54.23950806 -37.93590515 55.07276611 -38.79232788 55.93127441 C-39.94965927 57.08387756 -39.94965927 57.08387756 -41.13037109 58.25976562 C-41.80715912 58.93575806 -42.48394714 59.61175049 -43.1812439 60.30822754 C-46.4922482 63.388061 -49.12865762 64.76093608 -53.72290039 64.62231445 C-56.74243648 63.79709761 -58.21460706 62.36805405 -60.49609375 60.23046875 C-61.36999756 59.41392822 -62.24390137 58.5973877 -63.14428711 57.75610352 C-67.77183481 53.28996809 -72.35995394 48.78858227 -76.8984375 44.23193359 C-78.52228362 42.60264165 -80.15152255 40.97887566 -81.78125 39.35546875 C-82.82323812 38.31282115 -83.8649167 37.2698641 -84.90625 36.2265625 C-85.83759766 35.29408691 -86.76894531 34.36161133 -87.72851562 33.40087891 C-90.82534995 30.1276342 -91.94052395 28.62449857 -92.375 24.0625 C-92.27840517 21.14855609 -92.04439756 20.07399594 -90.5 17.5 C-87.67620477 15.80572286 -85.42124449 15.2475799 -82.11816406 15.43066406 C-79.54515013 16.12225794 -78.32050918 17.12635237 -76.359375 18.921875 C-75.66682617 19.55520752 -74.97427734 20.18854004 -74.26074219 20.84106445 C-70.10703012 24.80772491 -66.04089085 28.85626231 -62 32.9375 C-61.12988281 33.81212891 -60.25976562 34.68675781 -59.36328125 35.58789062 C-57.23986451 37.72297449 -55.11883622 39.86037205 -53 42 C-49.69192748 40.55746715 -47.52804619 38.76706451 -44.99755859 36.20874023 C-44.22350677 35.43130966 -43.44945496 34.65387909 -42.65194702 33.85289001 C-41.41270981 32.59346336 -41.41270981 32.59346336 -40.1484375 31.30859375 C-39.29319489 30.44814957 -38.43795227 29.58770538 -37.55679321 28.70118713 C-34.82474662 25.95132102 -32.09947494 23.19486646 -29.375 20.4375 C-26.64252453 17.67744073 -23.9086214 14.91883491 -21.17178345 12.1631012 C-19.46849067 10.44751612 -17.76787759 8.72926575 -16.07015991 7.00816345 C-15.30241241 6.23388504 -14.53466492 5.45960663 -13.74365234 4.66186523 C-13.06732758 3.97728745 -12.39100281 3.29270966 -11.69418335 2.58738708 C-8.26321049 -0.62730748 -4.49581318 -0.61306543 0 0 Z " fill="#fff" transform="translate(300,226)"/>
</svg>
