<?xml version="1.0" encoding="UTF-8"?>
<svg version="1.1" xmlns="http://www.w3.org/2000/svg" width="512" height="512">
<path d="M0 0 C2.13702566 1.63946022 4.1780177 3.33114872 6.20703125 5.1015625 C7.17640625 5.875 8.14578125 6.6484375 9.14453125 7.4453125 C24.2068435 20.0192534 33.08287514 41.0484879 35.03491211 60.21264648 C35.4502618 67.18404067 35.30670533 74.18305008 35.26953125 81.1640625 C35.26450705 82.80924343 35.25994577 84.45442585 35.25585938 86.09960938 C35.24492467 90.10029748 35.22771055 94.10091338 35.20703125 98.1015625 C36.85940796 98.08778564 36.85940796 98.08778564 38.54516602 98.07373047 C48.21890019 98.14725575 54.95917535 102.3416025 61.9296875 108.6640625 C63.20703125 110.1015625 63.20703125 110.1015625 63.20703125 112.1015625 C81.28677547 108.10566188 81.28677547 108.10566188 95.45703125 97.25390625 C98.08769993 92.90287772 100.15394681 88.33729615 102.09277344 83.64257812 C103.73345216 79.90108292 105.89379213 76.541301 108.08203125 73.1015625 C110.10799269 70.06664089 110.10799269 70.06664089 111.20703125 67.1015625 C110.64223776 64.434363 110.64223776 64.434363 109.20703125 62.1015625 C105.03523871 54.16906647 103.77981601 47.2831885 105.83203125 38.39453125 C108.38127693 30.98578598 112.85847084 25.40259446 119.8203125 21.71875 C127.89359666 18.4528953 135.1496833 17.76240266 143.39453125 20.7265625 C150.8896674 24.10994684 155.88573888 28.56371585 159.3203125 36.12890625 C161.61727335 43.82929041 161.5118355 52.22757751 158.20703125 59.6015625 C154.0878661 66.59483441 148.025763 71.79439576 140.20703125 74.1015625 C139.22331543 74.0823877 138.23959961 74.06321289 137.22607422 74.04345703 C133.64082803 73.98002454 130.67388377 74.1609209 127.20703125 75.1015625 C123.942096 78.27192201 122.34470713 81.97556449 120.51953125 86.1015625 C119.42383702 88.29980823 118.32747866 90.49772305 117.23046875 92.6953125 C115.79307822 95.71124191 114.37483948 98.73338022 112.98925781 101.7734375 C108.51840147 111.45703902 104.68880794 116.96605362 94.45703125 120.8515625 C91.87574595 121.74303856 89.28818681 122.57101141 86.671875 123.35351562 C83.72456029 124.24798594 80.84832325 125.28950315 77.96289062 126.36425781 C75.38964575 127.31011949 72.79644178 128.20089797 70.20703125 129.1015625 C69.87703125 134.3815625 69.54703125 139.6615625 69.20703125 145.1015625 C74.97017035 145.25665897 80.72695862 145.33062496 86.4921875 145.33349609 C88.4475168 145.34541098 90.4028472 145.37847208 92.35742188 145.43408203 C105.61955981 145.98099314 105.61955981 145.98099314 117.00518799 140.06292725 C121.89172719 135.13841626 121.89172719 135.13841626 123.33032227 128.42578125 C122.94127149 126.11959257 122.46088502 123.82769533 121.91015625 121.5546875 C120.75617254 115.88734528 121.81277826 111.30708552 124.20703125 106.1015625 C128.68390468 99.41855969 134.16057327 93.83015105 142.20703125 92.1015625 C152.68063442 90.95810292 159.83398665 92.48509017 168.45703125 98.2890625 C174.27448124 104.23872727 177.21927823 110.91429455 177.51953125 119.2265625 C177.37782204 126.96903832 174.83072128 133.82287781 169.58203125 139.5390625 C162.55746385 145.85080479 155.45884299 147.56465158 146.1640625 147.4375 C142.69637601 147.04354883 139.53414616 146.13740151 136.20703125 145.1015625 C135.76834717 145.5454834 135.32966309 145.9894043 134.87768555 146.44677734 C132.88593511 148.45933279 130.89028651 150.4679787 128.89453125 152.4765625 C128.20423828 153.17523438 127.51394531 153.87390625 126.80273438 154.59375 C126.13564453 155.2640625 125.46855469 155.934375 124.78125 156.625 C124.16854248 157.24294434 123.55583496 157.86088867 122.92456055 158.49755859 C119.68677033 161.52133709 117.69689408 162.35086771 113.3684082 162.32861328 C111.89722282 162.32838669 111.89722282 162.32838669 110.39631653 162.32815552 C108.81181953 162.31267166 108.81181953 162.31267166 107.1953125 162.296875 C106.11195114 162.2940451 105.02858978 162.29121521 103.91239929 162.28829956 C100.44799817 162.27709341 96.9838544 162.25198784 93.51953125 162.2265625 C91.17252977 162.21653327 88.82552425 162.20740732 86.47851562 162.19921875 C80.72117495 162.1788532 74.9643916 162.13970475 69.20703125 162.1015625 C69.20703125 171.3415625 69.20703125 180.5815625 69.20703125 190.1015625 C87.02703125 190.1015625 104.84703125 190.1015625 123.20703125 190.1015625 C123.86703125 188.1215625 124.52703125 186.1415625 125.20703125 184.1015625 C129.22999823 177.34678349 135.88827672 173.68119261 143.28515625 171.484375 C150.16818901 170.11336441 156.88179036 171.17846045 163.20703125 174.1015625 C170.61583155 179.145112 175.38117519 185.29055067 177.20703125 194.1015625 C178.20837639 203.45839417 175.88218119 211.1141649 170.01953125 218.4765625 C164.76307944 224.08419967 157.6559662 226.7456477 150.08203125 227.3515625 C141.56138059 226.8018431 134.32693785 224.18076019 128.20703125 218.1015625 C123.20703125 211.67820484 123.20703125 211.67820484 123.20703125 207.1015625 C105.38703125 207.1015625 87.56703125 207.1015625 69.20703125 207.1015625 C69.20703125 216.6715625 69.20703125 226.2415625 69.20703125 236.1015625 C72.65140625 236.02035156 76.09578125 235.93914062 79.64453125 235.85546875 C82.99718721 235.80080715 86.34979269 235.75834382 89.70263672 235.71704102 C92.0248045 235.68193509 94.34681862 235.63423734 96.66845703 235.57348633 C100.0150347 235.4881364 103.35956019 235.44877418 106.70703125 235.41796875 C108.2528186 235.36377525 108.2528186 235.36377525 109.82983398 235.30848694 C115.31899676 235.30552674 118.51924097 235.80677955 122.74023438 239.46484375 C123.91870413 240.65486174 125.07646338 241.86594522 126.20703125 243.1015625 C127.19330358 244.06200556 128.18260372 245.01935547 129.17578125 245.97265625 C130.42875 247.24302734 130.42875 247.24302734 131.70703125 248.5390625 C132.56296875 249.40402344 133.41890625 250.26898438 134.30078125 251.16015625 C134.92984375 251.80082031 135.55890625 252.44148438 136.20703125 253.1015625 C137.09390625 252.7715625 137.98078125 252.4415625 138.89453125 252.1015625 C146.49630093 249.99337941 154.52344522 249.87444313 161.70703125 253.2890625 C168.71260299 257.32463457 173.58721812 262.8090577 176.45703125 270.4140625 C178.45508709 280.23783703 176.60760997 288.21594549 171.58203125 296.9140625 C164.06851371 303.8344076 156.69912359 306.48697231 146.6328125 306.375 C138.91819495 305.75923805 132.86731331 302.82455139 127.67578125 297.08203125 C123.34277755 291.23939062 120.86218252 284.41235555 121.20703125 277.1015625 C121.98411188 273.02926652 123.01799787 269.07172482 124.20703125 265.1015625 C123.61720459 264.8655835 123.02737793 264.62960449 122.41967773 264.38647461 C119.73927227 262.82992888 118.64351136 261.02589195 116.8046875 258.54296875 C111.31307009 252.92528838 105.77679522 253.08087338 98.3409729 252.95742798 C95.44118453 252.95504096 92.54396557 252.99595271 89.64453125 253.0390625 C87.66209883 253.03598444 85.67966833 253.02886129 83.69726562 253.01757812 C78.86423317 252.99130066 74.04243226 253.04833263 69.20703125 253.1015625 C69.20703125 259.0415625 69.20703125 264.9815625 69.20703125 271.1015625 C70.43808594 271.35164063 71.66914063 271.60171875 72.9375 271.859375 C78.92068061 273.19261556 84.70227336 275.05768773 90.51953125 276.9765625 C91.59009766 277.31558594 92.66066406 277.65460938 93.76367188 278.00390625 C94.79298828 278.34292969 95.82230469 278.68195313 96.8828125 279.03125 C97.81005127 279.33272949 98.73729004 279.63420898 99.69262695 279.94482422 C104.81187232 282.29990574 107.04473853 286.22437846 109.66796875 291.046875 C109.98101959 291.61679169 110.29407043 292.18670837 110.61660767 292.77389526 C111.61162373 294.58796489 112.5972407 296.40692496 113.58203125 298.2265625 C114.87851531 300.60581031 116.17912202 302.98278425 117.48046875 305.359375 C118.10405273 306.50051758 118.72763672 307.64166016 119.37011719 308.81738281 C121.53090166 312.68060353 123.81425545 316.45493256 126.16259766 320.20654297 C127.20703125 322.1015625 127.20703125 322.1015625 127.20703125 324.1015625 C128.63015625 323.7921875 128.63015625 323.7921875 130.08203125 323.4765625 C136.80393758 322.56672871 142.99836728 323.88257481 148.51953125 327.8515625 C153.76553068 332.21970316 158.66790843 337.2411313 160.20703125 344.1015625 C161.05834449 353.88583389 160.65213341 361.89792969 154.58203125 369.7890625 C149.31911529 375.5244597 142.75347719 378.57525741 135.06640625 379.3046875 C126.50007411 379.49505044 120.53626461 377.55111687 113.89453125 372.0390625 C107.47587984 365.85000515 105.08920083 359.89640464 104.70703125 351.0390625 C104.92882084 344.40243564 107.28139589 339.55410193 110.45800781 333.85864258 C111.50907822 331.04475268 111.50907822 331.04475268 110.12060547 328.16650391 C109.50717285 327.10608887 108.89374023 326.04567383 108.26171875 324.953125 C107.93543488 324.37750824 107.609151 323.80189148 107.27297974 323.20883179 C106.22610918 321.37116935 105.15479743 319.54920476 104.08203125 317.7265625 C103.38244755 316.50876864 102.68451259 315.29002605 101.98828125 314.0703125 C100.65521122 311.73579099 99.29890037 309.42172235 97.92480469 307.11035156 C96.20703125 304.1015625 96.20703125 304.1015625 95.27832031 301.86621094 C93.98400364 298.75749455 92.49210623 297.24923061 89.53466797 295.71728516 C86.12757316 294.35740239 82.70512362 293.20562419 79.20703125 292.1015625 C77.42425781 291.49248047 77.42425781 291.49248047 75.60546875 290.87109375 C68.9743122 288.29209236 68.9743122 288.29209236 62.20703125 289.1015625 C60.556869 290.3613654 60.556869 290.3613654 59.01953125 291.9140625 C51.5967427 298.55466473 43.20332905 300.1849799 33.5 300.41796875 C32.41190788 300.4491404 32.41190788 300.4491404 31.30183411 300.48094177 C28.99949012 300.54598465 26.69703843 300.60511023 24.39453125 300.6640625 C22.82746311 300.70729085 21.2604056 300.75090648 19.69335938 300.79492188 C15.86469189 300.90161918 12.03591675 301.00301219 8.20703125 301.1015625 C8.8515625 301.86855469 9.49609375 302.63554687 10.16015625 303.42578125 C12.24362829 306.14940406 12.8240914 307.75083879 13.20703125 311.1015625 C13.74070312 310.94558594 14.274375 310.78960937 14.82421875 310.62890625 C23.89187044 308.26002146 31.56124723 308.94993037 39.8671875 313.4375 C43.83553412 316.25972982 46.81423132 319.87058515 49.20703125 324.1015625 C49.20703125 325.0915625 49.20703125 326.0815625 49.20703125 327.1015625 C50.04105469 326.93398438 50.87507813 326.76640625 51.734375 326.59375 C61.20953032 324.87888798 67.65179009 324.69390633 75.95703125 329.7890625 C82.00406658 334.1264648 85.26115456 338.93097715 87.20703125 346.1015625 C87.50778527 349.5654078 87.51058799 353.01683528 87.5078125 356.4921875 C87.51341187 357.50148315 87.51901123 358.51077881 87.52478027 359.55065918 C87.5366844 362.8177789 87.53042722 366.08444331 87.51953125 369.3515625 C87.51679703 371.01693054 87.51679703 371.01693054 87.51400757 372.71594238 C87.43248584 402.04783349 86.95604202 436.77333243 69.89453125 462.0390625 C65.98072732 468.67331412 66.54770551 476.28684103 66.6081543 483.77514648 C66.60726807 484.78907471 66.60638184 485.80300293 66.60546875 486.84765625 C66.62270996 487.76216553 66.63995117 488.6766748 66.65771484 489.61889648 C66.05138758 492.95895173 64.8250302 493.98442777 62.20703125 496.1015625 C59.61766815 496.60492706 59.61766815 496.60492706 56.62780762 496.60949707 C54.9243644 496.62641602 54.9243644 496.62641602 53.18650818 496.64367676 C51.32398155 496.63153137 51.32398155 496.63153137 49.42382812 496.61914062 C47.45749168 496.62965454 47.45749168 496.62965454 45.45143127 496.64038086 C41.85838844 496.65861301 38.26580513 496.65154751 34.67275429 496.63886452 C30.91231677 496.62873612 27.15191855 496.63812974 23.39147949 496.64440918 C17.07650693 496.65168608 10.7617215 496.64209688 4.44677734 496.62304688 C-2.85379358 496.60127788 -10.15391769 496.60832923 -17.45447779 496.6303525 C-23.72297315 496.64850539 -29.99133401 496.65106542 -36.25984716 496.64059782 C-40.00359261 496.63436221 -43.74712804 496.6335289 -47.49085999 496.64674377 C-51.66409766 496.66044581 -55.83656524 496.64145455 -60.00976562 496.61914062 C-61.25145004 496.62723755 -62.49313446 496.63533447 -63.77244568 496.64367676 C-64.90807449 496.63239746 -66.04370331 496.62111816 -67.21374512 496.60949707 C-68.20039909 496.60798897 -69.18705307 496.60648087 -70.20360565 496.60492706 C-73.53083723 495.95812304 -74.72414795 494.73630962 -76.79296875 492.1015625 C-77.27539062 489.33105469 -77.27539062 489.33105469 -77.26171875 486.1484375 C-77.27283691 484.97958008 -77.28395508 483.81072266 -77.29541016 482.60644531 C-77.29460449 481.36733398 -77.29379883 480.12822266 -77.29296875 478.8515625 C-77.4968444 467.94213488 -78.12692218 458.41445986 -81.79296875 448.1015625 C-82.19644531 446.94785156 -82.59992188 445.79414063 -83.015625 444.60546875 C-88.82540361 429.96482665 -97.7101731 416.57155148 -105.79296875 403.1015625 C-116.32630154 385.53032325 -126.53726092 367.69392977 -135.04296875 349.0390625 C-135.40140869 348.26135498 -135.75984863 347.48364746 -136.12915039 346.68237305 C-140.32573142 337.20159105 -142.21911871 328.01774322 -139.109375 317.87109375 C-136.41051502 311.66971327 -131.46482775 306.92231903 -125.4296875 303.9296875 C-118.05068009 301.61213258 -109.69242487 302.20902138 -102.84375 305.77734375 C-91.19508995 313.29904995 -83.17420021 325.43454065 -74.79296875 336.1015625 C-74.46296875 324.2215625 -74.13296875 312.3415625 -73.79296875 300.1015625 C-80.44066406 300.15376953 -80.44066406 300.15376953 -87.22265625 300.20703125 C-90.78024036 300.2263555 -94.33780942 300.24261278 -97.89541626 300.25681305 C-101.63774332 300.27258447 -105.37986295 300.2936223 -109.12207031 300.32788086 C-112.7336441 300.36073259 -116.34501809 300.3784692 -119.95672989 300.38619423 C-121.32729355 300.39169186 -122.6978476 300.40242598 -124.06832504 300.41875267 C-133.58371741 300.52749244 -143.52752316 300.46270467 -151.23046875 294.1015625 C-152.15666016 293.3590625 -152.15666016 293.3590625 -153.1015625 292.6015625 C-154.73043098 291.15702325 -156.27483097 289.66148389 -157.79296875 288.1015625 C-160.31257823 288.72194151 -162.79268493 289.39666894 -165.27734375 290.1484375 C-168.79296875 291.1015625 -168.79296875 291.1015625 -172.74609375 291.6171875 C-179.38078505 292.7873776 -183.92194491 294.60833404 -188.07177734 300.13818359 C-192.74940308 307.3938814 -196.55493309 315.17906363 -200.25341797 322.96704102 C-201.79296875 326.1015625 -201.79296875 326.1015625 -203.52783203 328.87475586 C-205.08743933 331.02354385 -205.08743933 331.02354385 -204.23046875 333.3515625 C-203.41796407 334.90591927 -202.59878599 336.45695359 -201.7578125 337.99609375 C-198.13870229 345.195399 -197.56112389 351.98466845 -199.453125 359.84375 C-202.15652955 367.5443569 -206.76206977 372.71277905 -213.98046875 376.4765625 C-220.90035114 379.71805527 -228.01637482 380.13511954 -235.35546875 377.9765625 C-243.51516103 374.91489786 -248.92934146 369.87856335 -252.79296875 362.1015625 C-255.07075113 355.26821535 -254.94876484 345.81598618 -252.23046875 339.1015625 C-248.43080648 332.02219174 -242.46465569 326.61304499 -234.79296875 324.1015625 C-229.93796817 323.17156993 -225.57515543 322.66471283 -220.79296875 324.1015625 C-220.39899902 323.05101685 -220.39899902 323.05101685 -219.99707031 321.97924805 C-218.69615764 318.87019336 -217.16676628 316.00322079 -215.52734375 313.05859375 C-215.21146301 312.49009201 -214.89558228 311.92159027 -214.57012939 311.33586121 C-213.90249943 310.13579706 -213.23342501 308.93653548 -212.56298828 307.73803711 C-211.55670267 305.93862117 -210.55531759 304.13655012 -209.5546875 302.33398438 C-208.25869843 300.00087438 -206.94591458 297.68011907 -205.62304688 295.36181641 C-204.47529726 293.31711946 -203.36797737 291.24861665 -202.32226562 289.14990234 C-199.30462099 283.36608346 -196.78002012 280.87712167 -190.53125 278.87695312 C-189.62761719 278.62107422 -188.72398437 278.36519531 -187.79296875 278.1015625 C-185.88580915 277.4636505 -183.97957348 276.82297032 -182.07421875 276.1796875 C-180.14836391 275.56644104 -178.22126778 274.95707958 -176.29296875 274.3515625 C-175.30554688 274.03574219 -174.318125 273.71992188 -173.30078125 273.39453125 C-166.05460295 271.1015625 -166.05460295 271.1015625 -163.79296875 271.1015625 C-163.79296875 265.1615625 -163.79296875 259.2215625 -163.79296875 253.1015625 C-169.437879 252.9910795 -175.0626787 252.91545795 -180.70581055 252.92456055 C-182.61939564 252.91763252 -184.53302112 252.89134205 -186.44604492 252.84448242 C-199.26396794 252.23656231 -199.26396794 252.23656231 -210.07585144 258.11979675 C-212.10504651 260.34906717 -213.93204394 262.7316668 -215.79296875 265.1015625 C-216.45296875 265.1015625 -217.11296875 265.1015625 -217.79296875 265.1015625 C-217.55320313 265.82859375 -217.3134375 266.555625 -217.06640625 267.3046875 C-214.54459462 275.85691826 -214.18278664 283.11527612 -217.8046875 291.421875 C-221.54921823 297.96547356 -227.17602663 303.3068319 -234.44140625 305.62109375 C-243.57129127 307.48650215 -251.06178088 306.51321121 -259.19140625 301.93359375 C-265.7652586 297.30425929 -269.17600038 290.89241009 -270.79296875 283.1015625 C-271.98894845 274.84782606 -269.27314866 267.39418157 -265.16796875 260.2890625 C-258.87348307 254.4915099 -252.10968418 250.96386899 -243.54296875 250.9140625 C-242.4446875 250.89988281 -241.34640625 250.88570313 -240.21484375 250.87109375 C-236.42566114 251.12630125 -233.39708132 251.94440453 -229.79296875 253.1015625 C-229.31875488 252.62211182 -228.84454102 252.14266113 -228.35595703 251.64868164 C-226.2125654 249.48454412 -224.06532485 247.32426603 -221.91796875 245.1640625 C-220.79841797 244.03194336 -220.79841797 244.03194336 -219.65625 242.87695312 C-218.94082031 242.15830078 -218.22539062 241.43964844 -217.48828125 240.69921875 C-216.49852295 239.70160522 -216.49852295 239.70160522 -215.48876953 238.68383789 C-212.69127757 236.07362404 -210.88329967 235.97828938 -207.15966797 235.98803711 C-206.19882294 235.98811264 -205.23797791 235.98818817 -204.24801636 235.98826599 C-203.20839752 235.99342728 -202.16877869 235.99858856 -201.09765625 236.00390625 C-200.03507599 236.0053212 -198.97249573 236.00673615 -197.87771606 236.00819397 C-194.47443866 236.01380416 -191.07122637 236.02635841 -187.66796875 236.0390625 C-185.36458428 236.04407619 -183.06119878 236.04863932 -180.7578125 236.05273438 C-175.10281914 236.06292723 -169.44796708 236.08250071 -163.79296875 236.1015625 C-163.79296875 226.5315625 -163.79296875 216.9615625 -163.79296875 207.1015625 C-181.28296875 207.1015625 -198.77296875 207.1015625 -216.79296875 207.1015625 C-217.12296875 208.7515625 -217.45296875 210.4015625 -217.79296875 212.1015625 C-221.44339399 218.77085151 -226.71915471 223.24860173 -233.8359375 225.84765625 C-242.63526965 228.31555405 -249.71631103 227.03545182 -257.79296875 223.1015625 C-264.28584145 218.82708797 -268.15461692 213.57739614 -270.375 206.15625 C-271.83121679 198.99765158 -271.18797504 191.59635713 -267.79296875 185.1015625 C-262.85267612 178.06022588 -257.49444689 173.81200594 -249.29296875 171.3515625 C-239.86835265 170.40910089 -231.46662877 171.82186789 -223.85546875 177.9140625 C-220.65209048 180.94033092 -218.69744159 184.14025899 -216.79296875 188.1015625 C-216.79296875 188.7615625 -216.79296875 189.4215625 -216.79296875 190.1015625 C-199.30296875 190.1015625 -181.81296875 190.1015625 -163.79296875 190.1015625 C-163.79296875 180.8615625 -163.79296875 171.6215625 -163.79296875 162.1015625 C-167.14195312 162.20597656 -170.4909375 162.31039062 -173.94140625 162.41796875 C-177.21134787 162.48830387 -180.48120292 162.54286626 -183.75146484 162.59594727 C-186.01161867 162.64100821 -188.27151306 162.70227875 -190.53076172 162.78051758 C-211.74206298 163.49629373 -211.74206298 163.49629373 -218.04296875 157.8515625 C-219.33968993 156.30626038 -220.5923508 154.72266119 -221.79296875 153.1015625 C-223.31494945 151.56102854 -224.85434837 150.0373153 -226.41796875 148.5390625 C-227.54560654 147.39582498 -228.67168611 146.2510338 -229.79296875 145.1015625 C-230.70046875 145.4315625 -231.60796875 145.7615625 -232.54296875 146.1015625 C-240.56844194 148.33896715 -248.896203 147.97635634 -256.47265625 144.48046875 C-263.62086499 140.23245918 -267.72171004 134.81210966 -270.16796875 126.89453125 C-272.05557766 118.45927895 -270.80984882 111.72570657 -266.79296875 104.1015625 C-262.65258391 97.83183688 -256.82168692 94.44446856 -249.79296875 92.1015625 C-240.72914006 91.27650657 -233.26537503 91.58467329 -225.79296875 97.1015625 C-219.81946979 102.10500608 -216.65389659 107.25148815 -215 114.86328125 C-214.76224898 118.58206613 -215.47559081 121.49047975 -216.35546875 125.1015625 C-217.0940113 129.46203811 -217.15217443 131.46257109 -214.95776367 135.36621094 C-209.90760544 141.35920331 -205.27120754 144.68654077 -197.34559631 145.39001465 C-192.73493687 145.5649274 -188.15348335 145.48611214 -183.54296875 145.3515625 C-181.62242227 145.33956516 -179.7018337 145.33301164 -177.78125 145.33203125 C-173.11563522 145.31794692 -168.45677061 145.23029822 -163.79296875 145.1015625 C-163.79296875 139.4915625 -163.79296875 133.8815625 -163.79296875 128.1015625 C-165.44296875 127.7715625 -167.09296875 127.4415625 -168.79296875 127.1015625 C-173.35756937 125.62013159 -177.85054996 123.94204845 -182.35546875 122.2890625 C-183.58716797 121.85013672 -184.81886719 121.41121094 -186.08789062 120.95898438 C-187.27060547 120.52521484 -188.45332031 120.09144531 -189.671875 119.64453125 C-191.28944702 119.0570813 -191.28944702 119.0570813 -192.93969727 118.45776367 C-198.42533354 115.85036147 -200.66726469 111.91220289 -203.5078125 106.68359375 C-203.84543106 106.0669133 -204.18304962 105.45023285 -204.53089905 104.81486511 C-205.60397907 102.85142191 -206.6674038 100.88294285 -207.73046875 98.9140625 C-208.44010886 97.61097593 -209.15038984 96.30823815 -209.86132812 95.00585938 C-210.20739105 94.37064865 -210.55345398 93.73543793 -210.91000366 93.08097839 C-211.59595629 91.82385015 -212.28378012 90.56774099 -212.97354126 89.31269836 C-214.4415633 86.63327805 -215.86538208 83.95115878 -217.19091797 81.19799805 C-218.27150473 79.00057342 -219.27186226 77.01947938 -220.79296875 75.1015625 C-223.79613378 73.9577677 -223.79613378 73.9577677 -227.04296875 74.2890625 C-235.12176114 74.18876147 -240.59360463 72.39210359 -246.60546875 66.9140625 C-253.223946 59.6029539 -254.53224585 52.54484721 -254.23828125 42.765625 C-253.39413937 35.8199664 -250.65587331 30.54957918 -245.60546875 25.7265625 C-239.3416801 20.9541521 -232.26929401 18.3295964 -224.3671875 18.7265625 C-216.2879382 19.90350929 -209.94760075 22.72874824 -204.453125 28.84375 C-199.04527949 36.1984199 -197.55598811 44.10313468 -198.79296875 53.1015625 C-200.08870606 57.10987139 -202.02590451 60.68499991 -204.02587891 64.37841797 C-205.08085845 67.11781333 -205.08085845 67.11781333 -203.83007812 69.80541992 C-203.27126953 70.76295166 -202.71246094 71.7204834 -202.13671875 72.70703125 C-201.52570313 73.77373047 -200.9146875 74.84042969 -200.28515625 75.93945312 C-199.62773437 77.04482422 -198.9703125 78.15019531 -198.29296875 79.2890625 C-197.66648437 80.37509766 -197.04 81.46113281 -196.39453125 82.58007812 C-195.14273302 84.74215702 -193.87206599 86.89342419 -192.58251953 89.03320312 C-190.79296875 92.1015625 -190.79296875 92.1015625 -189.43701172 94.95117188 C-186.09059229 101.68148464 -182.44404604 103.79725664 -175.37890625 106.1796875 C-174.23679687 106.52515625 -173.0946875 106.870625 -171.91796875 107.2265625 C-170.17 107.80277344 -170.17 107.80277344 -168.38671875 108.390625 C-165.53090863 109.32695619 -162.66875299 110.22893274 -159.79296875 111.1015625 C-159.3333374 110.7003418 -158.87370605 110.29912109 -158.40014648 109.88574219 C-149.26604005 101.97263201 -142.2247673 97.93739709 -129.79296875 98.1015625 C-129.8086792 96.96315918 -129.82438965 95.82475586 -129.84057617 94.65185547 C-129.8955535 90.36156506 -129.92956115 86.07130464 -129.95776367 81.78076172 C-129.97269788 79.93630713 -129.9930527 78.09188707 -130.01928711 76.24755859 C-130.36813046 51.06243663 -124.46146608 30.49882764 -107.79296875 11.1015625 C-107.27347656 10.48539063 -106.75398437 9.86921875 -106.21875 9.234375 C-98.336008 0.61696939 -86.6472467 -5.8541038 -75.79296875 -9.8984375 C-74.76945313 -10.2903125 -73.7459375 -10.6821875 -72.69140625 -11.0859375 C-48.32751188 -19.00557811 -20.96202265 -14.2483119 0 0 Z M-94.41796875 22.1640625 C-106.7802061 34.92846598 -113.00479642 51.29819439 -112.890625 69 C-112.88921005 69.83496002 -112.8877951 70.66992004 -112.88633728 71.53018188 C-112.88077049 74.17901292 -112.86822422 76.8277573 -112.85546875 79.4765625 C-112.85044945 81.27994669 -112.8458873 83.08333221 -112.84179688 84.88671875 C-112.83166576 89.29172636 -112.81208405 93.6965482 -112.79296875 98.1015625 C-106.85296875 98.1015625 -100.91296875 98.1015625 -94.79296875 98.1015625 C-94.7671875 95.58144531 -94.74140625 93.06132813 -94.71484375 90.46484375 C-94.67624882 87.97897965 -94.63114561 85.49331092 -94.58544922 83.00756836 C-94.55751173 81.30193675 -94.53616429 79.59618222 -94.52197266 77.89038086 C-94.37777707 61.52418147 -92.16722267 46.87840554 -80.54296875 34.3515625 C-69.37087976 23.9406488 -57.16773455 21.30927537 -42.36328125 21.75390625 C-36.63261743 22.08060327 -31.88570811 23.45630468 -26.79296875 26.1015625 C-25.93445313 26.52566406 -25.0759375 26.94976562 -24.19140625 27.38671875 C-12.97794842 33.46773289 -6.69378987 42.8342223 -2.54296875 54.6640625 C-0.49814742 64.03616024 -0.49748854 73.61565262 -0.23046875 83.1640625 C-0.1871812 84.6165464 -0.14356401 86.06902051 -0.09960938 87.52148438 C0.00701311 91.0480734 0.10687433 94.57476048 0.20703125 98.1015625 C6.14703125 98.1015625 12.08703125 98.1015625 18.20703125 98.1015625 C18.27682874 93.55179999 18.33626544 89.00397805 18.37182617 84.45410156 C18.38668705 82.91432316 18.40698164 81.37458527 18.43334961 79.83496094 C18.7992018 57.88382976 14.60095106 37.83354944 -1.04296875 21.3515625 C-10.74305595 12.14470008 -23.46691589 5.04632643 -36.79296875 3.1015625 C-38.12908203 2.90046875 -38.12908203 2.90046875 -39.4921875 2.6953125 C-60.83008622 0.18832306 -79.026087 7.78424969 -94.41796875 22.1640625 Z M-235.60546875 40.7890625 C-237.34943665 44.18521051 -237.47378381 47.4119841 -236.79296875 51.1015625 C-234.99932964 53.9115971 -233.7741594 55.61096718 -230.79296875 57.1015625 C-227.68316224 57.64888845 -224.89361706 57.73519582 -221.79296875 57.1015625 C-218.03759854 54.46594771 -216.08075603 51.51172018 -215.16796875 47.0390625 C-216.10875795 42.61735325 -218.01157367 39.36577836 -221.73046875 36.7265625 C-227.60446749 34.94656288 -231.23531323 36.72029701 -235.60546875 40.7890625 Z M124.20703125 40.1015625 C122.50556137 42.4217487 122.2121755 44.0726261 121.70703125 46.9140625 C122.32443442 50.8500077 123.59589883 52.85586767 126.29296875 55.73828125 C129.20631346 57.81329615 131.58673277 57.88280875 135.0859375 57.60546875 C138.2152548 56.86203978 140.02773574 55.41706398 142.20703125 53.1015625 C143.82804914 49.85952671 143.76610232 46.60550795 143.20703125 43.1015625 C141.31256719 39.8454524 139.90302282 37.7527954 136.3046875 36.37109375 C131.12627956 35.36721812 128.22244428 36.56417483 124.20703125 40.1015625 Z M-70.79296875 47.7890625 C-78.53104343 58.17333139 -78.30353943 68.93097936 -78.04296875 81.2890625 C-77.96046875 86.8371875 -77.87796875 92.3853125 -77.79296875 98.1015625 C-57.66296875 98.1015625 -37.53296875 98.1015625 -16.79296875 98.1015625 C-16.75171875 93.1928125 -16.71046875 88.2840625 -16.66796875 83.2265625 C-16.64976074 81.69918457 -16.63155273 80.17180664 -16.61279297 78.59814453 C-16.56321283 66.35185031 -17.10949605 56.18043149 -25.83984375 46.93359375 C-33.77242709 39.42499331 -40.24548294 37.35916735 -51.1875 37.62890625 C-58.906239 38.64078861 -65.38780932 42.22324016 -70.79296875 47.7890625 Z M-252.79296875 114.1015625 C-253.84925495 116.85242549 -254.14227094 119.17544085 -253.79296875 122.1015625 C-252.18479567 125.31790866 -250.81586809 127.35143632 -247.91796875 129.4765625 C-243.97021339 130.63766702 -240.93495254 130.55304446 -237.10546875 129.0390625 C-233.90691157 126.35919027 -232.92661829 124.10267854 -231.79296875 120.1015625 C-232.35394073 115.96439415 -233.17682082 113.80832042 -235.91796875 110.6640625 C-242.66797878 106.99557879 -247.91635019 108.39235053 -252.79296875 114.1015625 Z M140.20703125 113.1015625 C138.28344676 117.34947824 137.99110999 119.33948747 139.26953125 123.8515625 C141.39625884 127.41897653 142.3003155 128.74270485 146.20703125 130.1015625 C150.83857303 130.36669548 154.11998457 130.02555218 157.70703125 126.9765625 C159.51205146 123.51694043 160.13727649 121.00782912 160.20703125 117.1015625 C158.63205146 113.45424087 156.75996883 110.92604396 153.20703125 109.1015625 C147.47072838 108.46419551 144.20058413 108.52072243 140.20703125 113.1015625 Z M-145.19812012 121.46582031 C-147.73206448 127.24239888 -147.34953921 133.05390953 -147.31054688 139.2734375 C-147.31597117 140.72270408 -147.32309556 142.17196515 -147.33178711 143.62121582 C-147.34998715 147.54689615 -147.34296689 151.47215492 -147.33027077 155.39784241 C-147.32012578 159.51100784 -147.3295406 163.6241378 -147.33581543 167.73730469 C-147.34308749 174.64394596 -147.33351579 181.55041599 -147.31445312 188.45703125 C-147.29268513 196.43582761 -147.29973682 204.4142151 -147.32175875 212.39300156 C-147.3399254 219.2500953 -147.34246491 226.10706614 -147.33200407 232.96417618 C-147.32577606 237.05671132 -147.32491433 241.14905443 -147.33815002 245.24157715 C-147.34972644 249.08966663 -147.3416507 252.93723024 -147.318573 256.78526306 C-147.31329538 258.19533923 -147.31478352 259.60545985 -147.32362366 261.01551819 C-147.62370329 270.94392084 -147.62370329 270.94392084 -142.79296875 279.1015625 C-136.65337339 284.50607488 -128.32764357 283.61448744 -120.66796875 283.4921875 C-119.31177612 283.48471374 -117.95557259 283.47902618 -116.59936523 283.47503662 C-113.05472235 283.4598691 -109.51075015 283.42066686 -105.96636963 283.3762207 C-102.33965117 283.33507396 -98.71282281 283.31698452 -95.0859375 283.296875 C-87.98800928 283.25416169 -80.89053314 283.18602083 -73.79296875 283.1015625 C-73.7848819 282.28803314 -73.77679504 281.47450378 -73.76846313 280.63632202 C-73.69040723 272.9562241 -73.60308365 265.27631316 -73.50544167 257.59644127 C-73.45557164 253.64847682 -73.40924109 249.70053791 -73.37109375 245.75244141 C-73.33412312 241.93977153 -73.28773184 238.12732039 -73.23490524 234.31483841 C-73.21642369 232.86288936 -73.20129286 231.41089354 -73.18962479 229.95887375 C-73.17265477 227.91945925 -73.14359575 225.8805389 -73.11181641 223.84130859 C-73.09849274 222.68214935 -73.08516907 221.52299011 -73.07144165 220.32870483 C-72.78272028 216.98279593 -71.85345089 214.26999731 -70.79296875 211.1015625 C-71.92535949 208.97046315 -71.92535949 208.97046315 -73.91796875 207.2890625 C-81.37655888 199.63960294 -83.15990129 190.95977157 -83.078125 180.5625 C-82.29450415 171.05170444 -78.00794236 162.9553199 -71.10546875 156.4765625 C-63.63890338 150.18013051 -55.33536475 147.68410876 -45.671875 147.828125 C-36.05190896 148.74182598 -27.55930169 152.14424436 -20.79296875 159.1015625 C-13.63625013 167.954917 -11.00913533 177.44206953 -12.0390625 188.8203125 C-13.48791504 197.12877663 -16.49595025 203.43881616 -22.81640625 209.0703125 C-24.13647616 211.24062263 -24.13647616 211.24062263 -22.87988281 214.3046875 C-21.16852796 220.71473463 -21.43397333 227.29344402 -21.37890625 233.8828125 C-21.36016743 235.30628549 -21.34059206 236.72974768 -21.32022095 238.15319824 C-21.26917991 241.87501627 -21.22940549 245.59687021 -21.19207764 249.31884766 C-21.15186085 253.12671586 -21.10084972 256.93443835 -21.05078125 260.7421875 C-20.95435449 268.19521205 -20.86984492 275.6483079 -20.79296875 283.1015625 C-12.94323365 283.1712048 -5.09357152 283.22444575 2.75639534 283.25699902 C6.40183585 283.27262641 10.04706432 283.29381055 13.69238281 283.32788086 C17.21316474 283.36057967 20.73374326 283.37843751 24.25466537 283.38619423 C26.2454576 283.39439982 28.2361685 283.41780248 30.22683716 283.44145203 C31.44764984 283.44167862 32.66846252 283.44190521 33.92626953 283.44213867 C35.5317717 283.45213142 35.5317717 283.45213142 37.16970825 283.46232605 C41.36507188 282.96401412 44.72097593 281.45701439 47.8515625 278.6015625 C51.4358364 273.99834785 52.33077053 271.07818916 52.35420227 265.32783508 C52.36135757 264.12363419 52.36851288 262.91943329 52.37588501 261.67874146 C52.37872524 260.34222438 52.38143698 259.00570703 52.3840332 257.66918945 C52.39029909 256.26302421 52.39694601 254.85686063 52.40394592 253.45069885 C52.42497686 248.83042552 52.43534859 244.21015191 52.4453125 239.58984375 C52.44936066 237.99797231 52.4534776 236.40610105 52.45766258 234.81422997 C52.47671351 227.33378395 52.49094376 219.85334779 52.49927455 212.37288219 C52.50904175 203.74554909 52.53534801 195.11847291 52.57577544 186.49123031 C52.60596792 179.81848636 52.62074646 173.14581591 52.62405556 166.473005 C52.62640284 162.4898607 52.63532061 158.50699091 52.66051674 154.52392006 C52.68385703 150.77359721 52.68800709 147.02372842 52.67775536 143.27335167 C52.67702666 141.24953692 52.69607672 139.22574494 52.71582031 137.20202637 C52.71594743 127.44867861 52.71594743 127.44867861 48.20703125 119.1015625 C41.73791254 113.08041263 31.46966287 114.54058983 23.25366211 114.58398438 C21.52986562 114.57855892 19.80607377 114.57143389 18.08229065 114.56274414 C13.41703752 114.54455949 8.75213952 114.55155782 4.08688045 114.56426048 C-0.80255774 114.57441174 -5.69196622 114.56498906 -10.58140564 114.55871582 C-18.79008423 114.55144629 -26.9986187 114.5610096 -35.20727539 114.58007812 C-44.690234 114.60185277 -54.17284867 114.59478839 -63.65579897 114.5727725 C-71.80719983 114.55460736 -79.95849729 114.55206542 -88.10991186 114.56252718 C-92.97429792 114.56875504 -97.83852242 114.56961704 -102.70289803 114.55638123 C-107.27573144 114.54480688 -111.84812225 114.55287732 -116.42090797 114.57595825 C-118.09663916 114.58123658 -119.77240775 114.57974657 -121.44812393 114.57090759 C-123.74037462 114.55993337 -126.03121788 114.57373617 -128.32337952 114.59362793 C-129.60442094 114.59513603 -130.88546236 114.59664413 -132.20532322 114.59819794 C-137.62627579 115.35878462 -141.26651229 117.6010596 -145.19812012 121.46582031 Z M-61.6640625 170.04296875 C-66.14206791 175.87404054 -67.67036916 180.7622266 -66.79296875 188.1015625 C-65.31297226 192.34373067 -63.33787303 196.24248141 -59.79296875 199.1015625 C-57.44812219 198.86229244 -55.11486411 198.5069728 -52.79296875 198.1015625 C-48.01922004 197.87934948 -43.69656567 197.87566327 -39.04296875 199.0390625 C-35.9021951 199.41100779 -35.9021951 199.41100779 -34.1015625 197.9609375 C-29.70770931 193.42944553 -27.95596671 188.36260187 -27.79296875 182.1015625 C-28.44223585 176.49591835 -30.53162111 172.9557145 -34.66796875 169.1640625 C-43.13730469 162.49966701 -53.76550428 161.84759623 -61.6640625 170.04296875 Z M-250.79296875 191.1015625 C-253.59903561 194.26970251 -253.79296875 195.82292444 -253.79296875 200.1015625 C-253.03102768 204.38950744 -251.37556363 206.53144009 -247.79296875 209.1015625 C-244.38767879 210.34994631 -244.38767879 210.34994631 -240.79296875 210.1015625 C-237.04627634 208.12217783 -235.14619506 206.63140197 -232.79296875 203.1015625 C-232.26710635 198.51904731 -232.07048109 195.45677596 -234.85546875 191.6640625 C-240.21926224 186.9850086 -245.00586187 187.15580781 -250.79296875 191.1015625 Z M140.39453125 192.7890625 C138.64805785 196.19008965 138.5386547 199.40712947 139.20703125 203.1015625 C141.27592777 206.50046392 143.31982662 208.99093261 147.20703125 210.1015625 C151.46750563 210.02409933 153.63631614 209.52339541 157.08203125 206.9765625 C159.66630883 203.48018695 160.20703125 201.43795666 160.20703125 197.1015625 C158.8873498 193.06488982 157.86288457 191.52019228 154.26953125 189.2265625 C148.25116608 187.01573448 144.86868236 188.62347354 140.39453125 192.7890625 Z M-54.79296875 217.1015625 C-57.098604 220.56001537 -57.04671608 221.86320914 -57.0579834 225.94017029 C-57.06625656 227.15856598 -57.07452972 228.37696167 -57.08305359 229.63227844 C-57.08222898 230.98458874 -57.08123133 232.33689893 -57.08007812 233.68920898 C-57.0861016 235.11171867 -57.09302567 236.53422479 -57.1007843 237.95672607 C-57.11568126 241.02112818 -57.12442448 244.08546502 -57.12849426 247.14990044 C-57.1352022 251.99461775 -57.15694996 256.83919532 -57.18103027 261.68385315 C-57.23002414 271.96889021 -57.26232807 282.25395686 -57.29296875 292.5390625 C-57.32604371 303.63856829 -57.36195136 314.73801949 -57.41709948 325.83744103 C-57.44046058 330.65420632 -57.45419223 335.47087462 -57.46059418 340.287691 C-57.46652924 343.28376786 -57.4806226 346.27976602 -57.49693871 349.27580261 C-57.50281871 350.66575156 -57.50528609 352.05571974 -57.50409889 353.44568062 C-57.50294062 355.34246042 -57.5151046 357.23923444 -57.5279541 359.13597107 C-57.53088722 360.1976673 -57.53382034 361.25936354 -57.53684235 362.35323238 C-57.79619344 365.13616461 -58.26821375 366.77729503 -59.79296875 369.1015625 C-63.16537424 370.78776525 -66.2045796 371.04955893 -69.79296875 370.1015625 C-73.00949217 367.5476429 -75.32997391 364.36731122 -77.79296875 361.1015625 C-78.5303125 360.15796875 -79.26765625 359.214375 -80.02734375 358.2421875 C-81.67796301 356.11688035 -83.31799517 353.98665606 -84.9453125 351.84375 C-88.2656172 347.47298703 -91.61926448 343.12842101 -94.98046875 338.7890625 C-95.55039551 338.04857666 -96.12032227 337.30809082 -96.70751953 336.54516602 C-99.55873533 332.86608493 -102.4617029 329.23679427 -105.46875 325.68359375 C-106.01055908 325.04268799 -106.55236816 324.40178223 -107.1105957 323.74145508 C-110.05831658 320.86816512 -112.25676608 320.14859782 -116.35546875 319.7890625 C-119.66260873 319.83857813 -119.66260873 319.83857813 -121.66796875 321.2265625 C-123.73183302 324.66633628 -124.01565502 328.01388401 -123.21875 331.90625 C-115.40138038 353.46573253 -103.48068339 373.24053655 -91.75018311 392.84423828 C-66.62863955 434.82807054 -66.62863955 434.82807054 -62.4140625 453.4609375 C-62.05869553 456.01131063 -62.05869553 456.01131063 -60.79296875 457.1015625 C-59.32466913 457.21454836 -57.85102427 457.25891673 -56.378479 457.27565002 C-55.42511658 457.28858597 -54.47175415 457.30152191 -53.48950195 457.31484985 C-51.90770142 457.32830948 -51.90770142 457.32830948 -50.29394531 457.34204102 C-48.6379129 457.36153557 -48.6379129 457.36153557 -46.94842529 457.38142395 C-36.75890584 457.49321233 -26.56865769 457.55397263 -16.37863541 457.59819126 C-8.8445212 457.63143176 -1.31160961 457.69097353 6.22198844 457.78570229 C12.15554564 457.85779211 18.08884046 457.88614796 24.02283478 457.89951897 C26.54753243 457.91179767 29.07220147 457.93790075 31.59661102 457.97796822 C35.12887261 458.03122901 38.65785378 458.03445644 42.19042969 458.02563477 C43.76008484 458.06642151 43.76008484 458.06642151 45.3614502 458.10803223 C50.68803141 458.14210949 50.68803141 458.14210949 54.95542049 455.3448391 C56.25463477 453.3059475 57.27548092 451.32934774 58.20703125 449.1015625 C58.77466187 447.88629883 58.77466187 447.88629883 59.35375977 446.64648438 C60.1798701 444.30395612 60.99480074 441.96170912 61.76953125 439.6015625 C62.06617676 438.70590576 62.36282227 437.81024902 62.66845703 436.88745117 C69.04393005 416.65899105 70.43311636 395.51605749 70.55712891 374.45068359 C70.57378892 372.37732803 70.60120838 370.30403217 70.63916016 368.23095703 C70.69391785 365.21357006 70.71578558 362.19750412 70.73046875 359.1796875 C70.76447281 357.79671478 70.76447281 357.79671478 70.79916382 356.38580322 C70.78479076 352.00735169 70.62623473 349.02986943 67.82666016 345.53808594 C65.0463196 342.95208419 63.97840566 342.00957776 60.20703125 342.1015625 C56.03264997 343.68782739 53.42947942 345.21710961 51.20703125 349.1015625 C50.80383142 352.93832717 50.76786994 356.71408851 50.7109375 360.5703125 C50.20703125 364.1015625 50.20703125 364.1015625 48.390625 366.5390625 C45.19307222 368.82711458 43.03894264 368.64897841 39.20703125 368.1015625 C37.01538086 366.50537109 37.01538086 366.50537109 35.20703125 364.1015625 C34.74047852 360.89697266 34.74047852 360.89697266 34.7734375 357.140625 C34.76382954 355.76822805 34.75405883 354.39583224 34.74414062 353.0234375 C34.7527238 350.8751922 34.76952416 348.72724798 34.79174805 346.57910156 C34.80634829 344.49485673 34.79096259 342.412311 34.7734375 340.328125 C34.78318604 339.08627441 34.79293457 337.84442383 34.80297852 336.56494141 C34.00940221 331.95303091 32.51728304 330.36519103 29.20703125 327.1015625 C25.59173983 325.82114679 24.03032775 325.73778033 20.51953125 327.2890625 C18.12815466 329.16338469 16.75396101 330.49147807 15.20703125 333.1015625 C14.76681819 336.42342771 14.76681819 336.42342771 14.8359375 340.1328125 C14.81856004 341.51432546 14.80097561 342.89583582 14.78320312 344.27734375 C14.77312345 346.44324442 14.76953708 348.60897915 14.77124023 350.77490234 C14.76766651 352.87387081 14.74032052 354.9715703 14.7109375 357.0703125 C14.70908447 358.32263672 14.70723145 359.57496094 14.70532227 360.86523438 C14.20703125 364.1015625 14.20703125 364.1015625 12.39428711 366.50976562 C9.19943388 368.83485136 7.05665603 368.6515089 3.20703125 368.1015625 C1.01757812 366.72412109 1.01757812 366.72412109 -0.79296875 364.1015625 C-1.37176184 360.61657173 -1.30208397 357.16593819 -1.26171875 353.640625 C-1.26876831 352.61730072 -1.27581787 351.59397644 -1.28308105 350.53964233 C-1.31258695 346.16464323 -1.29594825 341.79008799 -1.28369141 337.41503906 C-1.28130853 334.21913086 -1.30224422 331.02394369 -1.32421875 327.828125 C-1.31289917 326.8435733 -1.30157959 325.85902161 -1.28991699 324.84463501 C-1.3331134 318.95886925 -1.86575034 315.58419134 -5.79296875 311.1015625 C-8.89345803 309.55131786 -11.37191093 309.81164235 -14.79296875 310.1015625 C-17.54625896 311.89718655 -19.31924336 313.15411172 -20.79296875 316.1015625 C-20.8896651 319.10383429 -20.93005184 322.08722323 -20.93359375 325.08984375 C-20.9519226 326.92904883 -20.97149299 328.76824189 -20.9921875 330.60742188 C-21.02115567 333.51086687 -21.04296866 336.41353978 -21.04345703 339.31713867 C-21.04679341 342.11707272 -21.08135495 344.91522008 -21.12109375 347.71484375 C-21.11402405 348.57958817 -21.10695435 349.44433258 -21.09967041 350.33528137 C-21.18802475 354.71665359 -21.40120594 356.57930847 -24.10839844 360.18823242 C-26.79296875 362.1015625 -26.79296875 362.1015625 -30.41796875 362.1015625 C-34.80163895 360.80269726 -34.80163895 360.80269726 -36.79296875 358.1015625 C-37.16934967 355.62242317 -37.16934967 355.62242317 -37.17150879 352.61135864 C-37.17971146 351.4701355 -37.18791412 350.32891235 -37.19636536 349.15310669 C-37.19021713 347.9000473 -37.18406891 346.64698792 -37.17773438 345.35595703 C-37.18598165 343.33143921 -37.19422971 341.3069214 -37.20250702 339.28240371 C-37.20851048 337.10508355 -37.20712126 334.92787779 -37.20365906 332.75055313 C-37.19685594 328.21217261 -37.21270644 323.67404567 -37.23205566 319.13571167 C-37.26993865 309.49934231 -37.28271214 299.8629949 -37.29296875 290.2265625 C-37.30403969 279.8304681 -37.31939455 269.43449021 -37.36368132 259.03847587 C-37.38203723 254.52799879 -37.38592997 250.0178109 -37.37874603 245.50730538 C-37.37722329 242.69908141 -37.38801379 239.89100184 -37.4021244 237.08281708 C-37.40803006 235.16224105 -37.39902606 233.24163727 -37.38957214 231.32107544 C-37.39777481 230.17421265 -37.40597748 229.02734985 -37.41442871 227.84573364 C-37.41514122 226.8513283 -37.41585373 225.85692295 -37.41658783 224.83238411 C-37.97801289 220.75897974 -39.74439012 218.11518851 -42.66796875 215.2890625 C-47.34501905 212.67541674 -50.67632659 214.09752633 -54.79296875 217.1015625 Z M-251.79296875 272.1015625 C-253.84421506 274.8054781 -253.79378099 276.07922578 -253.66796875 279.5390625 C-252.71942408 283.40099436 -251.53883601 285.27248714 -248.79296875 288.1015625 C-245.68343496 289.6563294 -243.23030114 289.38800687 -239.79296875 289.1015625 C-235.71149984 287.17634132 -234.16302505 285.88608185 -232.23046875 281.7890625 C-231.68685662 277.20718884 -232.44231298 275.04459798 -234.79296875 271.1015625 C-237.69662886 268.60118852 -239.48162648 268.14048028 -243.29296875 267.6640625 C-247.40944283 268.17862176 -248.92758274 269.15430832 -251.79296875 272.1015625 Z M140.20703125 272.1015625 C138.20436104 276.34722334 137.98521006 278.31866419 139.26953125 282.8515625 C141.36472142 286.36607505 142.42082773 287.63871114 146.20703125 289.1015625 C150.37777302 289.62290522 152.42578385 289.58767199 156.01953125 287.3515625 C158.75578219 284.58600615 158.75578219 284.58600615 160.20703125 281.1015625 C160.01446213 275.80591166 158.89749714 272.90386069 155.20703125 269.1015625 C149.60489586 266.30049481 144.58682311 268.12919314 140.20703125 272.1015625 Z M-235.66796875 344.7890625 C-237.34718973 348.24079452 -237.53215137 351.39854186 -236.79296875 355.1015625 C-234.89850469 358.3576726 -233.48896032 360.4503296 -229.890625 361.83203125 C-225.9325995 362.59932602 -224.09893393 362.25454509 -220.41796875 360.4140625 C-216.92189088 357.33418438 -215.96990913 355.7648021 -215.48046875 351.1640625 C-215.84992977 347.54334451 -216.45324209 345.89413948 -218.79296875 343.1015625 C-225.74596403 339.56407367 -229.6189297 339.34492736 -235.66796875 344.7890625 Z M125.20703125 343.1015625 C122.93660408 345.81142718 122.28867349 347.55339314 121.76953125 351.0390625 C122.41802089 355.57848999 124.42061958 358.63415291 127.95703125 361.5390625 C131.54204381 362.43531564 134.74064588 362.26160038 138.20703125 361.1015625 C141.07327896 358.65330925 142.82053094 356.85278515 143.6484375 353.1015625 C143.85284753 349.61999809 143.30079292 347.27408396 141.64453125 344.2265625 C136.08854037 339.38287814 131.42113071 339.39700321 125.20703125 343.1015625 Z M-59.79296875 474.1015625 C-59.79296875 476.0815625 -59.79296875 478.0615625 -59.79296875 480.1015625 C-23.82296875 480.1015625 12.14703125 480.1015625 49.20703125 480.1015625 C49.20703125 478.1215625 49.20703125 476.1415625 49.20703125 474.1015625 C13.23703125 474.1015625 -22.73296875 474.1015625 -59.79296875 474.1015625 Z " fill="#FF5757" transform="translate(302.79296875,14.8984375)"/>
</svg>
