<svg width="64" height="64" viewBox="0 0 64 64" fill="none" xmlns="http://www.w3.org/2000/svg">
<path d="M31.9999 5.33325C28.498 5.33325 25.0304 6.02301 21.795 7.36313C18.5597 8.70326 15.62 10.6675 13.1437 13.1437C8.14277 18.1447 5.33325 24.9275 5.33325 31.9999C5.33325 43.7866 12.9866 53.7866 23.5733 57.3332C24.9066 57.5466 25.3333 56.7199 25.3333 55.9999V51.4932C17.9466 53.0932 16.3733 47.9199 16.3733 47.9199C15.1466 44.8266 13.4133 43.9999 13.4133 43.9999C10.9866 42.3466 13.5999 42.3999 13.5999 42.3999C16.2666 42.5866 17.6799 45.1466 17.6799 45.1466C19.9999 49.1999 23.9199 47.9999 25.4399 47.3599C25.6799 45.6266 26.3733 44.4532 27.1199 43.7866C21.1999 43.1199 14.9866 40.8266 14.9866 30.6666C14.9866 27.7066 15.9999 25.3333 17.7333 23.4399C17.4666 22.7733 16.5333 19.9999 17.9999 16.3999C17.9999 16.3999 20.2399 15.6799 25.3333 19.1199C27.4399 18.5333 29.7333 18.2399 31.9999 18.2399C34.2666 18.2399 36.5599 18.5333 38.6666 19.1199C43.7599 15.6799 45.9999 16.3999 45.9999 16.3999C47.4666 19.9999 46.5333 22.7733 46.2666 23.4399C47.9999 25.3333 49.0133 27.7066 49.0133 30.6666C49.0133 40.8532 42.7733 43.0932 36.8266 43.7599C37.7866 44.5866 38.6666 46.2133 38.6666 48.6932V55.9999C38.6666 56.7199 39.0933 57.5732 40.4533 57.3332C51.0399 53.7599 58.6666 43.7866 58.6666 31.9999C58.6666 28.498 57.9768 25.0304 56.6367 21.795C55.2966 18.5597 53.3323 15.62 50.8561 13.1437C48.3799 10.6675 45.4402 8.70326 42.2048 7.36313C38.9695 6.02301 35.5018 5.33325 31.9999 5.33325Z" fill="white"/>
</svg>
