<?xml version="1.0" encoding="UTF-8"?>
<svg version="1.1" xmlns="http://www.w3.org/2000/svg" width="512" height="512">
<path d="M0 0 C1.18343994 -0.00241196 2.36687988 -0.00482391 3.58618164 -0.00730896 C6.08776196 -0.00632965 8.58936372 0.00708352 11.09082031 0.03198242 C14.92327379 0.06627894 18.75342117 0.05264628 22.5859375 0.03320312 C25.01563483 0.04010158 27.4453262 0.04977394 29.875 0.0625 C31.02299072 0.05754013 32.17098145 0.05258026 33.35375977 0.04747009 C34.95562134 0.07122459 34.95562134 0.07122459 36.58984375 0.09545898 C37.52820068 0.10165756 38.46655762 0.10785614 39.43334961 0.11424255 C42.69710111 0.78502272 43.90191517 2.03877362 45.9375 4.62890625 C46.39160156 7.65332031 46.39160156 7.65332031 46.328125 11.14453125 C46.31523437 12.39492188 46.30234375 13.6453125 46.2890625 14.93359375 C46.23878906 16.88652344 46.23878906 16.88652344 46.1875 18.87890625 C46.16945312 20.19632813 46.15140625 21.51375 46.1328125 22.87109375 C46.08566271 26.12442933 46.01986044 29.3763025 45.9375 32.62890625 C46.85966309 32.76337158 47.78182617 32.89783691 48.73193359 33.03637695 C53.57486414 33.93156297 57.56583492 36.30181111 61.9140625 38.546875 C64.76065711 39.92604846 64.76065711 39.92604846 66.90087891 38.92749023 C69.16766491 37.48214922 70.7415252 35.92414502 72.546875 33.93359375 C73.21976563 33.21816406 73.89265625 32.50273438 74.5859375 31.765625 C75.98368174 30.26136122 77.36924887 28.74568745 78.7421875 27.21875 C79.75925781 26.14947266 79.75925781 26.14947266 80.796875 25.05859375 C81.39983398 24.40101074 82.00279297 23.74342773 82.62402344 23.06591797 C85.33640498 21.38112715 87.57135952 20.88484203 90.76766968 21.04052734 C95.35255662 22.28378159 98.3381147 25.9399515 101.55859375 29.2578125 C102.7366433 30.43149635 102.7366433 30.43149635 103.93849182 31.62889099 C105.59100693 33.28471988 107.23365674 34.95044556 108.86694336 36.62524414 C111.36664979 39.18286258 113.90156506 41.70107729 116.44335938 44.21679688 C118.04650669 45.83241989 119.64749394 47.45018976 121.24609375 49.0703125 C122.00329208 49.82163956 122.76049042 50.57296661 123.54063416 51.34706116 C127.73955427 55.69928006 130.02953662 58.45953095 129.9375 64.62890625 C128.890625 66.67578125 128.890625 66.67578125 127.1875 68.37890625 C126.55328125 69.04019531 125.9190625 69.70148438 125.265625 70.3828125 C123.51628047 72.07051905 121.75534483 73.74156109 119.984375 75.40625 C119.48131836 75.88803711 118.97826172 76.36982422 118.45996094 76.86621094 C116.98966116 78.26672099 115.4951905 79.6417199 114 81.015625 C111.69642046 83.3806815 111.69642046 83.3806815 111.93359375 85.97265625 C112.26488281 86.84921875 112.59617188 87.72578125 112.9375 88.62890625 C113.15680176 89.22227783 113.37610352 89.81564941 113.60205078 90.42700195 C114.36627449 92.4476655 115.17631234 94.44429813 116 96.44140625 C116.28166016 97.13427734 116.56332031 97.82714844 116.85351562 98.54101562 C117.54424973 100.23858249 118.24033728 101.93396937 118.9375 103.62890625 C119.69893311 103.64348877 120.46036621 103.65807129 121.24487305 103.6730957 C124.70541888 103.74771166 128.16501445 103.84432884 131.625 103.94140625 C132.82318359 103.96396484 134.02136719 103.98652344 135.25585938 104.00976562 C136.99125977 104.06293945 136.99125977 104.06293945 138.76171875 104.1171875 C139.82479248 104.14337158 140.88786621 104.16955566 141.9831543 104.1965332 C145.33112884 104.68651444 147.25357734 105.58743911 149.9375 107.62890625 C150.91494614 110.56124466 151.08045929 112.51385817 151.11450195 115.57177734 C151.12733719 116.57647064 151.14017242 117.58116394 151.15339661 118.61630249 C151.16447701 120.24289291 151.16447701 120.24289291 151.17578125 121.90234375 C151.183853 123.01823883 151.19192474 124.13413391 151.20024109 125.28384399 C151.21407617 127.64591927 151.2248009 130.00801449 151.23266602 132.37011719 C151.24989935 135.98280593 151.29379434 139.59458447 151.33789062 143.20703125 C151.34801582 145.50129535 151.35653247 147.79556723 151.36328125 150.08984375 C151.38078934 151.1701889 151.39829742 152.25053406 151.41633606 153.36361694 C151.40353229 157.78825543 151.34797926 160.82360449 149.31811523 164.8059082 C146.21237668 167.1841822 144.31514905 167.2828474 140.421875 167.3359375 C139.17148437 167.36494141 137.92109375 167.39394531 136.6328125 167.42382812 C135.33085937 167.42962891 134.02890625 167.43542969 132.6875 167.44140625 C131.37007812 167.46654297 130.05265625 167.49167969 128.6953125 167.51757812 C125.44240844 167.57650755 122.19085205 167.61274722 118.9375 167.62890625 C118.52757812 168.65371094 118.11765625 169.67851562 117.6953125 170.734375 C114.31640625 179.18164062 114.31640625 179.18164062 110.9375 187.62890625 C111.47753662 188.14275879 112.01757324 188.65661133 112.57397461 189.18603516 C115.0207826 191.52870683 117.44785555 193.89087505 119.875 196.25390625 C121.15020508 197.46626953 121.15020508 197.46626953 122.45117188 198.703125 C123.26005859 199.49589844 124.06894531 200.28867188 124.90234375 201.10546875 C125.6512085 201.82814941 126.40007324 202.55083008 127.17163086 203.29541016 C129.36193463 206.18977259 129.86540925 208.00685663 129.9375 211.62890625 C127.86009403 216.68935993 123.46379608 220.46176665 119.671875 224.30078125 C118.96025208 225.02380432 118.24862915 225.74682739 117.51544189 226.49176025 C116.01198012 228.01406622 114.50562674 229.53352112 112.99658203 231.05029297 C110.69524286 233.37109789 108.41610958 235.71234909 106.13671875 238.0546875 C104.67059596 239.5338667 103.20318983 241.0117752 101.734375 242.48828125 C100.71993317 243.53976349 100.71993317 243.53976349 99.68499756 244.61248779 C95.62443539 248.63558139 92.93849301 250.6471123 86.9375 250.62890625 C84.92578125 249.6171875 84.92578125 249.6171875 83.25 247.94140625 C82.59644531 247.3071875 81.94289062 246.67296875 81.26953125 246.01953125 C80.49996094 245.230625 79.73039063 244.44171875 78.9375 243.62890625 C77.88052993 242.58039194 76.8218163 241.53363343 75.76171875 240.48828125 C72.794242 237.55949203 69.869867 234.5945956 66.9375 231.62890625 C60.3375 234.26890625 53.7375 236.90890625 46.9375 239.62890625 C46.92332031 241.60375 46.90914062 243.57859375 46.89453125 245.61328125 C46.84763695 248.20184647 46.79938955 250.79038743 46.75 253.37890625 C46.74129883 255.33183594 46.74129883 255.33183594 46.73242188 257.32421875 C46.70341797 258.57460938 46.67441406 259.825 46.64453125 261.11328125 C46.6288208 262.26538086 46.61311035 263.41748047 46.59692383 264.60449219 C45.9375 267.62890625 45.9375 267.62890625 44.11010742 270.00512695 C39.30009212 272.46695164 34.79785514 272.18073845 29.46875 272.125 C28.35568481 272.12645523 27.24261963 272.12791046 26.0958252 272.12940979 C23.74566019 272.12775193 21.39548419 272.11620345 19.04541016 272.09545898 C15.45037669 272.06650994 11.85681861 272.07485242 8.26171875 272.08789062 C5.97655534 272.08165286 3.69139658 272.07326163 1.40625 272.0625 C-0.20485657 272.06690346 -0.20485657 272.06690346 -1.84851074 272.07139587 C-11.36946022 271.95117656 -11.36946022 271.95117656 -15.0625 268.62890625 C-16.12086661 265.45380643 -16.26493789 262.98608242 -16.37890625 259.6484375 C-16.42080078 258.48505859 -16.46269531 257.32167969 -16.50585938 256.12304688 C-16.54517578 254.90810547 -16.58449219 253.69316406 -16.625 252.44140625 C-16.68977539 250.6015918 -16.68977539 250.6015918 -16.75585938 248.72460938 C-16.8620309 245.69282244 -16.96407952 242.6609531 -17.0625 239.62890625 C-19.4562297 238.64431554 -21.8522507 237.66611922 -24.25 236.69140625 C-24.92353516 236.41361328 -25.59707031 236.13582031 -26.29101562 235.84960938 C-26.95166016 235.58212891 -27.61230469 235.31464844 -28.29296875 235.0390625 C-29.19631958 234.66986694 -29.19631958 234.66986694 -30.11791992 234.29321289 C-32.51308146 233.4749788 -34.5230292 232.81870633 -37.0625 232.62890625 C-39.19794853 234.03386867 -39.19794853 234.03386867 -41.0234375 236.21484375 C-41.74273437 236.98054687 -42.46203125 237.74625 -43.203125 238.53515625 C-44.6853036 240.17280812 -46.16707862 241.81082536 -47.6484375 243.44921875 C-50.84853824 246.85504025 -53.25006989 249.28994534 -57.6015625 251.10546875 C-61.39437986 250.58320722 -62.09829319 250.02161648 -64.81982422 247.53442383 C-65.52182953 246.89676086 -66.22383484 246.2590979 -66.94711304 245.60211182 C-67.64519073 244.95095398 -68.34326843 244.29979614 -69.0625 243.62890625 C-69.6783194 243.05686462 -70.29413879 242.484823 -70.92861938 241.89544678 C-74.83279514 238.22565026 -78.66101974 234.47757409 -82.48339844 230.72290039 C-83.87592194 229.362263 -85.27643187 228.00975409 -86.68457031 226.6652832 C-88.73630796 224.70470744 -90.76068019 222.71918418 -92.78125 220.7265625 C-93.41236694 220.13359879 -94.04348389 219.54063507 -94.69372559 218.92970276 C-97.67209007 215.93774475 -99.463557 213.79624462 -99.70117188 209.48022461 C-98.99144348 205.2004213 -98.23107488 203.84367141 -95.125 200.91015625 C-94.31289062 200.12382812 -93.50078125 199.3375 -92.6640625 198.52734375 C-91.80554688 197.73585937 -90.94703125 196.944375 -90.0625 196.12890625 C-89.20398438 195.30648437 -88.34546875 194.4840625 -87.4609375 193.63671875 C-85.34503864 191.61485984 -83.21282017 189.6140127 -81.0625 187.62890625 C-82.74245173 182.37709453 -84.84048542 177.38758137 -87.0390625 172.3359375 C-88.0625 169.62890625 -88.0625 169.62890625 -88.0625 166.62890625 C-88.88975586 166.64985352 -89.71701172 166.67080078 -90.56933594 166.69238281 C-94.3169337 166.77552244 -98.06433749 166.82756156 -101.8125 166.87890625 C-103.76542969 166.92917969 -103.76542969 166.92917969 -105.7578125 166.98046875 C-107.00820312 166.99335938 -108.25859375 167.00625 -109.546875 167.01953125 C-110.69897461 167.04047852 -111.85107422 167.06142578 -113.03808594 167.08300781 C-116.79134974 166.51947289 -117.72040702 165.55709895 -120.0625 162.62890625 C-120.5771637 160.12475586 -120.5771637 160.12475586 -120.59594727 157.28125 C-120.6117836 156.21334229 -120.62761993 155.14543457 -120.64393616 154.04516602 C-120.63897629 152.89717529 -120.63401642 151.74918457 -120.62890625 150.56640625 C-120.63510483 149.38296631 -120.64130341 148.19952637 -120.64768982 146.98022461 C-120.65479224 144.47868676 -120.65160673 141.97710168 -120.63891602 139.47558594 C-120.62505098 135.6429979 -120.659119 131.81285049 -120.69726562 127.98046875 C-120.69821679 125.55078065 -120.69635816 123.12108949 -120.69140625 120.69140625 C-120.70466446 119.54341553 -120.71792267 118.3954248 -120.73158264 117.21264648 C-120.63948094 109.36494538 -120.63948094 109.36494538 -117.92285156 105.89941406 C-114.58984633 104.41896346 -112.31073336 104.1692241 -108.66796875 104.23828125 C-107.46591797 104.25117187 -106.26386719 104.2640625 -105.02539062 104.27734375 C-103.77951172 104.31085938 -102.53363281 104.344375 -101.25 104.37890625 C-99.98478516 104.39695312 -98.71957031 104.415 -97.41601562 104.43359375 C-94.29740665 104.48066709 -91.18034027 104.54641531 -88.0625 104.62890625 C-87.87276611 103.96358887 -87.68303223 103.29827148 -87.48754883 102.61279297 C-85.9453568 97.31907532 -84.20489951 92.52076778 -81.63671875 87.63671875 C-80.84383714 85.62757363 -80.84383714 85.62757363 -81.7956543 83.73120117 C-83.20764899 81.38803558 -84.74269237 79.83144543 -86.7578125 77.984375 C-87.47324219 77.30697266 -88.18867187 76.62957031 -88.92578125 75.93164062 C-90.4319491 74.52302251 -91.94762289 73.12449952 -93.47265625 71.73632812 C-96.76598776 68.58890371 -98.8098449 66.5832631 -99.9921875 62.1171875 C-98.61715423 56.957924 -95.80227163 54.34636864 -92.0625 50.62890625 C-91.00458154 49.54943152 -89.94787292 48.46877036 -88.89208984 47.38720703 C-85.84236596 44.27649399 -82.76686988 41.19265298 -79.68139648 38.11743164 C-77.73368197 36.1751336 -75.7914407 34.22747485 -73.84960938 32.27929688 C-72.61230017 31.0426475 -71.37468132 29.80630783 -70.13671875 28.5703125 C-69.55653488 27.9881044 -68.97635101 27.4058963 -68.37858582 26.80604553 C-65.23104356 23.67695045 -63.40225031 21.90478791 -59.02734375 21.00390625 C-54.02044933 21.07660163 -51.34504958 24.63694454 -48.04882812 28.02734375 C-46.8490332 29.31511719 -46.8490332 29.31511719 -45.625 30.62890625 C-44.38459961 31.91667969 -44.38459961 31.91667969 -43.11914062 33.23046875 C-41.08358862 35.34838413 -39.06614384 37.48085279 -37.0625 39.62890625 C-31.58133601 37.85168035 -26.24809376 35.76842159 -20.890625 33.65234375 C-18.0625 32.62890625 -18.0625 32.62890625 -16.0625 32.62890625 C-16.0939209 31.44131714 -16.0939209 31.44131714 -16.12597656 30.22973633 C-16.20925467 26.63375607 -16.26119891 23.03797889 -16.3125 19.44140625 C-16.34601563 18.19552734 -16.37953125 16.94964844 -16.4140625 15.66601562 C-16.43339844 13.86293945 -16.43339844 13.86293945 -16.453125 12.0234375 C-16.4845459 10.36598511 -16.4845459 10.36598511 -16.51660156 8.67504883 C-15.07420769 -1.00062231 -8.10060224 -0.09355431 0 0 Z M-1.0625 15.62890625 C-1.27238837 24.05007194 -1.27238837 24.05007194 -1.45043945 32.47192383 C-1.50010864 34.0442981 -1.50010864 34.0442981 -1.55078125 35.6484375 C-1.57696533 36.72198486 -1.60314941 37.79553223 -1.63012695 38.90161133 C-2.0625 41.62890625 -2.0625 41.62890625 -3.35424805 43.41552734 C-5.20169597 44.72777776 -6.73598013 45.38224518 -8.90625 46.0234375 C-9.65293945 46.25401855 -10.39962891 46.48459961 -11.16894531 46.72216797 C-11.95881836 46.9595166 -12.74869141 47.19686523 -13.5625 47.44140625 C-20.10416623 49.48844939 -25.88552788 51.82005147 -31.703125 55.52734375 C-34.7193047 56.9355601 -36.76798433 57.01443468 -40.0625 56.62890625 C-42.046875 55.44921875 -42.046875 55.44921875 -43.8125 53.75390625 C-44.47765625 53.12613281 -45.1428125 52.49835938 -45.828125 51.8515625 C-46.93414062 50.75134766 -46.93414062 50.75134766 -48.0625 49.62890625 C-48.96484375 48.74074219 -49.8671875 47.85257813 -50.796875 46.9375 C-53.23492624 44.51666663 -55.65536682 42.08043328 -58.0625 39.62890625 C-63.49983055 44.15882421 -68.52708931 48.97184841 -73.5 54.00390625 C-74.23154297 54.73996094 -74.96308594 55.47601563 -75.71679688 56.234375 C-77.50102723 58.03026699 -79.28286124 59.8284661 -81.0625 61.62890625 C-77.46144306 65.92971314 -73.76906885 70.01991722 -69.75 73.94140625 C-64.20268209 79.35605288 -64.20268209 79.35605288 -63.76953125 83.2890625 C-64.13542439 87.46024424 -65.76137062 90.47314341 -67.75 94.06640625 C-71.33368506 100.81929887 -73.87234122 107.49477245 -76.0546875 114.8125 C-77.0625 117.62890625 -77.0625 117.62890625 -79.0625 118.62890625 C-81.02024069 118.78269477 -82.98267352 118.87862088 -84.9453125 118.9453125 C-85.99605957 118.98342041 -87.04680664 119.02152832 -88.12939453 119.06079102 C-90.13815674 119.12544556 -90.13815674 119.12544556 -92.1875 119.19140625 C-98.560625 119.40796875 -98.560625 119.40796875 -105.0625 119.62890625 C-105.0625 130.18890625 -105.0625 140.74890625 -105.0625 151.62890625 C-97.01548748 151.79918495 -97.01548748 151.79918495 -88.96777344 151.92675781 C-87.46005371 151.97268066 -87.46005371 151.97268066 -85.921875 152.01953125 C-84.89545898 152.04047852 -83.86904297 152.06142578 -82.81152344 152.08300781 C-79.37795766 152.76484201 -78.21198721 153.9148298 -76.0625 156.62890625 C-74.82421875 159.80859375 -74.82421875 159.80859375 -73.75 163.50390625 C-71.68438065 170.30864419 -68.85207045 176.29128298 -65.41796875 182.5078125 C-63.94021816 185.91047165 -63.57222709 187.96449534 -64.0625 191.62890625 C-65.2421875 193.61328125 -65.2421875 193.61328125 -66.9375 195.37890625 C-67.87916016 196.37664062 -67.87916016 196.37664062 -68.83984375 197.39453125 C-69.57332031 198.131875 -70.30679688 198.86921875 -71.0625 199.62890625 C-71.95066406 200.53125 -72.83882812 201.43359375 -73.75390625 202.36328125 C-76.17473962 204.80133249 -78.61097297 207.22177307 -81.0625 209.62890625 C-76.67807474 214.88065551 -72.05407907 219.76113098 -67.1875 224.56640625 C-66.49914062 225.25025391 -65.81078125 225.93410156 -65.1015625 226.63867188 C-63.42416489 228.30442089 -61.74446209 229.96776845 -60.0625 231.62890625 C-57.16786387 230.32397299 -55.15853374 228.95192216 -52.96875 226.66015625 C-52.41316406 226.08910156 -51.85757813 225.51804688 -51.28515625 224.9296875 C-50.71667969 224.33542969 -50.14820313 223.74117187 -49.5625 223.12890625 C-48.43198183 221.94711742 -47.29670232 220.7698613 -46.15625 219.59765625 C-45.65802734 219.07623047 -45.15980469 218.55480469 -44.64648438 218.01757812 C-41.87445918 215.58735628 -39.92223184 214.57701571 -36.21484375 214.80078125 C-32.66839446 215.73243831 -29.8480624 217.13260625 -26.625 218.87890625 C-20.28363004 222.2226786 -13.89711687 224.50386191 -7.046875 226.5859375 C-4.0625 227.62890625 -4.0625 227.62890625 -2.0625 229.62890625 C-1.74365234 232.33447266 -1.74365234 232.33447266 -1.6484375 235.73046875 C-1.61282715 236.82182129 -1.5772168 237.91317383 -1.54052734 239.03759766 C-1.50652832 240.42897949 -1.4725293 241.82036133 -1.4375 243.25390625 C-1.31375 247.66765625 -1.19 252.08140625 -1.0625 256.62890625 C9.4975 256.62890625 20.0575 256.62890625 30.9375 256.62890625 C31.18691083 248.2076825 31.18691083 248.2076825 31.41552734 239.78588867 C31.4511377 238.73763916 31.48674805 237.68938965 31.5234375 236.609375 C31.5548584 235.53582764 31.5862793 234.46228027 31.61865234 233.35620117 C31.9375 230.62890625 31.9375 230.62890625 33.9375 227.62890625 C36.68705591 226.60224803 39.38009303 225.71186999 42.1875 224.87890625 C49.610033 222.57738595 56.17428939 219.68986301 62.921875 215.8515625 C66.72905736 214.30797691 68.07875063 214.15661534 71.9375 215.62890625 C74.97599851 218.08733462 77.63166178 220.85301425 80.3125 223.69140625 C81.41658203 224.82932617 81.41658203 224.82932617 82.54296875 225.99023438 C84.35296705 227.85899885 86.15025293 229.73841437 87.9375 231.62890625 C91.50514285 230.11514544 93.77456287 228.02377496 96.484375 225.27734375 C97.32871094 224.4265625 98.17304688 223.57578125 99.04296875 222.69921875 C99.91566406 221.80976563 100.78835937 220.9203125 101.6875 220.00390625 C102.57566406 219.10671875 103.46382812 218.20953125 104.37890625 217.28515625 C106.56966969 215.07083621 108.75562763 212.8519819 110.9375 210.62890625 C109.59446985 207.60616459 108.13619811 205.628295 105.71484375 203.38671875 C105.09416016 202.79503906 104.47347656 202.20335937 103.83398438 201.59375 C102.52980358 200.36888629 101.21989472 199.15009266 99.90429688 197.9375 C97.16714612 195.31143029 95.2081667 193.28080611 93.7421875 189.75 C94.03276776 185.10652738 95.98785009 181.64267059 98.125 177.56640625 C101.53892263 170.77859354 104.22350149 164.38390033 106.0859375 157 C106.9375 154.62890625 106.9375 154.62890625 109.9375 152.62890625 C112.66479492 152.31005859 112.66479492 152.31005859 115.91796875 152.21484375 C116.96621826 152.1792334 118.01446777 152.14362305 119.09448242 152.10693359 C120.42455322 152.07293457 121.75462402 152.03893555 123.125 152.00390625 C129.4671875 151.81828125 129.4671875 151.81828125 135.9375 151.62890625 C135.9375 141.06890625 135.9375 130.50890625 135.9375 119.62890625 C127.18714481 119.49805462 127.18714481 119.49805462 118.4362793 119.42114258 C117.34742432 119.3930249 116.25856934 119.36490723 115.13671875 119.3359375 C114.02127686 119.32022705 112.90583496 119.3045166 111.7565918 119.28833008 C108.9375 118.62890625 108.9375 118.62890625 107.13720703 116.32128906 C106.17759412 114.16772553 105.26860659 112.08401991 104.54296875 109.84375 C104.31230713 109.1537793 104.08164551 108.46380859 103.84399414 107.75292969 C103.48809204 106.67060059 103.48809204 106.67060059 103.125 105.56640625 C100.9252936 99.03407262 98.36118695 93.14414652 94.94140625 87.14453125 C93.72021488 84.08442525 93.85062543 82.71422761 94.9375 79.62890625 C96.25 77.70703125 96.25 77.70703125 97.9375 75.87890625 C98.55753906 75.2034375 99.17757812 74.52796875 99.81640625 73.83203125 C103.46713986 70.04010905 107.17739263 66.31227674 110.9375 62.62890625 C109.42373919 59.0612634 107.33236871 56.79184338 104.5859375 54.08203125 C103.73515625 53.23769531 102.884375 52.39335938 102.0078125 51.5234375 C101.11835938 50.65074219 100.22890625 49.77804688 99.3125 48.87890625 C98.4153125 47.99074219 97.518125 47.10257813 96.59375 46.1875 C94.37942996 43.99673656 92.16057565 41.81077862 89.9375 39.62890625 C85.63669311 43.22996319 81.54648903 46.9223374 77.625 50.94140625 C72.23636013 56.46208018 72.23636013 56.46208018 68.3828125 56.95703125 C63.60709098 56.50220063 60.04483114 54.54338225 55.8125 52.37890625 C49.31731641 49.15729519 43.08790163 46.42382844 36.08984375 44.48046875 C33.9375 43.62890625 33.9375 43.62890625 31.9375 40.62890625 C31.61865234 37.9934082 31.61865234 37.9934082 31.5234375 34.8671875 C31.47002197 33.35572144 31.47002197 33.35572144 31.41552734 31.8137207 C31.38152832 30.53585693 31.3475293 29.25799316 31.3125 27.94140625 C31.18875 23.87828125 31.065 19.81515625 30.9375 15.62890625 C20.3775 15.62890625 9.8175 15.62890625 -1.0625 15.62890625 Z " fill="#fff" transform="translate(138.0625,17.37109375)"/>
<path d="M0 0 C1.11306519 -0.00145523 2.22613037 -0.00291046 3.3729248 -0.00440979 C5.72308981 -0.00275193 8.07326581 0.00879655 10.42333984 0.02954102 C14.01837331 0.05849006 17.61193139 0.05014758 21.20703125 0.03710938 C23.49219466 0.04334714 25.77735342 0.05173837 28.0625 0.0625 C29.13657104 0.05956436 30.21064209 0.05662872 31.31726074 0.05360413 C40.83821022 0.17382344 40.83821022 0.17382344 44.53125 3.49609375 C45.58961661 6.67119357 45.73368789 9.13891758 45.84765625 12.4765625 C45.91049805 14.22163086 45.91049805 14.22163086 45.97460938 16.00195312 C46.01392578 17.21689453 46.05324219 18.43183594 46.09375 19.68359375 C46.13693359 20.91013672 46.18011719 22.13667969 46.22460938 23.40039062 C46.3307809 26.43217756 46.43282952 29.4640469 46.53125 32.49609375 C48.9249797 33.48068446 51.3210007 34.45888078 53.71875 35.43359375 C54.39228516 35.71138672 55.06582031 35.98917969 55.75976562 36.27539062 C56.75073242 36.67661133 56.75073242 36.67661133 57.76171875 37.0859375 C58.36395264 37.33206787 58.96618652 37.57819824 59.58666992 37.83178711 C61.98183146 38.6500212 63.9917792 39.30629367 66.53125 39.49609375 C68.66669853 38.09113133 68.66669853 38.09113133 70.4921875 35.91015625 C71.21148437 35.14445312 71.93078125 34.37875 72.671875 33.58984375 C74.1540536 31.95219188 75.63582862 30.31417464 77.1171875 28.67578125 C80.31728824 25.26995975 82.71881989 22.83505466 87.0703125 21.01953125 C90.86218263 21.54166235 91.56705267 22.10255221 94.28857422 24.58837891 C94.99057953 25.2260318 95.69258484 25.86368469 96.41586304 26.5206604 C97.11394073 27.17255341 97.81201843 27.82444641 98.53125 28.49609375 C99.1470694 29.07040131 99.76288879 29.64470886 100.39736938 30.23641968 C104.29978182 33.92412019 108.12760255 37.6888624 111.95214844 41.45703125 C113.34553524 42.8235844 114.74603564 44.18291953 116.15332031 45.53515625 C118.20258871 47.50549691 120.22809354 49.4977315 122.25 51.49609375 C122.88111694 52.09421875 123.51223389 52.69234375 124.16247559 53.30859375 C127.28123871 56.44200101 128.44356131 57.77631766 128.99536133 62.30566406 C128.50377473 65.68496633 128.06502301 66.85036768 125.71875 69.24609375 C125.09226562 69.9009375 124.46578125 70.55578125 123.8203125 71.23046875 C123.06492187 71.978125 122.30953125 72.72578125 121.53125 73.49609375 C120.559099 74.47968182 119.58779411 75.46410664 118.6171875 76.44921875 C115.94208729 79.152387 113.24237977 81.82908725 110.53125 84.49609375 C112.21120173 89.74790547 114.30923542 94.73741863 116.5078125 99.7890625 C117.53125 102.49609375 117.53125 102.49609375 117.53125 105.49609375 C118.35850586 105.47514648 119.18576172 105.45419922 120.03808594 105.43261719 C123.7856837 105.34947756 127.53308749 105.29743844 131.28125 105.24609375 C132.58320313 105.21257812 133.88515625 105.1790625 135.2265625 105.14453125 C136.47695313 105.13164062 137.72734375 105.11875 139.015625 105.10546875 C140.16772461 105.08452148 141.31982422 105.06357422 142.50683594 105.04199219 C146.26009974 105.60552711 147.18915702 106.56790105 149.53125 109.49609375 C150.0459137 112.00024414 150.0459137 112.00024414 150.06469727 114.84375 C150.0805336 115.91165771 150.09636993 116.97956543 150.11268616 118.07983398 C150.10524635 119.80182007 150.10524635 119.80182007 150.09765625 121.55859375 C150.10385483 122.74203369 150.11005341 123.92547363 150.11643982 125.14477539 C150.12354224 127.64631324 150.12035673 130.14789832 150.10766602 132.64941406 C150.09380098 136.4820021 150.127869 140.31214951 150.16601562 144.14453125 C150.16696679 146.57421935 150.16510816 149.00391051 150.16015625 151.43359375 C150.17341446 152.58158447 150.18667267 153.7295752 150.20033264 154.91235352 C150.10823094 162.76005462 150.10823094 162.76005462 147.39160156 166.22558594 C144.05859633 167.70603654 141.77948336 167.9557759 138.13671875 167.88671875 C136.93466797 167.87382812 135.73261719 167.8609375 134.49414062 167.84765625 C132.62532227 167.79738281 132.62532227 167.79738281 130.71875 167.74609375 C129.45353516 167.72804688 128.18832031 167.71 126.88476562 167.69140625 C123.76615665 167.64433291 120.64909027 167.57858469 117.53125 167.49609375 C117.24664917 168.49406982 117.24664917 168.49406982 116.95629883 169.51220703 C115.4141068 174.80592468 113.67364951 179.60423222 111.10546875 184.48828125 C110.31258714 186.49742637 110.31258714 186.49742637 111.2644043 188.39379883 C112.67639899 190.73696442 114.21144237 192.29355457 116.2265625 194.140625 C116.94199219 194.81802734 117.65742188 195.49542969 118.39453125 196.19335938 C119.9006991 197.60197749 121.41637289 199.00050048 122.94140625 200.38867188 C126.23473776 203.53609629 128.2785949 205.5417369 129.4609375 210.0078125 C128.08590423 215.167076 125.27102163 217.77863136 121.53125 221.49609375 C120.47333154 222.57556848 119.41662292 223.65622964 118.36083984 224.73779297 C115.31111596 227.84850601 112.23561988 230.93234702 109.15014648 234.00756836 C107.20243197 235.9498664 105.2601907 237.89752515 103.31835938 239.84570312 C102.08105017 241.0823525 100.84343132 242.31869217 99.60546875 243.5546875 C99.02528488 244.1368956 98.44510101 244.7191037 97.84733582 245.31895447 C94.69979356 248.44804955 92.87100031 250.22021209 88.49609375 251.12109375 C83.48919933 251.04839837 80.81379958 247.48805546 77.51757812 244.09765625 C76.71771484 243.23914063 75.91785156 242.380625 75.09375 241.49609375 C74.26681641 240.63757813 73.43988281 239.7790625 72.58789062 238.89453125 C70.55233862 236.77661587 68.53489384 234.64414721 66.53125 232.49609375 C61.05008601 234.27331965 55.71684376 236.35657841 50.359375 238.47265625 C47.53125 239.49609375 47.53125 239.49609375 45.53125 239.49609375 C45.55219727 240.28781982 45.57314453 241.0795459 45.59472656 241.89526367 C45.67800467 245.49124393 45.72994891 249.08702111 45.78125 252.68359375 C45.81476563 253.92947266 45.84828125 255.17535156 45.8828125 256.45898438 C45.89570313 257.66103516 45.90859375 258.86308594 45.921875 260.1015625 C45.94282227 261.20653076 45.96376953 262.31149902 45.98535156 263.44995117 C45.37830823 267.52203699 44.80849381 268.92706292 41.53125 271.49609375 C37.51329445 272.2408067 33.54481121 272.17207466 29.46875 272.125 C27.69359009 272.12861794 27.69359009 272.12861794 25.88256836 272.13230896 C23.38098804 272.13132965 20.87938628 272.11791648 18.37792969 272.09301758 C14.54547621 272.05872106 10.71532883 272.07235372 6.8828125 272.09179688 C4.45311517 272.08489842 2.0234238 272.07522606 -0.40625 272.0625 C-1.55424072 272.06745987 -2.70223145 272.07241974 -3.88500977 272.07752991 C-4.95291748 272.06169357 -6.0208252 272.04585724 -7.12109375 272.02954102 C-8.05945068 272.02334244 -8.99780762 272.01714386 -9.96459961 272.01075745 C-13.22835111 271.33997728 -14.43316517 270.08622638 -16.46875 267.49609375 C-16.92285156 264.47167969 -16.92285156 264.47167969 -16.859375 260.98046875 C-16.84648437 259.73007812 -16.83359375 258.4796875 -16.8203125 257.19140625 C-16.78679687 255.88945312 -16.75328125 254.5875 -16.71875 253.24609375 C-16.70070313 251.92867187 -16.68265625 250.61125 -16.6640625 249.25390625 C-16.61691271 246.00057067 -16.55111044 242.7486975 -16.46875 239.49609375 C-17.85199463 239.29439575 -17.85199463 239.29439575 -19.26318359 239.08862305 C-24.10611414 238.19343703 -28.09708492 235.82318889 -32.4453125 233.578125 C-35.29190711 232.19895154 -35.29190711 232.19895154 -37.43212891 233.19750977 C-39.69891491 234.64285078 -41.2727752 236.20085498 -43.078125 238.19140625 C-43.75101562 238.90683594 -44.42390625 239.62226563 -45.1171875 240.359375 C-46.51493174 241.86363878 -47.90049887 243.37931255 -49.2734375 244.90625 C-49.95148438 245.61910156 -50.62953125 246.33195313 -51.328125 247.06640625 C-51.93108398 247.72398926 -52.53404297 248.38157227 -53.15527344 249.05908203 C-55.86765498 250.74387285 -58.10260952 251.24015797 -61.29891968 251.08447266 C-65.88380662 249.84121841 -68.8693647 246.1850485 -72.08984375 242.8671875 C-72.87521011 242.0847316 -73.66057648 241.3022757 -74.46974182 240.49610901 C-76.12225693 238.84028012 -77.76490674 237.17455444 -79.39819336 235.49975586 C-81.89789979 232.94213742 -84.43281506 230.42392271 -86.97460938 227.90820312 C-88.57775669 226.29258011 -90.17874394 224.67481024 -91.77734375 223.0546875 C-92.53454208 222.30336044 -93.29174042 221.55203339 -94.07188416 220.77793884 C-98.27080427 216.42571994 -100.56078662 213.66546905 -100.46875 207.49609375 C-99.421875 205.44921875 -99.421875 205.44921875 -97.71875 203.74609375 C-97.08453125 203.08480469 -96.4503125 202.42351562 -95.796875 201.7421875 C-94.04753047 200.05448095 -92.28659483 198.38343891 -90.515625 196.71875 C-89.76104004 195.99606934 -89.76104004 195.99606934 -88.99121094 195.25878906 C-87.52091116 193.85827901 -86.0264405 192.4832801 -84.53125 191.109375 C-82.22767046 188.7443185 -82.22767046 188.7443185 -82.46484375 186.15234375 C-82.79613281 185.27578125 -83.12742187 184.39921875 -83.46875 183.49609375 C-83.68805176 182.90272217 -83.90735352 182.30935059 -84.13330078 181.69799805 C-84.89752449 179.6773345 -85.70756234 177.68070187 -86.53125 175.68359375 C-86.95374023 174.64428711 -86.95374023 174.64428711 -87.38476562 173.58398438 C-88.07549973 171.88641751 -88.77158728 170.19103063 -89.46875 168.49609375 C-90.23018311 168.48151123 -90.99161621 168.46692871 -91.77612305 168.4519043 C-95.23666888 168.37728834 -98.69626445 168.28067116 -102.15625 168.18359375 C-103.95352539 168.14975586 -103.95352539 168.14975586 -105.78710938 168.11523438 C-106.94404297 168.07978516 -108.10097656 168.04433594 -109.29296875 168.0078125 C-110.35604248 167.98162842 -111.41911621 167.95544434 -112.5144043 167.9284668 C-115.86237884 167.43848556 -117.78482734 166.53756089 -120.46875 164.49609375 C-121.44619614 161.56375534 -121.61170929 159.61114183 -121.64575195 156.55322266 C-121.65858719 155.54852936 -121.67142242 154.54383606 -121.68464661 153.50869751 C-121.69203354 152.42430389 -121.69942047 151.33991028 -121.70703125 150.22265625 C-121.715103 149.10676117 -121.72317474 147.99086609 -121.73149109 146.84115601 C-121.74532617 144.47908073 -121.7560509 142.11698551 -121.76391602 139.75488281 C-121.78114935 136.14219407 -121.82504434 132.53041553 -121.86914062 128.91796875 C-121.87926582 126.62370465 -121.88778247 124.32943277 -121.89453125 122.03515625 C-121.91203934 120.9548111 -121.92954742 119.87446594 -121.94758606 118.76138306 C-121.93478229 114.33674457 -121.87922926 111.30139551 -119.84936523 107.3190918 C-116.74362668 104.9408178 -114.84639905 104.8421526 -110.953125 104.7890625 C-109.07753906 104.74555664 -109.07753906 104.74555664 -107.1640625 104.70117188 C-105.21113281 104.6924707 -105.21113281 104.6924707 -103.21875 104.68359375 C-101.90132812 104.65845703 -100.58390625 104.63332031 -99.2265625 104.60742188 C-95.97365844 104.54849245 -92.72210205 104.51225278 -89.46875 104.49609375 C-89.05882812 103.47128906 -88.64890625 102.44648438 -88.2265625 101.390625 C-84.84765625 92.94335938 -84.84765625 92.94335938 -81.46875 84.49609375 C-82.00878662 83.98747803 -82.54882324 83.4788623 -83.10522461 82.95483398 C-85.55470829 80.63045054 -87.98036358 78.28258415 -90.40625 75.93359375 C-91.25638672 75.13373047 -92.10652344 74.33386719 -92.98242188 73.50976562 C-96.45949633 70.11580849 -99.08221394 67.41876035 -100.97265625 62.90625 C-100.18522932 57.57738403 -97.21851601 55.20411431 -93.46875 51.49609375 C-92.40325098 50.38715109 -91.34100574 49.27507701 -90.28125 48.16064453 C-87.19749714 44.92774515 -84.07472866 41.73592569 -80.93505859 38.55737305 C-79.61790634 37.21846996 -78.30706538 35.87333035 -77.00244141 34.5222168 C-75.09932959 32.55220801 -73.17725569 30.60261031 -71.25 28.65625 C-70.67374878 28.05216812 -70.09749756 27.44808624 -69.50378418 26.82569885 C-65.69896001 23.03981082 -63.06016539 21.58647729 -57.46875 21.49609375 C-55.45703125 22.5078125 -55.45703125 22.5078125 -53.78125 24.18359375 C-53.12769531 24.8178125 -52.47414063 25.45203125 -51.80078125 26.10546875 C-51.03121094 26.894375 -50.26164062 27.68328125 -49.46875 28.49609375 C-48.41177993 29.54460806 -47.3530663 30.59136657 -46.29296875 31.63671875 C-43.325492 34.56550797 -40.401117 37.5304044 -37.46875 40.49609375 C-30.86875 37.85609375 -24.26875 35.21609375 -17.46875 32.49609375 C-17.45457031 30.52125 -17.44039063 28.54640625 -17.42578125 26.51171875 C-17.37888695 23.92315353 -17.33063955 21.33461257 -17.28125 18.74609375 C-17.27254883 16.79316406 -17.27254883 16.79316406 -17.26367188 14.80078125 C-17.23466797 13.55039063 -17.20566406 12.3 -17.17578125 11.01171875 C-17.1600708 9.85961914 -17.14436035 8.70751953 -17.12817383 7.52050781 C-16.46875 4.49609375 -16.46875 4.49609375 -14.64135742 2.11987305 C-9.83134212 -0.34195164 -5.32910514 -0.05573845 0 0 Z M-1.46875 15.49609375 C-1.71816083 23.9173175 -1.71816083 23.9173175 -1.94677734 32.33911133 C-1.9823877 33.38736084 -2.01799805 34.43561035 -2.0546875 35.515625 C-2.10181885 37.12594604 -2.10181885 37.12594604 -2.14990234 38.76879883 C-2.46875 41.49609375 -2.46875 41.49609375 -4.46875 44.49609375 C-7.21830591 45.52275197 -9.91134303 46.41313001 -12.71875 47.24609375 C-20.141283 49.54761405 -26.70553939 52.43513699 -33.453125 56.2734375 C-37.26030736 57.81702309 -38.61000063 57.96838466 -42.46875 56.49609375 C-45.50724851 54.03766538 -48.16291178 51.27198575 -50.84375 48.43359375 C-51.57980469 47.67498047 -52.31585938 46.91636719 -53.07421875 46.13476562 C-54.88421705 44.26600115 -56.68150293 42.38658563 -58.46875 40.49609375 C-62.03639285 42.00985456 -64.30581287 44.10122504 -67.015625 46.84765625 C-67.85996094 47.6984375 -68.70429688 48.54921875 -69.57421875 49.42578125 C-70.44691406 50.31523437 -71.31960938 51.2046875 -72.21875 52.12109375 C-73.10691406 53.01828125 -73.99507813 53.91546875 -74.91015625 54.83984375 C-77.10091969 57.05416379 -79.28687763 59.2730181 -81.46875 61.49609375 C-80.12571985 64.51883541 -78.66744811 66.496705 -76.24609375 68.73828125 C-75.62541016 69.32996094 -75.00472656 69.92164063 -74.36523438 70.53125 C-73.06105358 71.75611371 -71.75114472 72.97490734 -70.43554688 74.1875 C-67.70023581 76.81180468 -65.74006525 78.84351851 -64.2734375 82.37109375 C-64.56467989 87.03097203 -66.51950308 90.52559411 -68.65625 94.62109375 C-71.89645857 101.08905335 -74.65519325 107.2701142 -76.6171875 114.24609375 C-77.59123992 116.81973684 -78.28629893 117.8281591 -80.46875 119.49609375 C-83.19604492 119.9284668 -83.19604492 119.9284668 -86.44921875 120.0078125 C-87.49746826 120.04092529 -88.54571777 120.07403809 -89.62573242 120.1081543 C-91.62083862 120.14549683 -91.62083862 120.14549683 -93.65625 120.18359375 C-97.884375 120.28671875 -102.1125 120.38984375 -106.46875 120.49609375 C-106.46875 131.05609375 -106.46875 141.61609375 -106.46875 152.49609375 C-97.71839481 152.62694538 -97.71839481 152.62694538 -88.9675293 152.70385742 C-87.87867432 152.7319751 -86.78981934 152.76009277 -85.66796875 152.7890625 C-83.99480591 152.81262817 -83.99480591 152.81262817 -82.2878418 152.83666992 C-79.46875 153.49609375 -79.46875 153.49609375 -77.66845703 155.80371094 C-76.70884412 157.95727447 -75.79985659 160.04098009 -75.07421875 162.28125 C-74.84355713 162.9712207 -74.61289551 163.66119141 -74.37524414 164.37207031 C-74.13797607 165.09362305 -73.90070801 165.81517578 -73.65625 166.55859375 C-71.4565436 173.09092738 -68.89243695 178.98085348 -65.47265625 184.98046875 C-64.25146488 188.04057475 -64.38187543 189.41077239 -65.46875 192.49609375 C-66.78125 194.41796875 -66.78125 194.41796875 -68.46875 196.24609375 C-69.39880859 197.25929688 -69.39880859 197.25929688 -70.34765625 198.29296875 C-73.99838986 202.08489095 -77.70864263 205.81272326 -81.46875 209.49609375 C-79.95498919 213.0637366 -77.86361871 215.33315662 -75.1171875 218.04296875 C-74.26640625 218.88730469 -73.415625 219.73164063 -72.5390625 220.6015625 C-71.64960938 221.47425781 -70.76015625 222.34695313 -69.84375 223.24609375 C-68.9465625 224.13425781 -68.049375 225.02242187 -67.125 225.9375 C-64.91067996 228.12826344 -62.69182565 230.31422138 -60.46875 232.49609375 C-56.16794311 228.89503681 -52.07773903 225.2026626 -48.15625 221.18359375 C-42.76761013 215.66291982 -42.76761013 215.66291982 -38.9140625 215.16796875 C-34.13834098 215.62279937 -30.57608114 217.58161775 -26.34375 219.74609375 C-19.84856641 222.96770481 -13.61915163 225.70117156 -6.62109375 227.64453125 C-4.46875 228.49609375 -4.46875 228.49609375 -2.46875 231.49609375 C-2.14990234 234.1315918 -2.14990234 234.1315918 -2.0546875 237.2578125 C-2.01907715 238.26545654 -1.9834668 239.27310059 -1.94677734 240.3112793 C-1.91277832 241.58914307 -1.8787793 242.86700684 -1.84375 244.18359375 C-1.72 248.24671875 -1.59625 252.30984375 -1.46875 256.49609375 C9.09125 256.49609375 19.65125 256.49609375 30.53125 256.49609375 C30.74113837 248.07492806 30.74113837 248.07492806 30.91918945 239.65307617 C30.96885864 238.0807019 30.96885864 238.0807019 31.01953125 236.4765625 C31.04571533 235.40301514 31.07189941 234.32946777 31.09887695 233.22338867 C31.53125 230.49609375 31.53125 230.49609375 32.82299805 228.70947266 C34.67044597 227.39722224 36.20473013 226.74275482 38.375 226.1015625 C39.12168945 225.87098145 39.86837891 225.64040039 40.63769531 225.40283203 C41.42756836 225.1654834 42.21744141 224.92813477 43.03125 224.68359375 C49.57291623 222.63655061 55.35427788 220.30494853 61.171875 216.59765625 C64.1880547 215.1894399 66.23673433 215.11056532 69.53125 215.49609375 C71.515625 216.67578125 71.515625 216.67578125 73.28125 218.37109375 C74.27898437 219.31275391 74.27898437 219.31275391 75.296875 220.2734375 C76.03421875 221.00691406 76.7715625 221.74039063 77.53125 222.49609375 C78.43359375 223.38425781 79.3359375 224.27242187 80.265625 225.1875 C82.70367624 227.60833337 85.12411682 230.04456672 87.53125 232.49609375 C92.96858055 227.96617579 97.99583931 223.15315159 102.96875 218.12109375 C104.06606445 217.01701172 104.06606445 217.01701172 105.18554688 215.890625 C106.96977723 214.09473301 108.75161124 212.2965339 110.53125 210.49609375 C106.93019306 206.19528686 103.23781885 202.10508278 99.21875 198.18359375 C93.67143209 192.76894712 93.67143209 192.76894712 93.23828125 188.8359375 C93.60417439 184.66475576 95.23012062 181.65185659 97.21875 178.05859375 C100.80243506 171.30570113 103.34109122 164.63022755 105.5234375 157.3125 C106.53125 154.49609375 106.53125 154.49609375 108.53125 153.49609375 C110.48899069 153.34230523 112.45142352 153.24637912 114.4140625 153.1796875 C115.46480957 153.14157959 116.51555664 153.10347168 117.59814453 153.06420898 C118.93731934 153.02110596 120.27649414 152.97800293 121.65625 152.93359375 C128.029375 152.71703125 128.029375 152.71703125 134.53125 152.49609375 C134.53125 141.93609375 134.53125 131.37609375 134.53125 120.49609375 C126.48423748 120.32581505 126.48423748 120.32581505 118.43652344 120.19824219 C117.43137695 120.16762695 116.42623047 120.13701172 115.390625 120.10546875 C113.85100098 120.07404785 113.85100098 120.07404785 112.28027344 120.04199219 C108.84670766 119.36015799 107.68073721 118.2101702 105.53125 115.49609375 C104.29296875 112.31640625 104.29296875 112.31640625 103.21875 108.62109375 C101.15313065 101.81635581 98.32082045 95.83371702 94.88671875 89.6171875 C93.40896816 86.21452835 93.04097709 84.16050466 93.53125 80.49609375 C94.7109375 78.51171875 94.7109375 78.51171875 96.40625 76.74609375 C97.03402344 76.0809375 97.66179687 75.41578125 98.30859375 74.73046875 C99.04207031 73.993125 99.77554688 73.25578125 100.53125 72.49609375 C101.41941406 71.59375 102.30757812 70.69140625 103.22265625 69.76171875 C105.64348962 67.32366751 108.07972297 64.90322693 110.53125 62.49609375 C106.14682474 57.24434449 101.52282907 52.36386902 96.65625 47.55859375 C95.96789062 46.87474609 95.27953125 46.19089844 94.5703125 45.48632812 C92.89291489 43.82057911 91.21321209 42.15723155 89.53125 40.49609375 C86.50850834 41.8391239 84.53063875 43.29739564 82.2890625 45.71875 C81.40154297 46.64977539 81.40154297 46.64977539 80.49609375 47.59960938 C79.27123004 48.90379017 78.05243641 50.21369903 76.83984375 51.52929688 C74.17761618 54.30413493 72.19328749 56.23566311 68.58203125 57.65625 C64.32189541 57.43260651 61.32484566 55.84015216 57.59375 53.87109375 C50.66617275 50.39096112 43.8230794 47.7521523 36.41015625 45.50390625 C33.53125 44.49609375 33.53125 44.49609375 31.53125 42.49609375 C31.21240234 39.79052734 31.21240234 39.79052734 31.1171875 36.39453125 C31.06377197 34.75750244 31.06377197 34.75750244 31.00927734 33.08740234 C30.97527832 31.69602051 30.9412793 30.30463867 30.90625 28.87109375 C30.7825 24.45734375 30.65875 20.04359375 30.53125 15.49609375 C19.97125 15.49609375 9.41125 15.49609375 -1.46875 15.49609375 Z " fill="#fff" transform="translate(344.46875,222.50390625)"/>
<path d="M0 0 C12.72401253 10.32002606 21.51537392 23.48373526 24.43701172 39.81494141 C24.72459498 43.07056212 24.77145088 46.29788614 24.74951172 49.56494141 C24.74387207 50.44601563 24.73823242 51.32708984 24.73242188 52.23486328 C24.42483882 68.81389429 18.05497825 82.94123348 6.43701172 94.81494141 C-8.62526369 107.71917151 -24.64963521 112.07639843 -44.17871094 111.02636719 C-59.77942271 109.64297415 -73.32784924 101.3551848 -83.56298828 89.81494141 C-94.56180438 76.18475282 -98.77812396 60.22609978 -97.56298828 42.81494141 C-95.36828998 27.38794702 -88.54757016 12.25179391 -75.95458984 2.57958984 C-53.73787523 -13.38278679 -22.96868019 -17.41486624 0 0 Z M-70.97314453 18.75244141 C-79.43298849 29.7273741 -84.00709189 41.87533022 -82.56298828 55.81494141 C-80.33840047 68.84731832 -73.87137913 79.55955407 -63.56298828 87.81494141 C-51.69620698 95.11641321 -39.39270784 97.65340839 -25.61767578 95.31494141 C-13.97507934 92.10319066 -3.55703898 85.10018303 2.81201172 74.75244141 C9.19101702 63.23135704 11.37900494 51.469422 8.75341797 38.41650391 C6.70736211 31.81139411 3.75686097 26.20465987 -0.56298828 20.81494141 C-1.11470703 20.12658203 -1.66642578 19.43822266 -2.23486328 18.72900391 C-9.83178219 10.25551743 -21.75185638 4.55722085 -33.06689453 3.60400391 C-47.21959873 3.0805753 -61.28730136 8.14300928 -70.97314453 18.75244141 Z " fill="#fff" transform="translate(189.56298828125,103.18505859375)"/>
<path d="M0 0 C13.63991224 10.90849405 22.77363957 23.86448591 25.71875 41.421875 C27.71739709 59.74280665 23.01123827 76.11430317 11.875 90.8125 C0.59196197 103.81960157 -15.03170362 110.82391287 -32.015625 112.25390625 C-48.72399115 112.89178722 -64.56487748 107.14571614 -77 96 C-89.0867325 84.62664969 -95.86458298 69.95085917 -96.39990234 53.40380859 C-96.52733741 43.98519862 -95.74671336 35.76287236 -92 27 C-91.649375 26.13503906 -91.29875 25.27007812 -90.9375 24.37890625 C-84.31316959 9.63517087 -71.84878426 -1.0151465 -57 -7 C-38.55479782 -13.89956281 -16.13810029 -11.16719547 0 0 Z M-55 9 C-55.84949219 9.4125 -56.69898438 9.825 -57.57421875 10.25 C-69.62827348 16.74774466 -76.32143996 27.12229486 -80.63671875 39.8828125 C-82.8000416 52.49056502 -81.0338639 64.85133341 -74.25 75.75 C-65.90484839 87.2584011 -55.15679132 94.58347801 -41 97 C-27.06038881 98.4441036 -14.9124327 93.8700002 -3.9375 85.41015625 C5.17513592 77.09080784 9.96619906 65.52261707 11.27734375 53.4453125 C11.76459342 41.24458075 7.44403061 29.70557068 -0.19140625 20.30078125 C-8.24756257 11.64978835 -18.98242344 5.34814275 -31.015625 4.6640625 C-39.73884907 4.47822301 -47.06437652 5.00094565 -55 9 Z " fill="#fff" transform="translate(394,308)"/>
<path d="M0 0 C7.5904606 5.29600578 12.31681168 11.77080779 14.390625 20.828125 C16.03140102 32.39095222 12.14091265 41.24175603 5.8046875 50.74609375 C28.06048364 82.82062348 57.42502155 105.60059244 94.0546875 118.984375 C104.91646776 122.96890148 104.91646776 122.96890148 107.8046875 125.49609375 C109.3372493 128.94435781 108.84311139 131.17651163 107.8046875 134.74609375 C105.6796875 136.74609375 105.6796875 136.74609375 102.8046875 137.74609375 C73.89777502 135.59660539 44.78572598 114.3974151 23.8046875 95.74609375 C22.81339844 94.87726563 21.82210937 94.0084375 20.80078125 93.11328125 C12.51471958 85.7403774 5.61833531 77.69639294 -1.0703125 68.87109375 C-1.94042969 67.73414063 -1.94042969 67.73414063 -2.828125 66.57421875 C-7.05899235 61.01873406 -7.05899235 61.01873406 -8.1953125 58.74609375 C-9.35546875 58.78089844 -9.35546875 58.78089844 -10.5390625 58.81640625 C-20.8240223 58.994611 -30.32241137 57.89024072 -38.3359375 50.87109375 C-44.87266483 44.09226541 -48.26477855 36.69093237 -48.6953125 27.24609375 C-48.3032421 18.38024366 -45.26247967 10.87275525 -39.1171875 4.46484375 C-28.058802 -5.4247693 -13.05505913 -7.45671527 0 0 Z M-27.734375 15.11328125 C-31.62639552 19.50602956 -33.25560789 22.84678907 -33.0703125 28.68359375 C-32.1760329 34.14178304 -29.65304635 37.52027211 -25.4453125 41.05859375 C-20.91201797 43.41241975 -17.0581603 44.63097398 -12.046875 43.08203125 C-6.97235176 40.76171021 -3.47248735 38.06293589 -1.41015625 32.70703125 C-0.0098349 27.82686941 0.03548687 24.18244716 -2.09375 19.53515625 C-4.8923087 14.98997935 -8.54988597 12.68297445 -13.5703125 11.24609375 C-19.04554886 10.28746651 -23.54325893 11.3902086 -27.734375 15.11328125 Z " fill="#fff" transform="translate(102.1953125,305.25390625)"/>
<path d="M0 0 C19.72552847 8.28987257 37.03054884 20.0869961 52.95458984 34.24169922 C53.73576172 34.92232422 53.73576172 34.92232422 54.53271484 35.61669922 C61.77616016 41.92781989 68.08817109 48.60717865 73.95458984 56.24169922 C74.86808316 57.41271637 75.78217135 58.58326966 76.69677734 59.75341797 C83.73308418 68.7986879 83.73308418 68.7986879 84.95458984 71.24169922 C85.72802734 71.21849609 86.50146484 71.19529297 87.29833984 71.17138672 C97.58329965 70.99318197 107.08168872 72.09755225 115.09521484 79.11669922 C121.63194217 85.89552756 125.02405589 93.2968606 125.45458984 102.74169922 C125.06251944 111.60754931 122.02175702 119.11503772 115.87646484 125.52294922 C108.7535816 131.8930074 101.15077052 134.74534506 91.56396484 134.48388672 C82.87920349 133.67781605 76.07366877 130.4894777 69.95458984 124.24169922 C63.50117589 115.75691085 61.18404847 107.97831725 62.27099609 97.41748047 C63.70991909 90.73265535 67.19265641 84.88459936 70.95458984 79.24169922 C48.67338382 47.38404361 19.09111528 23.56070862 -17.80322266 10.74951172 C-27.93691466 7.21163278 -27.93691466 7.21163278 -31.04541016 4.49169922 C-32.56252122 1.07819933 -32.01234805 -1.21286183 -31.04541016 -4.75830078 C-24.95418102 -12.55507407 -7.17707473 -2.85655298 0 0 Z M80.57958984 92.42919922 C78.02086921 96.85775415 76.49227746 101.27120928 77.29443359 106.42529297 C78.90843525 111.47740468 81.41160883 114.38130377 85.95458984 117.24169922 C90.51181885 119.08146945 94.46354927 119.74451963 99.20458984 118.24169922 C104.17461125 116.00419954 106.62374643 112.54042875 109.32958984 107.86669922 C110.5707307 102.6539076 109.66943788 98.61844359 107.26708984 93.99169922 C103.8085593 89.87885209 100.3880831 87.29298906 95.07958984 86.24169922 C89.17218692 85.76639094 84.79990244 88.5420692 80.57958984 92.42919922 Z " fill="#fff" transform="translate(333.04541015625,76.75830078125)"/>
</svg>
