<svg width="63" height="63" viewBox="0 0 63 63" fill="none" xmlns="http://www.w3.org/2000/svg">
<path d="M11 40.4C11 34.4612 11 31.4897 12.8459 29.6459C14.6897 27.8 17.6612 27.8 23.6 27.8H40.4C46.3388 27.8 49.3103 27.8 51.1541 29.6459C53 31.4897 53 34.4612 53 40.4C53 46.3389 53 49.3104 51.1541 51.1542C49.3103 53.0001 46.3388 53.0001 40.4 53.0001H23.6C17.6612 53.0001 14.6897 53.0001 12.8459 51.1542C11 49.3104 11 46.3389 11 40.4Z" stroke="#FF5757" stroke-width="3.5"/>
<path d="M19.3999 27.8V23.6C19.3999 20.2583 20.7274 17.0534 23.0904 14.6905C25.4533 12.3275 28.6582 11 31.9999 11C35.3416 11 38.5465 12.3275 40.9095 14.6905C43.2724 17.0534 44.5999 20.2583 44.5999 23.6V27.8" stroke="#FF5757" stroke-width="3.5" stroke-linecap="round"/>
</svg>
