<svg width="48" height="48" viewBox="0 0 48 48" fill="none" xmlns="http://www.w3.org/2000/svg">
<path d="M4 36C4 32.92 4 31.38 4.694 30.248C5.082 29.614 5.614 29.082 6.248 28.694C7.378 28 8.92 28 12 28C15.08 28 16.62 28 17.752 28.694C18.386 29.082 18.918 29.614 19.306 30.248C20 31.378 20 32.92 20 36C20 39.08 20 40.62 19.306 41.754C18.918 42.386 18.386 42.918 17.752 43.306C16.622 44 15.08 44 12 44C8.92 44 7.38 44 6.248 43.306C5.6147 42.9187 5.08216 42.3868 4.694 41.754C4 40.62 4 39.08 4 36ZM28 36C28 32.92 28 31.38 28.694 30.248C29.082 29.614 29.614 29.082 30.248 28.694C31.378 28 32.92 28 36 28C39.08 28 40.62 28 41.754 28.694C42.386 29.082 42.918 29.614 43.306 30.248C44 31.378 44 32.92 44 36C44 39.08 44 40.62 43.306 41.754C42.9178 42.3861 42.3861 42.9178 41.754 43.306C40.62 44 39.08 44 36 44C32.92 44 31.38 44 30.248 43.306C29.6147 42.9187 29.0822 42.3868 28.694 41.754C28 40.62 28 39.08 28 36ZM4 12C4 8.92 4 7.38 4.694 6.248C5.082 5.614 5.614 5.082 6.248 4.694C7.378 4 8.92 4 12 4C15.08 4 16.62 4 17.752 4.694C18.386 5.082 18.918 5.614 19.306 6.248C20 7.378 20 8.92 20 12C20 15.08 20 16.62 19.306 17.752C18.918 18.386 18.386 18.918 17.752 19.306C16.622 20 15.08 20 12 20C8.92 20 7.38 20 6.248 19.306C5.61447 18.9181 5.08191 18.3855 4.694 17.752C4 16.622 4 15.08 4 12ZM28 12C28 8.92 28 7.38 28.694 6.248C29.082 5.614 29.614 5.082 30.248 4.694C31.378 4 32.92 4 36 4C39.08 4 40.62 4 41.754 4.694C42.386 5.082 42.918 5.614 43.306 6.248C44 7.378 44 8.92 44 12C44 15.08 44 16.62 43.306 17.752C42.918 18.386 42.386 18.918 41.754 19.306C40.62 20 39.08 20 36 20C32.92 20 31.38 20 30.248 19.306C29.6145 18.9181 29.0819 18.3855 28.694 17.752C28 16.622 28 15.08 28 12Z" stroke="#0F172A" stroke-width="3" stroke-linecap="round" stroke-linejoin="round"/>
</svg>
