<svg width="63" height="63" viewBox="0 0 63 63" fill="none" xmlns="http://www.w3.org/2000/svg">
<path d="M36.5732 25.2794C36.3014 24.5092 35.7972 23.8422 35.1303 23.3705C34.4634 22.8988 33.6666 22.6457 32.8498 22.646H29.7932C28.9212 22.6414 28.0784 22.9604 27.428 23.5411C26.7775 24.1219 26.3654 24.9233 26.2715 25.7902C26.1776 26.6572 26.4086 27.5282 26.9196 28.2347C27.4307 28.9413 28.1856 29.4333 29.0384 29.6155L33.6926 30.631C34.6443 30.8393 35.4854 31.392 36.0544 32.1828C36.6233 32.9736 36.88 33.9468 36.775 34.9154C36.6701 35.8839 36.2109 36.7795 35.4857 37.4301C34.7606 38.0807 33.8206 38.4403 32.8464 38.44H30.2163C28.4968 38.44 27.0345 37.3433 26.4929 35.8099M31.533 22.646V18.6958M31.533 42.3902V38.4434M15.0688 53.0052V44.543H23.5311" stroke="white" stroke-width="4" stroke-linecap="round" stroke-linejoin="round"/>
<path d="M53.6228 26.9617C54.5214 31.7521 53.804 36.7052 51.5831 41.0438C49.3622 45.3823 45.7636 48.8606 41.3521 50.9327C36.9406 53.0048 31.9659 53.5535 27.2089 52.4926C22.4518 51.4317 18.1817 48.8212 15.0687 45.071M10.3772 35.0584C9.4786 30.2681 10.196 25.3149 12.4169 20.9764C14.6378 16.6379 18.2364 13.1596 22.6479 11.0875C27.0594 9.01533 32.0341 8.46667 36.7911 9.52758C41.5482 10.5885 45.8183 13.1989 48.9313 16.9492" stroke="white" stroke-width="4" stroke-linecap="round" stroke-linejoin="round"/>
<path d="M48.9315 9.01501V17.4773H40.4692" stroke="white" stroke-width="4" stroke-linecap="round" stroke-linejoin="round"/>
</svg>
