<svg width="63" height="63" viewBox="0 0 63 63" fill="none" xmlns="http://www.w3.org/2000/svg">
<path d="M58.9223 32.7305L51.0473 13.043C50.9 12.6789 50.6472 12.3672 50.3213 12.1479C49.9955 11.9286 49.6115 11.8118 49.2188 11.8125C49.0755 11.8147 48.9328 11.8321 48.7931 11.8642L33.4688 15.2578V9.84375C33.4688 9.32161 33.2614 8.82085 32.8922 8.45163C32.5229 8.08242 32.0222 7.875 31.5 7.875C30.9779 7.875 30.4771 8.08242 30.1079 8.45163C29.7387 8.82085 29.5313 9.32161 29.5313 9.84375V16.1388L13.3556 19.7392C13.0437 19.8072 12.7531 19.9501 12.5087 20.1554C12.2643 20.3608 12.0736 20.6225 11.9528 20.918L4.07782 40.6055C3.98349 40.8401 3.93584 41.0909 3.93754 41.3438C3.93754 47.0802 9.97668 49.2188 13.7813 49.2188C17.5859 49.2188 23.625 47.0802 23.625 41.3438C23.6267 41.0909 23.5791 40.8401 23.4848 40.6055L16.4686 23.0762L29.5313 20.1797V51.1875H25.5938C25.0716 51.1875 24.5709 51.3949 24.2017 51.7641C23.8325 52.1333 23.625 52.6341 23.625 53.1562C23.625 53.6784 23.8325 54.1792 24.2017 54.5484C24.5709 54.9176 25.0716 55.125 25.5938 55.125H37.4063C37.9284 55.125 38.4292 54.9176 38.7984 54.5484C39.1676 54.1792 39.375 53.6784 39.375 53.1562C39.375 52.6341 39.1676 52.1333 38.7984 51.7641C38.4292 51.3949 37.9284 51.1875 37.4063 51.1875H33.4688V19.2987L46.0196 16.5129L39.5153 32.7305C39.421 32.9651 39.3733 33.2159 39.375 33.4688C39.375 39.2052 45.4142 41.3438 49.2188 41.3438C53.0234 41.3438 59.0625 39.2052 59.0625 33.4688C59.0642 33.2159 59.0166 32.9651 58.9223 32.7305ZM19.5473 41.3438H8.02762L13.7813 26.9571L19.5473 41.3438ZM43.4774 33.4688L49.2188 19.0821L54.9725 33.4688H43.4774Z" fill="#D53838"/>
</svg>
