<?xml version="1.0" encoding="UTF-8"?>
<svg version="1.1" xmlns="http://www.w3.org/2000/svg" width="512" height="512">
<path d="M0 0 C1.19414487 -0.00538554 2.38828974 -0.01077108 3.61862081 -0.01631981 C6.92065678 -0.02812779 10.22218636 -0.02653925 13.52420199 -0.019153 C17.09003123 -0.0144164 20.65580672 -0.02693537 24.22161865 -0.03717041 C31.20177152 -0.05435291 38.18183435 -0.05519974 45.16200287 -0.04995751 C50.83494436 -0.04591431 56.50785926 -0.04736113 62.18079948 -0.05270576 C62.9885242 -0.05345419 63.79624891 -0.05420261 64.62845014 -0.05497371 C66.26936902 -0.0565052 67.91028789 -0.05804354 69.55120676 -0.05958868 C84.93314379 -0.0733112 100.31502994 -0.0678773 115.69696581 -0.05640347 C129.77014604 -0.04646665 143.84319488 -0.05941992 157.91635484 -0.08333766 C172.36947772 -0.10771604 186.82253936 -0.11733993 201.27568239 -0.11068493 C209.38899746 -0.1071905 217.50221141 -0.10943973 225.61551094 -0.12693596 C232.52050158 -0.14164199 239.42531987 -0.14231419 246.33030707 -0.12486505 C249.85314556 -0.11634024 253.37567595 -0.11424129 256.89849854 -0.1295166 C260.71691473 -0.1458688 264.53485316 -0.13124542 268.35327148 -0.11352539 C269.4671765 -0.1231304 270.58108152 -0.1327354 271.72874123 -0.14263147 C281.35925221 -0.05040041 285.2640081 3.23105423 291.97911072 9.97898865 C292.53112152 10.52588852 293.08313232 11.07278839 293.65187073 11.63626099 C295.46052856 13.43110927 297.26175342 15.2331975 299.06236267 17.03611755 C300.32433598 18.2942001 301.5865313 19.55205997 302.84893799 20.80970764 C305.48737744 23.44070413 308.12193252 26.07551797 310.75401306 28.71287537 C314.12143413 32.08609812 317.50010127 35.44780064 320.88199139 38.80650902 C323.48922001 41.39898489 326.08946648 43.99837703 328.68776894 46.5997963 C329.9305287 47.84204395 331.17564281 49.08194105 332.42317772 50.31939316 C334.16785365 52.05168809 335.90266392 53.79331641 337.63536072 55.5375824 C338.14814072 56.04271866 338.66092072 56.54785492 339.1892395 57.06829834 C343.34824364 61.28871065 345.90192256 64.90406486 346.41093445 70.88920593 C346.37679443 72.17808716 346.34265442 73.46696838 346.30747986 74.79490662 C346.29357712 75.51123764 346.27967438 76.22756866 346.26535034 76.96560669 C346.23509254 78.51256376 346.19879352 80.05941221 346.15705109 81.60610199 C346.0758981 84.907998 346.0507203 88.20959331 346.02222061 91.51229477 C345.96892449 97.64955148 345.89455201 103.78431382 345.71910095 109.91941833 C345.59884335 114.20023374 345.55293405 118.47645573 345.55461884 122.75888824 C345.541678 124.38106703 345.50188656 126.00328041 345.43369293 127.62407684 C344.90712729 136.39179069 344.90712729 136.39179069 348.56985474 144.02050781 C352.16564566 147.03029346 356.11807521 149.23147048 360.27323151 151.36933136 C392.52961932 169.22249118 415.07161236 208.78712789 425.11460876 243.01097107 C432.52369364 269.23690016 434.58306037 299.67093611 428.11314392 326.38768005 C427.91446716 327.21590271 427.71579041 328.04412537 427.51109314 328.89744568 C422.08127152 350.81196171 412.68500084 370.11768265 401.11314392 389.38768005 C401.50629414 389.7771431 401.89944435 390.16660614 402.30450821 390.56787109 C411.88941019 400.06426683 421.46296584 409.57197271 431.02455521 419.09184265 C435.6488974 423.69532981 440.27687826 428.29502989 444.91343689 432.88621521 C449.3896454 437.31889347 453.85594986 441.76133321 458.31562042 446.21064758 C460.01692486 447.90457369 461.72174034 449.59498114 463.43013763 451.28175354 C465.82643802 453.64892647 468.20983394 456.02841825 470.59068298 458.41111755 C471.29630875 459.10236221 472.00193451 459.79360687 472.72894287 460.50579834 C477.81409275 465.63374281 482.59559644 471.43849431 482.64439392 479.04393005 C482.64955017 479.83928162 482.65470642 480.63463318 482.66001892 481.4540863 C482.64455017 482.25717224 482.62908142 483.06025818 482.61314392 483.88768005 C482.62861267 484.69076599 482.64408142 485.49385193 482.66001892 486.3212738 C482.61550971 493.18681918 480.58805448 498.11136989 476.47251892 503.55955505 C475.94142517 504.0803363 475.41033142 504.60111755 474.86314392 505.13768005 C474.34236267 505.6687738 473.82158142 506.19986755 473.28501892 506.74705505 C466.96662872 511.51993974 461.47804765 513.03917098 453.61314392 512.88768005 C452.81005798 512.9031488 452.00697205 512.91861755 451.17955017 512.93455505 C449.98652283 512.92682068 449.98652283 512.92682068 448.76939392 512.91893005 C447.71461853 512.91216248 447.71461853 512.91216248 446.63853455 512.90525818 C438.74389373 511.28725368 433.5810267 506.42293418 428.13658142 500.86521912 C427.38438828 500.11361008 426.63219513 499.36200104 425.85720825 498.58761597 C423.39124395 496.11888111 420.93972529 493.63631639 418.48814392 491.15330505 C416.77409498 489.43179013 415.05915653 487.71116044 413.34336853 485.99137878 C408.84318075 481.4759631 404.3551383 476.94866233 399.86955261 472.41874695 C395.284873 467.79305384 390.68876281 463.17874901 386.09361267 458.5634613 C377.08892608 449.51595393 368.09664005 440.45622583 359.11314392 431.38768005 C357.6747584 432.17773667 356.23746977 432.96979051 354.80064392 433.76268005 C354.00013611 434.20353943 353.1996283 434.6443988 352.37486267 435.09861755 C350.57786449 436.12281341 348.83413684 437.24035144 347.11314392 438.38768005 C346.66388495 440.70304372 346.66388495 440.70304372 346.74424744 443.42893982 C346.73736404 444.48086014 346.73048065 445.53278046 346.72338867 446.61657715 C346.73262611 448.33051918 346.73262611 448.33051918 346.74205017 450.0790863 C346.72465563 452.49249909 346.70707139 454.90591052 346.6893158 457.31932068 C346.6792712 461.12867369 346.67563841 464.93793354 346.67735291 468.74729919 C346.67376726 472.42067661 346.64635022 476.0933371 346.61705017 479.7665863 C346.6252327 480.89504471 346.63341522 482.02350311 346.6418457 483.18615723 C346.56195331 491.73608615 344.6378272 497.52639975 339.98814392 504.63768005 C332.01173051 512.26729288 323.76557385 513.11419774 313.09468079 513.01586914 C311.69343524 513.02092213 310.29219617 513.02815675 308.89097178 513.03736728 C305.06365669 513.05620961 301.23698489 513.04410186 297.40968657 513.02664435 C293.27330449 513.0132304 289.13701405 513.0287217 285.00064087 513.04046631 C276.9072343 513.05881634 268.81406964 513.05034868 260.72067069 513.03237808 C254.14248957 513.01833716 247.56437401 513.01446249 240.98617935 513.01782036 C240.04899657 513.0182978 239.1118138 513.01877524 238.14623154 513.01926715 C236.24222971 513.02029351 234.3382279 513.02134887 232.43422611 513.02243292 C215.61002799 513.0309944 198.78594648 513.01434186 181.96177673 512.98460388 C165.64239099 512.95575862 149.32317317 512.94868802 133.00376892 512.96409607 C115.22292686 512.980861 97.44216447 512.98489016 79.66132033 512.96738571 C77.76503921 512.96554136 75.86875809 512.96370663 73.97247696 512.96188164 C72.57304025 512.9605135 72.57304025 512.9605135 71.14533209 512.95911773 C64.57512425 512.95351487 58.00495534 512.9568171 51.4347496 512.96342659 C43.42792148 512.97116173 35.42125859 512.96440041 27.41446374 512.93925155 C23.33038329 512.92676175 19.24656003 512.92060368 15.16246986 512.93179321 C11.42193716 512.94184794 7.68191693 512.93335027 3.9414465 512.91021203 C1.9515904 512.90262569 -0.03831078 512.91459358 -2.02814066 512.92731577 C-10.26006648 512.85093305 -15.44390002 511.7611812 -22.09388733 506.7118988 C-22.62369202 506.17178162 -23.1534967 505.63166443 -23.69935608 505.07518005 C-24.24205139 504.54279724 -24.7847467 504.01041443 -25.34388733 503.4618988 C-29.41777341 497.98535827 -30.32791668 492.81333583 -30.26717281 486.11482334 C-30.27183273 485.30547733 -30.27649265 484.49613132 -30.28129378 483.66225967 C-30.29324205 480.9509843 -30.28384902 478.2402102 -30.27453613 475.52893066 C-30.27870911 473.56518274 -30.28418643 471.60143723 -30.29085594 469.63769621 C-30.30533382 464.24175946 -30.30105848 458.84597515 -30.29368913 453.45002997 C-30.28896559 447.63057172 -30.30146008 441.81114683 -30.31170654 435.99169922 C-30.32891564 424.5912279 -30.3297302 413.19081165 -30.32449364 401.79033072 C-30.32045477 392.52568554 -30.32189213 383.26105667 -30.3272419 373.99641228 C-30.32799032 372.67859854 -30.32873874 371.3607848 -30.32950984 370.00303731 C-30.33065504 367.99715653 -30.33180491 365.99127575 -30.33296909 363.98539498 C-30.34367407 345.33665456 -30.34839932 326.68792016 -30.34049892 308.03917789 C-30.34020175 307.33620027 -30.33990458 306.63322265 -30.3395984 305.90894267 C-30.33714946 300.20025826 -30.33453788 294.49157391 -30.33191427 288.78288958 C-30.32181122 266.51383602 -30.33016832 244.24485786 -30.35340881 221.97581482 C-30.37947819 196.95566022 -30.39233027 171.93555101 -30.38522106 146.91538233 C-30.38166495 133.66783967 -30.38398792 120.4203563 -30.40147209 107.17282295 C-30.41617058 95.89593877 -30.41686025 84.61916013 -30.39940118 73.34227807 C-30.39086961 67.58738998 -30.38879432 61.8326906 -30.40405273 56.07781219 C-30.41784535 50.81062851 -30.41320658 45.54379616 -30.3938135 40.27663308 C-30.3900365 38.37025334 -30.39302411 36.46384582 -30.40342515 34.55749071 C-30.41655637 31.96669571 -30.40504671 29.37712028 -30.38742733 26.78637791 C-30.39707784 26.04572652 -30.40672835 25.30507513 -30.41667131 24.54197976 C-30.31904601 17.55371528 -27.59004704 11.49510604 -22.57435608 6.57518005 C-22.04197327 6.03248474 -21.50959045 5.48978943 -20.96107483 4.9306488 C-14.29561167 -0.02765241 -8.03995003 -0.04346639 0 0 Z M-11.88685608 22.38768005 C-12.27895811 25.11929108 -12.42480807 27.44753403 -12.39022064 30.17762756 C-12.39603441 30.97120344 -12.40184817 31.76477931 -12.40783811 32.58240294 C-12.42250858 35.25819676 -12.40852038 37.93308338 -12.39479065 40.60887146 C-12.39939678 42.53988427 -12.40574776 44.47089359 -12.41369963 46.40189552 C-12.43045555 51.721167 -12.42211817 57.0401528 -12.40975475 62.35942554 C-12.40073215 68.09093003 -12.41466009 73.82238419 -12.42567444 79.55387878 C-12.44349413 90.78699904 -12.43960432 102.02001261 -12.42802387 113.25313711 C-12.41900338 122.37963839 -12.41775955 131.50610969 -12.42211914 140.63261414 C-12.42273207 141.92978634 -12.423345 143.22695855 -12.42397651 144.56343901 C-12.42525537 147.19832596 -12.42655222 149.8332129 -12.42786688 152.46809983 C-12.43895712 176.49069824 -12.42744117 200.51323891 -12.40649649 224.53582802 C-12.38751341 246.47540888 -12.38921189 268.41489688 -12.40834045 290.35447693 C-12.42974925 314.99186195 -12.43818405 339.62919082 -12.4258914 364.2665844 C-12.42461715 366.89197158 -12.42335967 369.51735877 -12.42211914 372.14274597 C-12.42150204 373.43460678 -12.42088494 374.72646758 -12.42024913 376.05747569 C-12.41679028 385.17677277 -12.4226361 394.29603699 -12.43203735 403.41532898 C-12.44323669 414.52332457 -12.44026084 425.63120705 -12.41891438 436.73918962 C-12.40837614 442.41052256 -12.40432929 448.08166666 -12.41751099 453.75299835 C-12.42938335 458.93929935 -12.42295784 464.12523553 -12.40160078 469.31150317 C-12.39711276 471.19299988 -12.39944988 473.07452708 -12.40910393 474.95600438 C-12.42117898 477.5036921 -12.40888459 480.05011227 -12.39022064 482.59773254 C-12.39958531 483.33691477 -12.40894997 484.07609699 -12.41859841 484.83767867 C-12.3699602 488.1346177 -12.08677397 490.09517456 -10.20854378 492.84326607 C-7.32969361 494.75831109 -5.68211129 494.88788213 -2.23648834 494.8882513 C-1.07798701 494.8980656 0.08051433 494.90787989 1.27412176 494.91799158 C2.5476458 494.90838657 3.82116984 494.89878157 5.13328552 494.8888855 C6.49920179 494.89277738 7.86511401 494.89841691 9.23101664 494.9056564 C12.98832133 494.92044564 16.74520841 494.91020956 20.50249982 494.89591968 C24.55300817 494.88483333 28.6034568 494.89674472 32.65396118 494.90576172 C40.59040764 494.91971219 48.52669525 494.91212472 56.46313417 494.89708614 C65.70064129 494.88024684 74.93810861 494.88343367 84.17562634 494.88718022 C100.65499378 494.89306211 117.13428487 494.87887434 133.6136322 494.85423279 C149.6133358 494.83031105 165.61293737 494.82322811 181.61265564 494.83372498 C199.02497407 494.84512809 216.43724527 494.84707175 233.84956312 494.83262688 C235.70542367 494.831101 237.56128422 494.82958064 239.41714478 494.82806587 C240.33032247 494.82730806 241.24350017 494.82655024 242.18434992 494.82576947 C248.6271185 494.82102195 255.06986602 494.82288139 261.51263428 494.82713127 C269.36159312 494.83205231 277.2104554 494.82609878 285.05939209 494.80623697 C289.06593904 494.79634899 293.0723388 494.791276 297.07889366 494.79912949 C300.7441266 494.80616706 304.40906204 494.79942719 308.07425565 494.78152586 C310.0335541 494.77554168 311.9928803 494.78432606 313.95216608 494.79357237 C315.11066741 494.78513243 316.26916875 494.77669248 317.46277618 494.76799679 C318.46458845 494.76696766 319.46640071 494.76593853 320.49857092 494.76487821 C323.55717463 494.32362081 324.91194779 493.53012728 327.11314392 491.38768005 C328.02349896 488.65661495 328.23530105 487.08874766 328.22666931 484.28343201 C328.22655602 483.05249565 328.22655602 483.05249565 328.22644043 481.79669189 C328.22127914 480.9153508 328.21611786 480.0340097 328.21080017 479.1259613 C328.20938522 478.2201683 328.20797028 477.31437531 328.20651245 476.38113403 C328.20091393 473.48744915 328.18836173 470.59384157 328.17564392 467.70018005 C328.17062873 465.73859263 328.16606585 463.77700399 328.16197205 461.81541443 C328.15094499 457.00613984 328.13368139 452.19692306 328.11314392 447.38768005 C327.48561218 447.60907654 326.85808044 447.83047302 326.21153259 448.05857849 C279.63734845 464.3652698 231.23024386 465.98092181 185.8558197 444.30955505 C145.74000224 424.68102052 114.44324043 390.9099661 99.35533142 348.62205505 C84.13558499 303.48346682 87.11794196 255.38302575 107.94908142 212.5634613 C128.18569505 172.34129568 163.70557766 142.87971451 206.11314392 128.38768005 C247.5724835 114.92861223 287.54936314 119.86641979 328.11314392 133.38768005 C328.11314392 114.90768005 328.11314392 96.42768005 328.11314392 77.38768005 C315.35469695 77.2175293 315.35469695 77.2175293 302.59580994 77.08982849 C300.97786173 77.06042131 299.35993853 77.02958891 297.74205017 76.99705505 C296.51560791 76.99536316 296.51560791 76.99536316 295.26438904 76.99363708 C287.94642026 76.81480429 281.98265567 74.74705638 276.30064392 70.07518005 C270.26069943 62.65467682 268.99796607 56.23973828 268.79673767 46.8056488 C268.77595657 45.99146988 268.75517548 45.17729095 268.73376465 44.33843994 C268.66864929 41.75076826 268.60956184 39.16299952 268.55064392 36.57518005 C268.5074225 34.8154046 268.46380707 33.05563877 268.41978455 31.29588318 C268.31300712 26.99324697 268.21163375 22.69051363 268.11314392 18.38768005 C233.02048551 18.29617342 197.9278512 18.22566622 162.83509864 18.18341874 C158.69438177 18.17841576 154.55366513 18.17323849 150.41294861 18.16795349 C149.17640796 18.16637963 149.17640796 18.16637963 147.91488668 18.16477397 C134.5577088 18.14735712 121.2005996 18.11581241 107.8434625 18.07906887 C94.14317712 18.04169501 80.44292779 18.01945174 66.74259353 18.01132607 C58.28513376 18.0058309 49.82786813 17.98845983 41.37046811 17.95601419 C35.57505274 17.93491014 29.77973808 17.92847064 23.98428705 17.93367454 C20.63784211 17.93624284 17.29201165 17.9300698 13.94557953 17.91085815 C10.32084146 17.89106267 6.69694541 17.8957035 3.07218933 17.90666199 C2.00993897 17.89501062 0.9476886 17.88335926 -0.14675117 17.87135482 C-1.60082322 17.88330111 -1.60082322 17.88330111 -3.08427048 17.89548874 C-3.92117409 17.89396986 -4.75807769 17.89245098 -5.62034202 17.89088607 C-8.87234835 18.6036887 -9.97155557 19.6705358 -11.88685608 22.38768005 Z M286.11314392 31.38768005 C286.05500308 34.97094506 286.01950035 38.55408843 285.98814392 42.13768005 C285.97138611 43.1534613 285.9546283 44.16924255 285.93736267 45.21580505 C285.93091736 46.19549255 285.92447205 47.17518005 285.91783142 48.18455505 C285.90735779 49.08528748 285.89688416 49.9860199 285.88609314 50.91404724 C286.13210212 53.59422245 286.64656976 55.141817 288.11314392 57.38768005 C291.46433911 59.62181018 292.53091942 59.62615767 296.43736267 59.58299255 C297.46539001 59.57654724 298.49341736 59.57010193 299.55259705 59.5634613 C300.62445251 59.54670349 301.69630798 59.52994568 302.80064392 59.51268005 C304.42582947 59.4991449 304.42582947 59.4991449 306.08384705 59.4853363 C308.76050102 59.46175345 311.43671189 59.42884132 314.11314392 59.38768005 C309.30504806 53.56139919 304.09509437 48.21544503 298.74327087 42.88743591 C297.28268133 41.43228434 295.8276119 39.97176148 294.37290955 38.51072693 C293.45574158 37.59484802 292.53857361 36.67896912 291.59361267 35.7353363 C290.75725281 34.90010437 289.92089294 34.06487244 289.05918884 33.20433044 C287.43501207 31.27394891 287.43501207 31.27394891 286.11314392 31.38768005 Z M173.11314392 164.38768005 C172.03935486 165.12244568 170.9655658 165.8572113 169.85923767 166.61424255 C153.93148522 178.21618489 140.59735806 192.75511037 130.11314392 209.38768005 C129.54611755 210.26770691 129.54611755 210.26770691 128.96763611 211.16551208 C108.32286434 243.53136701 102.03126776 285.09341592 110.11314392 322.38768005 C119.12098745 361.54586443 142.2555541 397.50042239 176.60533142 419.10862732 C212.51366336 441.03456191 253.86036371 449.78786669 295.42955017 440.05906677 C335.16047438 430.11910666 369.6342038 405.32489697 391.11314392 370.38768005 C411.18649019 336.32523952 418.94842971 296.33772437 410.11314392 257.38768005 C409.94685486 256.64405212 409.7805658 255.90042419 409.60923767 255.13426208 C404.14379525 231.56707193 392.78879566 209.73725207 377.11314392 191.38768005 C376.67244568 190.86722107 376.23174744 190.34676208 375.7776947 189.81053162 C349.76830517 159.39391516 311.95118809 140.64997058 272.11314392 137.38768005 C236.32383696 135.67460844 202.76442517 144.03579284 173.11314392 164.38768005 Z M388.11314392 403.38768005 C386.99165955 404.61744568 386.99165955 404.61744568 385.84751892 405.87205505 C384.85277619 406.96064144 383.85798179 408.04918061 382.86314392 409.13768005 C382.37201111 409.67650818 381.8808783 410.2153363 381.37486267 410.77049255 C380.89146423 411.29900818 380.4080658 411.8275238 379.91001892 412.37205505 C379.47012634 412.85384216 379.03023376 413.33562927 378.57701111 413.83201599 C376.79701734 415.72363045 374.94979619 417.55102779 373.11314392 419.38768005 C376.74314392 423.01768005 380.37314392 426.64768005 384.11314392 430.38768005 C389.77443823 425.69001031 394.96543296 420.64044634 400.11314392 415.38768005 C399.24506791 414.3195156 398.36819609 413.2584992 397.48814392 412.20018005 C397.0008783 411.60850037 396.51361267 411.01682068 396.01158142 410.4072113 C393.56281665 407.80224961 390.89005017 405.639541 388.11314392 403.38768005 Z M410.60093689 429.6728363 C409.73686218 430.55262146 409.73686218 430.55262146 408.85533142 431.45018005 C408.23013611 432.08182068 407.6049408 432.7134613 406.96080017 433.36424255 C405.98433533 434.36584412 405.98433533 434.36584412 404.98814392 435.38768005 C404.00007751 436.38928162 404.00007751 436.38928162 402.99205017 437.41111755 C401.36120068 439.06560254 399.73518543 440.72456621 398.11314392 442.38768005 C399.65027481 446.03274831 401.83651428 448.35878632 404.62290955 451.1403656 C405.07840683 451.59776123 405.53390411 452.05515686 406.00320435 452.52641296 C407.50376508 454.03066589 409.01138233 455.52761837 410.51939392 457.0243988 C411.56586053 458.06967283 412.61195723 459.11531731 413.65769958 460.16131592 C415.84696159 462.34901586 418.03953657 464.53332071 420.23472595 466.71507263 C423.05112593 469.5144517 425.86086668 472.32040009 428.66838837 475.12868023 C430.82646956 477.28648984 432.98714454 479.44168594 435.14871216 481.59600258 C436.18595318 482.630058 437.22258663 483.66472323 438.25860596 484.70000267 C439.70434944 486.14358327 441.1537754 487.58347306 442.6033783 489.0231781 C443.42785461 489.84384262 444.25233093 490.66450714 445.10179138 491.51004028 C448.26565773 494.46357586 450.67355945 494.77863331 455.00767517 494.74705505 C458.72907845 494.11186192 460.51627241 492.04788989 463.11314392 489.38768005 C464.76658986 486.08078818 464.86364455 482.93612203 464.11314392 479.38768005 C462.9027604 477.49575276 462.9027604 477.49575276 461.20811462 475.7509613 C460.56967621 475.05615662 459.93123779 474.36135193 459.27345276 473.64549255 C455.25934081 469.45020715 451.19677506 465.30842622 447.09361267 461.20018005 C446.14426724 460.24761382 445.19499386 459.29497578 444.24578857 458.3422699 C442.27339966 456.36394393 440.29900703 454.38764339 438.323349 452.4125824 C435.78843535 449.87777139 433.26053126 447.33608769 430.7342329 444.79269409 C428.78430728 442.83168852 426.82989287 440.87520563 424.87415504 438.91999817 C423.48512288 437.52921112 422.10064003 436.13388533 420.71621704 434.73851013 C419.87806961 433.90343933 419.03992218 433.06836853 418.17637634 432.20799255 C417.43804062 431.46823181 416.6997049 430.72847107 415.93899536 429.96629333 C413.68003066 428.01321457 412.91621462 427.70518665 410.60093689 429.6728363 Z " fill="#FF5757" transform="translate(29.886856079101563,-0.3876800537109375)"/>
<path d="M0 0 C1.15113281 -0.03867188 2.30226563 -0.07734375 3.48828125 -0.1171875 C4.54660156 -0.15457031 5.60492188 -0.19195312 6.6953125 -0.23046875 C10.40481404 0.29946004 12.01254719 1.61814345 14.67578125 4.1953125 C16.06572205 6.9751941 15.86066329 9.1139451 15.67578125 12.1953125 C14.46871246 15.53796455 13.75521276 16.14235816 10.67578125 18.1953125 C8.58544922 18.54248047 8.58544922 18.54248047 6.16796875 18.6875 C5.27215088 18.7503418 4.37633301 18.81318359 3.45336914 18.87792969 C2.49551514 18.94141602 1.53766113 19.00490234 0.55078125 19.0703125 C-32.74596576 21.73426973 -62.16395467 36.05110631 -84.32421875 61.1953125 C-105.09720725 86.04383196 -113.9353064 118.5848533 -111.11328125 150.58740234 C-107.72993928 180.86446824 -92.38735874 209.91847023 -68.63134766 229.18432617 C-41.32796701 250.44178186 -8.8351035 258.72566408 25.4375 254.7265625 C56.00520426 249.61673731 84.44062226 232.26011905 102.67578125 207.1953125 C120.76269361 180.70848578 129.07712445 149.19626707 123.54663086 117.24536133 C117.3988625 86.40360266 100.77751188 57.50664501 74.23828125 39.7578125 C63.01652406 32.5731955 51.41939253 26.99953076 38.61401367 23.27246094 C34.33509331 21.98190894 31.51819508 20.85293639 28.67578125 17.1953125 C27.60229656 14.20489087 27.55731022 12.64765645 28.36328125 9.5703125 C29.91143262 6.76889574 30.80182383 5.63229121 33.67578125 4.1953125 C39.73683289 3.80913318 44.47556572 4.69806477 50.17578125 6.6953125 C51.34427612 7.0979834 51.34427612 7.0979834 52.53637695 7.50878906 C71.69952805 14.33737316 88.17633012 25.02307043 102.67578125 39.1953125 C103.53816406 39.99582031 104.40054688 40.79632813 105.2890625 41.62109375 C129.04572826 64.19546821 142.96870571 98.05916134 143.87890625 130.65625 C144.40027841 170.07796297 132.22733367 204.64351017 104.82104492 233.38305664 C83.37319265 255.33967055 55.93548616 268.69996831 25.67578125 273.1953125 C24.82242188 273.32679688 23.9690625 273.45828125 23.08984375 273.59375 C-11.33383289 277.94076719 -47.85626771 268.33017027 -75.32421875 247.1953125 C-76.26523438 246.47601563 -77.20625 245.75671875 -78.17578125 245.015625 C-106.6721631 222.45933401 -125.23718726 189.68405486 -129.63671875 153.5078125 C-133.38706072 117.44555407 -124.04820474 80.73784482 -101.32421875 52.1953125 C-97.5173669 47.67204647 -93.4546629 43.42167408 -89.32421875 39.1953125 C-88.73511719 38.54433594 -88.14601562 37.89335937 -87.5390625 37.22265625 C-65.70461671 13.60124814 -31.34452544 1.84162899 0 0 Z " fill="#FF5757" transform="translate(283.32421875,152.8046875)"/>
<path d="M0 0 C1.20261475 -0.0071553 2.40522949 -0.01431061 3.64428711 -0.02168274 C4.95553558 -0.02437164 6.26678406 -0.02706055 7.61776733 -0.02983093 C9.01936001 -0.03610086 10.42095104 -0.04274813 11.82254028 -0.04974365 C16.41751969 -0.07072675 21.0124992 -0.08114193 25.60751343 -0.09111023 C27.19374992 -0.09516019 28.77998624 -0.09927719 30.36622238 -0.10346031 C37.82157273 -0.12250083 45.27691326 -0.13673319 52.73228323 -0.14507228 C61.31711653 -0.15483511 69.90169134 -0.18113434 78.48643363 -0.22157317 C85.13548575 -0.25181093 91.78446411 -0.26654846 98.43358362 -0.26985329 C102.39835056 -0.27219539 106.362841 -0.28104526 110.32753372 -0.30631447 C114.06229804 -0.32973441 117.79660653 -0.33377324 121.53142548 -0.32355309 C123.53913807 -0.32282808 125.54682824 -0.34182156 127.55444336 -0.36161804 C136.98525143 -0.30792063 145.67793175 0.86673126 152.94345093 7.33467102 C158.79759664 13.97687481 160.66862178 20.48597321 160.32235718 29.28779602 C159.50332156 36.68945128 156.53935928 42.17049786 151.00595093 47.14717102 C143.13150934 52.63859852 135.45957434 52.86148681 126.13632202 52.77827454 C124.66015262 52.78342245 123.18398938 52.79071028 121.70783997 52.79995728 C117.72638231 52.81836565 113.74560009 52.80560173 109.76417112 52.78586698 C105.58390327 52.76939729 101.4036754 52.7783046 97.22338867 52.78338623 C90.20776667 52.78789694 83.19241219 52.77209858 76.17684937 52.74409485 C68.07984808 52.71202247 59.9833284 52.71207165 51.88629282 52.72930962 C44.07582301 52.745201 36.26552885 52.73842601 28.45506668 52.7213726 C25.14023759 52.71452186 21.82555012 52.71551405 18.51072311 52.72291756 C14.60510168 52.73060775 10.7000252 52.71836609 6.79449654 52.69106865 C5.36591394 52.68421317 3.93728017 52.68405627 2.50869942 52.69128418 C-6.67616981 52.73238299 -12.75825479 52.12266792 -20.20108032 46.47138977 C-26.18477347 40.37122571 -28.50487703 34.43620853 -29.05264282 25.91670227 C-28.88983604 18.22136856 -25.41794728 11.52421049 -19.99404907 6.14717102 C-13.56621083 1.57853114 -7.84740661 0.03215287 0 0 Z M-8.99404907 21.14717102 C-10.65264507 23.95613165 -10.65264507 23.95613165 -10.99404907 27.14717102 C-9.6627846 30.07595286 -8.26099942 31.88022067 -5.99404907 34.14717102 C-3.41634337 34.46082544 -3.41634337 34.46082544 -0.35835266 34.42132568 C0.8403949 34.43130081 2.03914246 34.44127594 3.2742157 34.45155334 C4.60968004 34.45244922 5.94514456 34.45311275 7.28060913 34.4535675 C8.68164514 34.46118582 10.08267695 34.46961275 11.48370361 34.47879028 C15.2957908 34.50077735 19.10779775 34.50954003 22.91994119 34.51461673 C25.30098378 34.51825598 27.68200523 34.52449384 30.06303978 34.53161812 C38.36815696 34.55612927 46.67321154 34.56916766 54.97836304 34.57270813 C62.72196142 34.57634257 70.46516322 34.60622677 78.2086404 34.64811271 C84.85415296 34.68280027 91.49953404 34.69825632 98.14513654 34.69895416 C102.11539475 34.69974765 106.08524944 34.70851816 110.0554142 34.73695183 C113.79103678 34.76310601 117.52592062 34.76535331 121.26159286 34.74929619 C123.28480917 34.74661356 125.3080109 34.76868451 127.33110046 34.79148865 C134.38312972 34.99650702 134.38312972 34.99650702 140.35987854 31.83627319 C142.32137474 29.15736423 142.32137474 29.15736423 142.00595093 25.52217102 C140.8729943 21.6649664 140.8729943 21.6649664 138.00595093 19.14717102 C134.87546373 18.10367529 132.68699406 18.01634955 129.40185547 18.00672913 C128.23538986 18.00101898 127.06892426 17.99530884 125.86711121 17.98942566 C123.9454438 17.98774887 123.9454438 17.98774887 121.98495483 17.98603821 C120.62318284 17.98140929 119.26141214 17.97638453 117.89964294 17.97099304 C114.19919016 17.95787504 110.49875551 17.95142538 106.7982831 17.94698238 C104.48642387 17.94405098 102.1745696 17.93994606 99.86271286 17.93547821 C92.62948238 17.92180549 85.39626323 17.91213746 78.16302073 17.90827632 C69.81303474 17.90379453 61.46321236 17.88624019 53.11327612 17.85727572 C46.65883505 17.83566337 40.20444004 17.8255723 33.74996316 17.8242352 C29.8949577 17.82318694 26.04010608 17.81727472 22.1851387 17.79941559 C18.5588139 17.78294229 14.93275872 17.78077563 11.30640984 17.7895546 C9.34286923 17.7906926 7.3793376 17.77696989 5.41584778 17.76280212 C4.24374252 17.76837128 3.07163727 17.77394043 1.86401367 17.77967834 C0.84748529 17.77821178 -0.16904308 17.77674522 -1.21637535 17.77523422 C-4.49127941 18.21375129 -6.35414347 19.18382889 -8.99404907 21.14717102 Z " fill="#FF5757" transform="translate(121.99404907226563,58.85282897949219)"/>
<path d="M0 0 C3.74785043 2.08213913 4.79482295 3.2947039 6 7.4375 C6 13.55221638 2.36746734 16.86294212 -1.72987366 20.98982239 C-2.3611467 21.61547592 -2.99241974 22.24112946 -3.64282227 22.88574219 C-4.64815506 23.8939225 -4.64815506 23.8939225 -5.67379761 24.92247009 C-7.88314903 27.13551654 -10.099601 29.34129706 -12.31640625 31.546875 C-13.854689 33.08396539 -15.39260199 34.6214259 -16.93016052 36.15924072 C-20.14916683 39.3766845 -23.37150099 42.59074461 -26.59643555 45.80224609 C-30.73670981 49.9254952 -34.87033496 54.05533232 -39.0017252 58.18748093 C-42.17462278 61.3601071 -45.35011589 64.53012432 -48.52650261 67.6992569 C-50.05218549 69.22175134 -51.57725793 70.74485774 -53.101717 72.26857758 C-55.22749575 74.39219666 -57.35652936 76.51249507 -59.48657227 78.63183594 C-60.11986954 79.2655864 -60.75316681 79.89933685 -61.40565491 80.55229187 C-66.68121919 85.78899507 -66.68121919 85.78899507 -71.125 86.5 C-76.80981282 85.76647577 -79.03195054 82.94918393 -83 79 C-84.20444087 77.90859285 -85.41170953 76.82030189 -86.62109375 75.734375 C-87.91558895 74.53289253 -89.20854661 73.32975147 -90.5 72.125 C-91.13623291 71.56087402 -91.77246582 70.99674805 -92.42797852 70.41552734 C-94.98755765 67.95679597 -96.76960836 66.19021332 -97.45727539 62.63769531 C-97.52873491 58.91880725 -97.43593503 56.69749605 -95.4375 53.5 C-92.13831882 51.46973466 -89.87929749 51 -86 51 C-80.39914058 53.7408461 -76.26714832 58.53790582 -72 63 C-65.657617 57.8220322 -59.94915377 52.05168614 -54.19637489 46.24097443 C-52.39543807 44.42248611 -50.59084161 42.60770248 -48.78520203 40.79388428 C-43.65676077 35.64111883 -38.53411583 30.4826187 -33.41577148 25.31982422 C-30.27374264 22.15101965 -27.12686462 18.98709838 -23.97694969 15.82613373 C-22.7809609 14.62394292 -21.58687222 13.41985867 -20.39473915 12.2138443 C-18.73164394 10.53153717 -17.0624828 8.85547703 -15.3918457 7.18066406 C-14.9029335 6.68299026 -14.4140213 6.18531647 -13.91029358 5.67256165 C-9.50927562 1.28407131 -6.3320323 -0.77535089 0 0 Z " fill="#FF5757" transform="translate(336,247)"/>
<path d="M0 0 C1.12425888 -0.00554901 2.24851776 -0.01109802 3.40684509 -0.01681519 C7.11663663 -0.02860937 10.82520631 -0.00433787 14.53491211 0.02148438 C17.11510665 0.02319546 19.69530293 0.02312982 22.27549744 0.0213623 C27.67994125 0.0230154 33.08394134 0.04112988 38.48828125 0.07324219 C44.73002128 0.11015076 50.97130277 0.11891449 57.21313769 0.11194468 C63.22745973 0.10563289 69.24158466 0.11661914 75.25588799 0.13591003 C77.81117422 0.14294382 80.36647432 0.14606411 82.9217701 0.1452179 C86.49107057 0.14701417 90.0597185 0.16838224 93.62890625 0.1953125 C94.68618927 0.1923819 95.74347229 0.18945129 96.83279419 0.18643188 C105.77888769 0.29065247 105.77888769 0.29065247 109.74975586 3.61523438 C111.85077181 6.28925467 111.74822561 7.65808122 111.62475586 11.11523438 C110.60549709 15.19226945 110.19987334 16.25407592 106.74975586 18.61523438 C102.9899675 19.23213129 99.25395047 19.17143858 95.45117188 19.14868164 C94.29794434 19.15729721 93.1447168 19.16591278 91.95654297 19.17478943 C88.13868868 19.19752013 84.3215642 19.19069678 80.50366211 19.18164062 C78.52305094 19.18555097 76.54243938 19.18947141 74.56183189 19.19494003 C68.33459468 19.21193817 62.10760251 19.20837464 55.88037109 19.19165039 C49.4601789 19.17473064 43.0406667 19.19056083 36.62054878 19.22287327 C31.10446096 19.24958195 25.58858464 19.25684179 20.07243866 19.24835819 C16.77960124 19.24343227 13.48726303 19.24772815 10.19445992 19.26614571 C6.52171194 19.28353739 2.85042324 19.26909085 -0.82226562 19.24633789 C-1.91074295 19.25803009 -2.99922028 19.26972229 -4.12068176 19.2817688 C-11.49602146 19.18866285 -11.49602146 19.18866285 -15.42079163 16.20469666 C-17.16839642 13.7310841 -17.95575836 12.59358575 -17.93774414 9.61523438 C-17.96223633 8.97585938 -17.98672852 8.33648437 -18.01196289 7.67773438 C-15.00672359 -0.45952896 -7.30880281 -0.09186224 0 0 Z " fill="#FF5757" transform="translate(68.250244140625,442.384765625)"/>
<path d="M0 0 C0.98916916 -0.0071553 1.97833832 -0.01431061 2.9974823 -0.02168274 C6.26303461 -0.03857435 9.52721517 -0.01916493 12.79272461 0.00219727 C15.06286228 0.00136868 17.33299989 -0.0010903 19.60313416 -0.00511169 C24.35865354 -0.00796994 29.11370201 0.00673598 33.86914062 0.03417969 C39.96824665 0.06828134 46.06651158 0.06223775 52.165658 0.04351711 C56.85223923 0.03295545 61.53862431 0.04187714 66.2251873 0.05690193 C68.47428238 0.06208899 70.7233979 0.06159562 72.97249031 0.05535698 C76.11361986 0.04991427 79.25353951 0.07024996 82.39453125 0.09765625 C83.79183975 0.08786743 83.79183975 0.08786743 85.21737671 0.07788086 C91.49990815 0.17121449 91.49990815 0.17121449 94.68260193 2.48475647 C96.59984476 5.32280043 97.0639771 7.20154052 97.13256836 10.63110352 C95.97736971 13.96834407 95.22542191 16.00951062 92.10241699 17.78581238 C87.95317258 18.96678823 84.03439528 18.9178352 79.73999023 18.90576172 C78.33179771 18.91342812 78.33179771 18.91342812 76.89515686 18.92124939 C73.79714555 18.93513054 70.69935704 18.93418993 67.60131836 18.93188477 C65.44567787 18.93577205 63.29003815 18.94010679 61.13439941 18.94487 C56.61862707 18.9523287 52.10293292 18.9520431 47.5871582 18.94677734 C41.79993231 18.94097842 36.01302601 18.95792578 30.22585297 18.98112202 C25.77518848 18.9958507 21.32460116 18.99673231 16.87391663 18.99361229 C14.74007025 18.99412578 12.60621959 18.99936866 10.47239685 19.00942421 C7.4897683 19.02175648 4.50776497 19.01501639 1.52514648 19.00341797 C0.64395645 19.01106171 -0.23723358 19.01870544 -1.14512634 19.02658081 C-7.10881246 18.97530585 -10.53990123 17.95863393 -14.86743164 13.63110352 C-15.66205461 6.70653191 -15.66205461 6.70653191 -12.94923401 3.03504944 C-8.63241028 -0.33226928 -5.33211242 -0.06707169 0 0 Z " fill="#FF5757" transform="translate(65.867431640625,144.368896484375)"/>
<path d="M0 0 C0.73397003 -0.0087616 1.46794006 -0.01752319 2.22415161 -0.02655029 C4.64092814 -0.04848742 7.05586241 -0.03401381 9.47265625 -0.01708984 C11.15747426 -0.02045966 12.8422899 -0.02531367 14.52709961 -0.03158569 C18.05443517 -0.03894924 21.58113671 -0.0282688 25.10839844 -0.00488281 C29.62479619 0.02360539 34.13970837 0.00719854 38.65605164 -0.02274513 C42.13402454 -0.04083254 45.61164652 -0.03505363 49.08963013 -0.02210617 C50.75456926 -0.01877611 52.41954049 -0.02284521 54.08444214 -0.03450394 C56.41392108 -0.04723743 58.74101108 -0.02780549 61.0703125 0 C61.75513702 -0.01012115 62.43996155 -0.02024231 63.14553833 -0.03067017 C66.90864724 0.05234439 68.47969451 0.60304658 71.46655273 2.96865845 C73.53515625 5.64697266 73.53515625 5.64697266 74.09765625 9.14697266 C73.44765557 13.1914213 72.49510246 14.8514679 69.53515625 17.64697266 C65.97985858 18.94183874 62.39182382 18.78741745 58.64282227 18.80810547 C57.95776611 18.81307037 57.27270996 18.81803528 56.56689453 18.82315063 C54.30760687 18.83771924 52.04838936 18.84456445 49.7890625 18.85009766 C48.21492003 18.85585235 46.64077758 18.86161004 45.06663513 18.86737061 C41.7689481 18.87786471 38.47128535 18.88371815 35.17358398 18.88720703 C30.95235368 18.89269628 26.73144519 18.91673997 22.5103159 18.94517899 C19.25977137 18.96381802 16.00930431 18.96901158 12.75871086 18.97054291 C11.20260796 18.97356582 9.64650631 18.98158217 8.09045601 18.99472809 C5.91235041 19.0118198 3.73503057 19.0099015 1.55688477 19.00341797 C0.31874527 19.0070636 -0.91939423 19.01070923 -2.1950531 19.01446533 C-6.73142477 18.50462127 -9.28265669 16.82915971 -12.46484375 13.64697266 C-13.09999603 8.11207418 -13.09999603 8.11207418 -12.46484375 5.64697266 C-8.70954179 0.93539183 -5.82464416 -0.08608355 0 0 Z " fill="#FF5757" transform="translate(63.46484375,400.35302734375)"/>
<path d="M0 0 C1.43676147 0.00171284 2.87352607 0.00164366 4.31028748 -0.00012207 C7.31385406 0.00152726 10.31667072 0.02015393 13.32006836 0.05175781 C17.16247221 0.091471 21.00389681 0.0957967 24.84646702 0.08829498 C27.81057139 0.08522027 30.77445718 0.09736285 33.73850822 0.11442566 C35.15502488 0.12143656 36.5715663 0.12458252 37.98810005 0.12373352 C39.96943117 0.12553856 41.95070552 0.14923064 43.93188477 0.17382812 C45.0574025 0.18224731 46.18292023 0.1906665 47.34254456 0.19934082 C50.73554059 0.64121206 52.63624064 1.5695557 55.37109375 3.59375 C56.51472487 5.88101223 56.63611307 7.42227427 56.74609375 9.96875 C56.79507813 10.73960937 56.8440625 11.51046875 56.89453125 12.3046875 C56.10455211 15.7593724 54.28386617 16.68342663 51.37109375 18.59375 C48.2598877 19.1084137 48.2598877 19.1084137 44.73242188 19.12719727 C44.08623398 19.13581284 43.44004608 19.14442841 42.77427673 19.15330505 C40.64988527 19.17590714 38.52681907 19.16923864 36.40234375 19.16015625 C34.91930756 19.16539415 33.4362747 19.17167124 31.95324707 19.17893982 C28.84969369 19.18933302 25.74659914 19.18479813 22.64306641 19.17016602 C18.67145374 19.15297113 14.70128689 19.17648546 10.72983551 19.21165562 C7.6687873 19.23364488 4.60808435 19.2321848 1.54698181 19.2238903 C0.08298658 19.22307176 -1.38103424 19.22991686 -2.84495544 19.24466133 C-4.89427897 19.26214021 -6.9410137 19.24754474 -8.99023438 19.22485352 C-10.1542981 19.22389175 -11.31836182 19.22292999 -12.5177002 19.22193909 C-16.55380732 18.4070016 -18.05175944 16.72860252 -20.62890625 13.59375 C-21.328125 11.53125 -21.328125 11.53125 -21.31640625 9.59375 C-21.34089844 8.954375 -21.36539063 8.315 -21.390625 7.65625 C-17.97233988 -1.59941434 -8.13456344 -0.10255292 0 0 Z " fill="#FF5757" transform="translate(71.62890625,186.40625)"/>
<path d="M0 0 C1.63630371 -0.00717545 1.63630371 -0.00717545 3.30566406 -0.01449585 C5.60873865 -0.01789363 7.91186155 -0.00869993 10.21484375 0.01220703 C13.73807417 0.0389719 17.25811856 0.01245249 20.78125 -0.01953125 C23.02084036 -0.01622713 25.26042874 -0.00982087 27.5 0 C29.0782959 -0.01518173 29.0782959 -0.01518173 30.68847656 -0.03067017 C37.99103243 0.08623347 37.99103243 0.08623347 41.91601562 3.07446289 C44.73624388 7.05664621 44.35839944 8.87291689 43.75 13.6640625 C42.00746655 16.90019604 41.27814056 17.48801565 37.75 18.6640625 C36.19655893 18.76556519 34.63922064 18.81240408 33.08251953 18.82519531 C31.66557297 18.83960663 31.66557297 18.83960663 30.22000122 18.85430908 C29.20122894 18.85855896 28.18245667 18.86280884 27.1328125 18.8671875 C25.55885208 18.87573761 25.55885208 18.87573761 23.95309448 18.88446045 C21.73224903 18.89390936 19.51138956 18.900444 17.29052734 18.90429688 C13.89525888 18.91400458 10.50059518 18.94503034 7.10546875 18.9765625 C4.94792026 18.98309245 2.79036744 18.98834295 0.6328125 18.9921875 C-0.88927322 19.0107077 -0.88927322 19.0107077 -2.44210815 19.02960205 C-11.33461128 19.00153781 -11.33461128 19.00153781 -15.25 15.6640625 C-16.82898053 12.50610143 -17.06928171 9.05735614 -16.25 5.6640625 C-11.85116288 -0.57261276 -7.01151144 -0.06744419 0 0 Z " fill="#FF5757" transform="translate(67.25,357.3359375)"/>
<path d="M0 0 C1.63630371 -0.00717545 1.63630371 -0.00717545 3.30566406 -0.01449585 C5.60873865 -0.01789363 7.91186155 -0.00869993 10.21484375 0.01220703 C13.73807417 0.0389719 17.25811856 0.01245249 20.78125 -0.01953125 C23.02084036 -0.01622713 25.26042874 -0.00982087 27.5 0 C29.0782959 -0.01518173 29.0782959 -0.01518173 30.68847656 -0.03067017 C37.99103243 0.08623347 37.99103243 0.08623347 41.91601562 3.07446289 C44.73624388 7.05664621 44.35839944 8.87291689 43.75 13.6640625 C42.00746655 16.90019604 41.27814056 17.48801565 37.75 18.6640625 C36.19655893 18.76556519 34.63922064 18.81240408 33.08251953 18.82519531 C31.66557297 18.83960663 31.66557297 18.83960663 30.22000122 18.85430908 C29.20122894 18.85855896 28.18245667 18.86280884 27.1328125 18.8671875 C25.55885208 18.87573761 25.55885208 18.87573761 23.95309448 18.88446045 C21.73224903 18.89390936 19.51138956 18.900444 17.29052734 18.90429688 C13.89525888 18.91400458 10.50059518 18.94503034 7.10546875 18.9765625 C4.94792026 18.98309245 2.79036744 18.98834295 0.6328125 18.9921875 C-0.88927322 19.0107077 -0.88927322 19.0107077 -2.44210815 19.02960205 C-11.33461128 19.00153781 -11.33461128 19.00153781 -15.25 15.6640625 C-16.82898053 12.50610143 -17.06928171 9.05735614 -16.25 5.6640625 C-11.85116288 -0.57261276 -7.01151144 -0.06744419 0 0 Z " fill="#FF5757" transform="translate(67.25,229.3359375)"/>
<path d="M0 0 C0.8452977 -0.00004028 1.6905954 -0.00008057 2.56150818 -0.00012207 C4.34080479 0.00521842 6.12010197 0.02273813 7.89916992 0.05175781 C10.61645834 0.09367849 13.33127017 0.09281677 16.04882812 0.0859375 C17.78256923 0.09642906 19.51629763 0.10936699 21.25 0.125 C22.46267296 0.12530212 22.46267296 0.12530212 23.69984436 0.12561035 C28.28822337 0.22154121 31.34060281 0.62180762 35.05859375 3.59375 C37.38395438 7.08179095 37.39317273 8.49515754 37.05859375 12.59375 C35.85152496 15.93640205 35.13802526 16.54079566 32.05859375 18.59375 C30.13699341 18.86790466 30.13699341 18.86790466 27.94189453 18.90014648 C27.117388 18.91613388 26.29288147 18.93212128 25.44338989 18.94859314 C24.11209549 18.95663719 24.11209549 18.95663719 22.75390625 18.96484375 C21.37971024 18.97838646 21.37971024 18.97838646 19.97775269 18.99220276 C18.03940095 19.00671085 16.10100017 19.01559338 14.16259766 19.01928711 C11.20130605 19.03117887 8.24210144 19.08035392 5.28125 19.13085938 C3.39714558 19.14032427 1.51302837 19.14755899 -0.37109375 19.15234375 C-1.25457489 19.17187607 -2.13805603 19.19140839 -3.04830933 19.21153259 C-7.53973399 19.17867595 -9.35586436 19.05498534 -12.99584961 16.18774414 C-14.86148003 13.70031495 -15.64734177 12.64175535 -15.62890625 9.59375 C-15.65339844 8.954375 -15.67789063 8.315 -15.703125 7.65625 C-13.04498549 0.4588261 -6.62714183 -0.13473518 0 0 Z " fill="#FF5757" transform="translate(65.94140625,314.40625)"/>
<path d="M0 0 C0.91567245 -0.00241196 1.83134491 -0.00482391 2.77476501 -0.00730896 C4.70543765 -0.00633174 6.63613873 0.00703209 8.56665039 0.03198242 C11.52131222 0.06633612 14.47298961 0.05262444 17.42773438 0.03320312 C19.30600231 0.04010061 21.18426253 0.04977211 23.0625 0.0625 C24.38605247 0.0550602 24.38605247 0.0550602 25.73634338 0.04747009 C31.8194562 0.16431942 31.8194562 0.16431942 34.99389648 2.44946289 C37.08538828 5.5483421 37.39962773 7.91159283 37.46484375 11.62890625 C36.22385106 14.73138798 35.3291065 16.16701793 32.37304688 17.74682617 C28.59011002 18.89421963 24.97441736 18.9343355 21.05859375 18.9296875 C20.25627319 18.93397263 19.45395264 18.93825775 18.62731934 18.94267273 C16.93628887 18.94839845 15.24523378 18.94892928 13.55419922 18.94458008 C10.97320469 18.9414165 8.39335332 18.96491261 5.8125 18.99023438 C4.16536602 18.99250726 2.51822898 18.99321091 0.87109375 18.9921875 C0.10325562 19.00139725 -0.66458252 19.01060699 -1.45568848 19.02009583 C-7.25608381 18.97021062 -10.47358723 17.69047527 -14.53515625 13.62890625 C-15.33091936 6.69439918 -15.33091936 6.69439918 -12.59619141 3.03271484 C-8.3711321 -0.28519343 -5.22815909 -0.07873743 0 0 Z " fill="#FF5757" transform="translate(65.53515625,272.37109375)"/>
</svg>
