<?xml version="1.0" encoding="UTF-8"?>
<svg version="1.1" xmlns="http://www.w3.org/2000/svg" width="512" height="512">
<path d="M0 0 C0.7827832 -0.01893311 1.56556641 -0.03786621 2.37207031 -0.05737305 C14.97009206 0.08102411 26.47376928 5.30707128 37.6875 10.5625 C53.09834667 17.98512783 53.09834667 17.98512783 69.8125 19 C75.26727622 18.31024958 78.37822395 18.35435605 83 21.5 C86.93334258 26.16512725 88.46681054 31.28680955 90.0625 37.0625 C90.44656006 38.45178711 90.44656006 38.45178711 90.83837891 39.86914062 C101.80084088 81.09525479 97.05791425 124.31984146 75.91259766 161.40722656 C63.13773979 182.66802119 44.63258582 200.02376152 24 213.5 C24.15855469 214.05042969 24.31710937 214.60085937 24.48046875 215.16796875 C27.29699192 225.20475022 29.75933183 235.32059023 32 245.5 C32.17096191 246.24733398 32.34192383 246.99466797 32.51806641 247.76464844 C39.64322966 280.09794381 35.55573116 315.30906544 26.76171875 346.77441406 C25.93304768 349.73956913 25.12137267 352.70907412 24.3125 355.6796875 C24.06113281 356.60249512 23.80976563 357.52530273 23.55078125 358.47607422 C23.36902344 359.14396973 23.18726563 359.81186523 23 360.5 C23.47421387 360.95850342 23.94842773 361.41700684 24.43701172 361.8894043 C26.59093299 363.98078215 28.73298534 366.08393175 30.875 368.1875 C31.62136719 368.90873047 32.36773437 369.62996094 33.13671875 370.37304688 C33.85214844 371.07880859 34.56757813 371.78457031 35.3046875 372.51171875 C35.96452637 373.15584717 36.62436523 373.79997559 37.30419922 374.46362305 C40.62997675 378.45733315 41.22632962 382.20942491 41.36328125 387.33984375 C40.4479508 392.78261515 37.22709061 396.65527544 33.45605469 400.47973633 C32.53789978 401.41703079 31.61974487 402.35432526 30.67376709 403.32002258 C29.6737443 404.32463097 28.67309818 405.3286192 27.671875 406.33203125 C26.63896209 407.37459546 25.60627114 408.41737963 24.5737915 409.46037292 C22.41371278 411.63836014 20.24757801 413.81011252 18.07763672 415.97827148 C15.30384918 418.75175362 12.55130699 421.54533376 9.80360031 424.34462452 C7.67939641 426.50223914 5.54163993 428.64602453 3.39987946 430.78619957 C2.37920571 431.81040292 1.36336847 432.83945073 0.35262299 433.87345314 C-1.06335755 435.31894812 -2.50055089 436.74356981 -3.93847656 438.16723633 C-4.74883362 438.98186844 -5.55919067 439.79650055 -6.394104 440.63581848 C-9.65095821 442.9656764 -12.02792946 443.34925882 -16 443.5 C-19.18285349 441.70099585 -20.62123266 440.48479507 -21.9375 437.0625 C-22.03644096 433.00592061 -20.7182635 430.35661345 -18.12704468 427.26628113 C-17.36759552 426.5134938 -16.60814636 425.76070648 -15.82568359 424.98510742 C-14.96494232 424.12459274 -14.10420105 423.26407806 -13.21737671 422.37748718 C-11.8220018 421.00533806 -11.8220018 421.00533806 -10.3984375 419.60546875 C-9.43657096 418.64920207 -8.47536807 417.69226744 -7.51480103 416.73469543 C-4.99295083 414.22426329 -2.46222042 411.72297383 0.07049561 409.22351074 C2.65661074 406.66816215 5.2341844 404.1042294 7.8125 401.54101562 C12.86669462 396.51893143 17.93032497 391.50646057 23 386.5 C21.6238464 383.40820864 20.04841555 381.30361247 17.65185547 378.92480469 C16.97130096 378.24440125 16.29074646 377.5639978 15.58956909 376.86297607 C14.85618317 376.13991272 14.12279724 375.41684937 13.3671875 374.671875 C12.61535187 373.92286926 11.86351624 373.17386353 11.08889771 372.40216064 C8.68892099 370.0133698 6.28207991 367.63163103 3.875 365.25 C2.24563648 363.63066831 0.61672466 362.01088198 -1.01171875 360.390625 C-5.00258911 356.4217939 -8.99951372 352.45913546 -13 348.5 C-19.09568635 353.5449056 -24.6692048 359.03375294 -30.24975586 364.63623047 C-31.26533876 365.65209592 -32.28114286 366.66774027 -33.29714966 367.68318176 C-36.03649399 370.4222408 -38.77275796 373.16435802 -41.50845408 375.90706015 C-44.37472927 378.77961365 -47.24386263 381.64930956 -50.11268616 384.51931763 C-55.53664823 389.94637986 -60.95805752 395.37598473 -66.37854058 400.80652153 C-72.55314129 406.99232433 -78.73060339 413.17526624 -84.90830028 419.35797668 C-97.60870636 432.06881735 -110.3055381 444.78322294 -123 457.5 C-121.53474262 460.5612321 -120.06835698 462.67659381 -117.65185547 465.07519531 C-116.97130096 465.75559875 -116.29074646 466.4360022 -115.58956909 467.13702393 C-114.85618317 467.86008728 -114.12279724 468.58315063 -113.3671875 469.328125 C-112.61535187 470.07713074 -111.86351624 470.82613647 -111.08889771 471.59783936 C-108.68892099 473.9866302 -106.28207991 476.36836897 -103.875 478.75 C-102.24563648 480.36933169 -100.61672466 481.98911802 -98.98828125 483.609375 C-94.99741194 487.57820505 -91.00088585 491.54126899 -87 495.5 C-81.47242048 490.91378871 -76.44022179 486.00045036 -71.43359375 480.85546875 C-69.7981266 479.19276844 -68.16204052 477.53067674 -66.52539062 475.86914062 C-63.96954281 473.26991905 -61.41774584 470.66718849 -58.8762207 468.05395508 C-56.40674454 465.51797383 -53.92173002 462.99812658 -51.43359375 460.48046875 C-50.29898964 459.30244942 -50.29898964 459.30244942 -49.14146423 458.10063171 C-43.83572079 452.76823579 -43.83572079 452.76823579 -39.64477539 451.4230957 C-36.27072516 451.52120572 -34.64665904 452.44148741 -32 454.5 C-30 457.5 -30 457.5 -30.10795593 460.87590027 C-31.12160546 464.99404545 -32.28845252 466.52844362 -35.27270508 469.4855957 C-36.18067337 470.39956619 -37.08864166 471.31353668 -38.02412415 472.25520325 C-39.02213314 473.22920085 -40.02061372 474.20271545 -41.01953125 475.17578125 C-42.04101694 476.19114494 -43.06131935 477.2077003 -44.08049011 478.22538757 C-46.21436039 480.35007544 -48.35763858 482.46459397 -50.5090332 484.5715332 C-53.26327453 487.26913936 -55.99979854 489.98386536 -58.73032093 492.70545673 C-60.83546582 494.80227973 -62.9462123 496.89338122 -65.05905724 498.98244286 C-66.06984157 499.98185444 -67.07970924 500.98219402 -68.08863258 501.98348427 C-69.50028876 503.3813556 -70.91954319 504.77154109 -72.33911133 506.16137695 C-73.54704094 507.34882256 -73.54704094 507.34882256 -74.77937317 508.56025696 C-78.5598188 511.86251964 -81.38053226 512.80504947 -86.375 512.875 C-87.29023438 512.90335938 -88.20546875 512.93171875 -89.1484375 512.9609375 C-98.23306173 511.49246399 -104.65558518 501.72306426 -110.48046875 495.32617188 C-114.65276038 490.60841184 -114.65276038 490.60841184 -120.17333984 488.0690918 C-122.53727988 488.27890989 -122.53727988 488.27890989 -126 489.5 C-127.13179688 489.72558594 -128.26359375 489.95117188 -129.4296875 490.18359375 C-130.56664062 490.43238281 -131.70359375 490.68117188 -132.875 490.9375 C-161.92850116 496.86686023 -193.85063157 497.04007076 -222.51171875 488.953125 C-225.46375567 488.41554842 -227.12477659 488.62649419 -230 489.5 C-232.41835286 491.40098314 -232.41835286 491.40098314 -234.6875 493.8671875 C-235.55117187 494.75277344 -236.41484375 495.63835937 -237.3046875 496.55078125 C-238.63886719 497.94876953 -238.63886719 497.94876953 -240 499.375 C-241.76614375 501.21025372 -243.53682324 503.04115573 -245.3125 504.8671875 C-246.09238281 505.68300293 -246.87226563 506.49881836 -247.67578125 507.33935547 C-251.707361 511.08720009 -254.9003611 512.9296459 -260.4375 512.9375 C-261.34371094 512.95683594 -262.24992187 512.97617187 -263.18359375 512.99609375 C-268.93143281 511.98364498 -273.02622443 507.72411118 -277.03594971 503.71801758 C-277.50519009 503.25189717 -277.97443048 502.78577677 -278.45789027 502.3055315 C-280.01477764 500.75656376 -281.56448611 499.20061579 -283.11425781 497.64453125 C-284.23462301 496.52687852 -285.3554127 495.40965119 -286.47659302 494.29281616 C-289.50988543 491.26861743 -292.53684635 488.23815558 -295.56241703 485.20623398 C-298.73219683 482.03138106 -301.90686431 478.86142157 -305.08074951 475.69067383 C-310.40704528 470.36801281 -315.72911857 465.04115708 -321.04882812 459.71191406 C-327.19925616 453.55059126 -333.35687108 447.39652155 -339.51824689 441.24614811 C-344.81121317 435.96225535 -350.10027505 430.67447812 -355.38608813 425.38342953 C-358.54185858 422.22454118 -361.69896451 419.06701944 -364.85959625 415.91299438 C-367.82885856 412.9495062 -370.79319163 409.98117427 -373.75378036 407.00902176 C-374.84128963 405.91886676 -375.93050674 404.83041241 -377.0215416 403.74378586 C-378.50969467 402.26109269 -379.99155851 400.7723848 -381.47198486 399.28198242 C-382.30302357 398.45018967 -383.13406227 397.61839691 -383.99028397 396.76139832 C-387.03219618 393.33853904 -388.28844459 390.6955281 -388.3125 386.125 C-388.32925781 385.39539063 -388.34601563 384.66578125 -388.36328125 383.9140625 C-387.2820276 376.72895758 -382.29525192 372.42630717 -377.3125 367.625 C-376.61060547 366.93664062 -375.90871094 366.24828125 -375.18554688 365.5390625 C-373.46367145 363.85232739 -371.73517426 362.17303303 -370 360.5 C-370.17893799 359.84088623 -370.35787598 359.18177246 -370.54223633 358.50268555 C-371.03255794 356.69593481 -371.52227746 354.88902066 -372.01171875 353.08203125 C-372.72684111 350.49006603 -373.45796525 347.90629332 -374.20703125 345.32421875 C-389.57074114 292.06062544 -384.1709241 235.4456214 -358 186.5 C-357.51660156 185.59121094 -357.51660156 185.59121094 -357.0234375 184.6640625 C-345.23355973 162.71380226 -328.60424344 141.00783437 -309 125.5 C-308.0615625 124.7471875 -307.123125 123.994375 -306.15625 123.21875 C-260.86199138 87.34586579 -204.84378687 71.08889578 -147.3125 77.625 C-130.05079276 79.80748329 -113.20267552 84.18870366 -97 90.5 C-96.96559814 89.7471875 -96.93119629 88.994375 -96.89575195 88.21875 C-96.04856907 70.90206917 -94.32905183 54.33670237 -90 37.5 C-89.73268066 36.45730957 -89.73268066 36.45730957 -89.45996094 35.39355469 C-87.82724729 29.27487243 -86.29677811 24.3756913 -81 20.5 C-76.86384539 18.38183086 -74.11880658 18.50344604 -69.5625 19.125 C-56.95818087 20.13958916 -47.14791444 15.21019581 -36 10 C-23.89689406 4.35677141 -13.51692749 0.24763255 0 0 Z M-35.0625 27.125 C-46.96542401 32.62954585 -58.67582372 36.51625073 -72 35.5 C-84.19843368 68.19427911 -83.23932697 106.79290709 -69.18359375 138.78515625 C-62.3603581 153.40487511 -53.23820983 166.00194717 -42 177.5 C-41.21109375 178.35078125 -40.4221875 179.2015625 -39.609375 180.078125 C-30.62808784 189.53524195 -19.93729827 196.83517483 -8.9375 203.75 C-8.33075439 204.14517822 -7.72400879 204.54035645 -7.09887695 204.94750977 C-4.30442051 206.64435181 -2.32905553 207.49869767 0.9609375 207.51171875 C4.89163603 206.20317001 8.09965187 204.31052808 11.5625 202.0625 C12.26068848 201.61656494 12.95887695 201.17062988 13.67822266 200.71118164 C27.04669199 192.04677097 40.0482926 182.0264818 50 169.5 C50.40331543 168.99259277 50.80663086 168.48518555 51.22216797 167.96240234 C74.53399388 138.29667722 83.75818201 102.57474132 79.46875 65.03515625 C78.11883514 55.33390963 75.76436747 45.88762353 73 36.5 C69.33401461 35.66743189 65.87650774 35.3836415 62.125 35.25 C49.1031796 34.24608312 37.5762739 28.60733579 25.93969727 23.06665039 C3.00155375 12.25734564 -13.20057324 17.0021542 -35.0625 27.125 Z M-302.7265625 142.4140625 C-304.8389424 144.3522255 -306.99998072 146.21023271 -309.1875 148.0625 C-313.19503954 151.57508446 -316.62750885 155.37955042 -320 159.5 C-320.40621582 159.99387207 -320.81243164 160.48774414 -321.23095703 160.99658203 C-355.21089319 202.53037603 -371.13084607 253.73587499 -365.80078125 307.25390625 C-364.23722568 320.61843414 -360.99874964 333.67261811 -357 346.5 C-353.23875548 344.76232877 -351.0689579 342.61936359 -348.25 339.5625 C-340.83477741 332.07139063 -340.83477741 332.07139063 -335 331.5 C-329.93268078 331.71794921 -325.56684669 332.46452878 -321.875 336.125 C-321.25625 336.90875 -320.6375 337.6925 -320 338.5 C-316.7413364 337.0735422 -314.5975146 335.33295838 -312.109375 332.8046875 C-311.40039062 332.08925781 -310.69140625 331.37382812 -309.9609375 330.63671875 C-309.23132813 329.89035156 -308.50171875 329.14398438 -307.75 328.375 C-307.00492188 327.62089844 -306.25984375 326.86679687 -305.4921875 326.08984375 C-303.6568658 324.23099228 -301.8263809 322.36762995 -300 320.5 C-301.45277851 317.11945085 -303.28705448 315.0347569 -305.95703125 312.5234375 C-306.74013672 311.76933594 -307.52324219 311.01523437 -308.33007812 310.23828125 C-309.9671868 308.67974349 -311.6103075 307.12749321 -313.25976562 305.58203125 C-320.47067329 298.60144742 -325.54786568 291.2805103 -326.0625 281.00390625 C-325.85183235 272.56403355 -323.71669648 265.84783919 -318 259.5 C-313.45786519 255.70540795 -308.77030097 252.97956435 -303 251.5 C-303.15726563 250.98695313 -303.31453125 250.47390625 -303.4765625 249.9453125 C-305.34306795 241.22566764 -304.98533704 232.25812801 -300.421875 224.515625 C-298.50795371 221.80248383 -296.55879195 219.62192503 -294 217.5 C-292.7625 216.448125 -292.7625 216.448125 -291.5 215.375 C-286.2922738 212.58514668 -280.76564644 211.62917705 -275 210.5 C-274.85304688 209.66597656 -274.70609375 208.83195312 -274.5546875 207.97265625 C-272.58640945 198.09733019 -269.97864734 190.80747158 -261.375 185.0625 C-255.85396041 182.02424498 -250.21352015 181.11921678 -244 180.5 C-243.92523438 179.74976563 -243.85046875 178.99953125 -243.7734375 178.2265625 C-242.67156286 169.6492246 -240.53319596 162.4727281 -233.8515625 156.6171875 C-226.74319165 151.59523267 -220.45132815 150.20366992 -211.84375 150.72265625 C-208.86786651 150.66695854 -208.86786651 150.66695854 -205.98779297 149.01098633 C-201.19942786 146.90226791 -196.51042354 147.06905445 -191.3515625 147.1015625 C-190.33959808 147.09869232 -189.32763367 147.09582214 -188.28500366 147.09286499 C-186.15191079 147.0908306 -184.01879899 147.09631657 -181.88574219 147.10888672 C-178.64214768 147.12491526 -175.39980549 147.10903347 -172.15625 147.08984375 C-170.07551811 147.09182694 -167.994787 147.09567219 -165.9140625 147.1015625 C-164.95440582 147.09548981 -163.99474915 147.08941711 -163.00601196 147.0831604 C-154.18953992 147.17400997 -147.09374482 149.09524204 -140 154.5 C-139.484375 155.098125 -138.96875 155.69625 -138.4375 156.3125 C-137.963125 156.704375 -137.48875 157.09625 -137 157.5 C-134.12631508 157.21263151 -131.74209856 156.41403285 -129 155.5 C-118.53000032 154.85416372 -110.26884691 154.92270169 -101.8125 161.5625 C-94.98693828 167.94466893 -92.44304775 175.3436799 -92 184.5 C-91.154375 184.65855469 -90.30875 184.81710938 -89.4375 184.98046875 C-80.40744718 186.83778643 -72.89222572 189.10242035 -67.09375 196.703125 C-63.55008024 202.52486817 -61.58753595 208.74333661 -61 215.5 C-60.29875 215.59796875 -59.5975 215.6959375 -58.875 215.796875 C-49.1593308 217.32814895 -42.77125384 219.66614868 -36.46875 227.4296875 C-32.57063403 232.92437225 -31.25147451 239.00705575 -30 245.5 C-29.2265625 245.65855469 -28.453125 245.81710938 -27.65625 245.98046875 C-19.03053583 247.91271413 -11.61125335 250.39220742 -6.09765625 257.71875 C-1.0411293 265.92435957 0.40500501 273.85646638 -1.58984375 283.2890625 C-5.46078384 295.95435034 -17.38616831 305.02152907 -26.5625 314.125 C-27.67797083 315.23543961 -28.79320661 316.34611538 -29.90820312 317.45703125 C-32.60277631 320.14074159 -35.30047673 322.82126936 -38 325.5 C-36.39464713 328.91059403 -34.59481099 331.11792484 -31.875 333.75 C-31.15054687 334.45640625 -30.42609375 335.1628125 -29.6796875 335.890625 C-29.12539063 336.42171875 -28.57109375 336.9528125 -28 337.5 C-25.80958025 336.45457239 -24.07031153 335.56277815 -22.25 333.9375 C-17.69461877 331.02711755 -13.3541007 331.25174821 -8.25 332.1875 C-3.23240933 334.26650171 0.31626617 338.48989337 3.96386719 342.38354492 C5.2781595 343.78549959 6.63593312 345.14642595 8 346.5 C8.66 346.5 9.32 346.5 10 346.5 C20.50865764 309.03390764 27.30089122 259.10178243 9 222.5 C8.4225 222.65597656 7.845 222.81195313 7.25 222.97265625 C-2.60173591 225.28165685 -9.43331104 221.52561873 -17.77539062 216.41162109 C-53.27179337 194.15548998 -81.21817058 162.74540512 -90.8269043 121.12475586 C-91.14160246 119.6667651 -91.44094754 118.20534175 -91.72192383 116.74047852 C-92.46595425 113.00083218 -93.06087283 110.93586639 -96 108.5 C-99.0146831 106.94891778 -102.20350094 105.81762977 -105.375 104.625 C-106.30965088 104.27348877 -107.24430176 103.92197754 -108.20727539 103.55981445 C-174.50909549 79.35562256 -250.93344146 94.64370814 -302.7265625 142.4140625 Z M-202 164.5 C-202.87202622 170.69478363 -202.11059755 176.02963878 -199 181.5 C-194.31830457 187.0674216 -188.89208244 189.87019068 -181.72973633 190.77929688 C-173.92478371 191.30367316 -169.34021148 190.2930929 -163.30859375 185.03515625 C-158.23708735 180.12683088 -153.52479247 174.91391239 -149 169.5 C-149.96486973 166.95625252 -150.92691414 165.56320529 -152.99731445 163.77270508 C-157.35318843 161.92644351 -161.35877983 162.09034968 -166.04296875 162.13671875 C-167.00777664 162.13622025 -167.97258453 162.13572174 -168.96662903 162.13520813 C-170.99982775 162.13754333 -173.03302965 162.1472391 -175.06616211 162.16381836 C-178.18694698 162.1874958 -181.306882 162.18436456 -184.42773438 162.17773438 C-186.40365095 162.18330851 -188.37956392 162.19041672 -190.35546875 162.19921875 C-191.76012642 162.19785164 -191.76012642 162.19785164 -193.19316101 162.19645691 C-194.05778458 162.20598892 -194.92240814 162.21552094 -195.81323242 162.2253418 C-196.57536545 162.22994919 -197.33749847 162.23455658 -198.12272644 162.23930359 C-200.24356186 162.34147966 -200.24356186 162.34147966 -202 164.5 Z M-223.5625 169.375 C-224.18253906 169.90867188 -224.80257812 170.44234375 -225.44140625 170.9921875 C-227.97210655 173.44043391 -228.20223003 175.33743469 -228.3125 178.75 C-228.34988281 179.49765625 -228.38726562 180.2453125 -228.42578125 181.015625 C-227.46200339 186.63913617 -222.94159165 190.81225502 -219.05126953 194.72338867 C-218.57264465 195.20712448 -218.09401978 195.69086029 -217.60089111 196.18925476 C-216.03328584 197.77064539 -214.45848 199.34461396 -212.8828125 200.91796875 C-211.78167226 202.02300099 -210.68075424 203.12825472 -209.58004761 204.23371887 C-207.27859608 206.54260809 -204.97333918 208.84761531 -202.66552734 211.15014648 C-199.71603586 214.09383589 -196.7780864 217.04875377 -193.84311104 220.00690746 C-191.57490108 222.2898803 -189.29976869 224.56585554 -187.02260971 226.83989906 C-185.93666225 227.92635809 -184.85306017 229.01516689 -183.77191544 230.10640526 C-182.25754929 231.63317285 -180.73386061 233.15001124 -179.20751953 234.66479492 C-178.34466339 235.52828049 -177.48180725 236.39176605 -176.59280396 237.28141785 C-172.79145797 240.53411204 -169.48778175 242.34059481 -164.5 242.875 C-160.51872257 242.44843456 -158.30144889 241.77433145 -155 239.5 C-151.99359707 235.64563727 -150.64284927 232.97388876 -150.8125 228.0625 C-151.60279863 223.47566872 -153.63170944 220.8526835 -156.8984375 217.625 C-159 215.5 -159 215.5 -160.9140625 212.8125 C-163.90491424 208.98420977 -166.48575908 205.98635147 -171.44091797 205.02783203 C-175.2427542 204.69144026 -178.98989486 204.59888796 -182.80493164 204.69750977 C-192.10683602 204.90092458 -199.87905889 202.18045077 -207.1796875 196.328125 C-215.56094002 187.91090144 -217.12003231 177.80063775 -218 166.5 C-220.73546025 166.5 -221.52539425 167.59731691 -223.5625 169.375 Z M-129.63671875 173.38671875 C-130.66962036 174.33756348 -130.66962036 174.33756348 -131.72338867 175.30761719 C-136.03829298 179.46288161 -140.28419249 183.68186292 -144.5 187.9375 C-145.4178125 188.85982422 -146.335625 189.78214844 -147.28125 190.73242188 C-149.52315055 192.98599899 -151.762666 195.24189075 -154 197.5 C-150.93201917 201.15136491 -147.90376966 204.71812484 -144.375 207.9375 C-138.55822861 213.65131968 -135.91369757 220.47891304 -135.6875 228.5625 C-135.75595452 235.86757558 -137.99473374 242.02934686 -141.625 248.3125 C-147.18399849 253.43263019 -153.62943674 256.89770364 -161 258.5 C-160.95359375 259.32242188 -160.9071875 260.14484375 -160.859375 260.9921875 C-160.52818741 271.23534645 -162.17004371 279.35489449 -169.28515625 287.03125 C-175.2048303 292.10140363 -181.81952453 293.66882344 -189.4375 293.625 C-190.75621094 293.62757813 -192.07492188 293.63015625 -193.43359375 293.6328125 C-196.20238454 293.5297031 -198.39077114 293.34082567 -201 292.5 C-201.35191406 293.29664063 -201.70382813 294.09328125 -202.06640625 294.9140625 C-206.60879329 304.66299761 -211.04205141 310.08214207 -221.25390625 313.8125 C-228.95004969 315.73927275 -236.5144727 314.80323917 -244 312.5 C-244.52787109 313.58667969 -244.52787109 313.58667969 -245.06640625 314.6953125 C-249.01182505 322.42132842 -252.76309637 327.93715917 -260.9375 331.3125 C-270.02523431 334.23728805 -277.99725908 333.50091364 -287 330.5 C-296.9 340.4 -296.9 340.4 -307 350.5 C-302.44603094 355.87631127 -302.44603094 355.87631127 -297.65896606 360.96128845 C-297.07014145 361.55148773 -296.48131683 362.14168701 -295.87464905 362.74977112 C-295.25101974 363.36980515 -294.62739044 363.98983917 -293.98486328 364.62866211 C-292.97405449 365.63968994 -292.97405449 365.63968994 -291.94282532 366.67114258 C-289.7376857 368.87559126 -287.52903641 371.07648684 -285.3203125 373.27734375 C-283.78167206 374.8141171 -282.24325375 376.35111288 -280.70504761 377.88832092 C-276.67298834 381.91657796 -272.63793405 385.9418217 -268.60223389 389.96643066 C-264.47778978 394.08061116 -260.35620569 398.19765465 -256.234375 402.31445312 C-248.15903561 410.37909568 -240.08052706 418.44055557 -232 426.5 C-228.66636998 425.05341975 -226.52923679 423.24972223 -224.00439453 420.65209961 C-223.22903351 419.86044907 -222.45367249 419.06879852 -221.65481567 418.25315857 C-220.82255463 417.39488968 -219.99029358 416.53662079 -219.1328125 415.65234375 C-217.34160129 413.83093219 -215.54991889 412.00998391 -213.7578125 410.18945312 C-210.94964613 407.32818594 -208.14783064 404.46098829 -205.35351562 401.58618164 C-180.58855511 376.14921819 -180.58855511 376.14921819 -165 371.5 C-163.80375 371.12875 -162.6075 370.7575 -161.375 370.375 C-155.44297407 368.83706735 -149.78418541 368.34880614 -143.671875 368.2890625 C-142.0507713 368.26098544 -140.42967769 368.23232092 -138.80859375 368.203125 C-136.28336977 368.16202467 -133.75833239 368.12508728 -131.23291016 368.09863281 C-116.03749847 367.94216034 -116.03749847 367.94216034 -101.875 362.8125 C-97.90649299 361.00079028 -95.34537054 361.0725865 -91 361.5 C-89 362.5625 -89 362.5625 -88 364.5 C-87.5625 367.9375 -87.5625 367.9375 -88 371.5 C-90.7795594 374.92249487 -93.63836644 376.48417463 -97.6875 378.125 C-98.66074219 378.52976562 -99.63398438 378.93453125 -100.63671875 379.3515625 C-107.71018463 381.76689231 -114.45500419 382.7919613 -121.91015625 382.84375 C-123.12776894 382.8656842 -123.12776894 382.8656842 -124.36997986 382.88806152 C-127.79834181 382.94956161 -131.22686991 382.98977197 -134.65551758 383.03173828 C-137.17807723 383.06572666 -139.7002819 383.11075806 -142.22265625 383.15625 C-142.98433609 383.1615271 -143.74601593 383.1668042 -144.53077698 383.17224121 C-149.6368596 383.2659237 -154.08344178 384.10609993 -159 385.5 C-154.5021065 390.89190397 -149.73873458 395.89391684 -144.7578125 400.83984375 C-143.98944061 401.60680069 -143.22106873 402.37375763 -142.42941284 403.16395569 C-139.99696491 405.5908474 -137.56104678 408.01422127 -135.125 410.4375 C-133.46591448 412.09156486 -131.80705798 413.74585945 -130.1484375 415.40039062 C-126.10160291 419.43625433 -122.05192047 423.46924277 -118 427.5 C-115.03845002 426.16627583 -112.96023206 424.70842075 -110.67169189 422.41220093 C-110.03513168 421.77839005 -109.39857147 421.14457916 -108.74272156 420.49156189 C-108.05579727 419.79744705 -107.36887299 419.10333221 -106.66113281 418.38818359 C-105.92903091 417.65637375 -105.19692902 416.9245639 -104.44264221 416.170578 C-102.02469891 413.75124171 -99.61391631 411.32489887 -97.203125 408.8984375 C-95.52775971 407.21934198 -93.85195222 405.54068757 -92.17572021 403.86245728 C-87.76544498 399.44454638 -83.36120887 395.02066219 -78.95819092 390.59552002 C-74.4640308 386.08090013 -69.96420262 381.57193767 -65.46484375 377.0625 C-56.63766304 368.21387054 -47.81685002 359.35892225 -39 350.5 C-40.60535287 347.08940597 -42.40518901 344.88207516 -45.125 342.25 C-45.84945313 341.54359375 -46.57390625 340.8371875 -47.3203125 340.109375 C-47.87460937 339.57828125 -48.42890625 339.0471875 -49 338.5 C-52.87321093 340.07630677 -55.24735163 342.57747669 -58.125 345.5625 C-63.78082999 351.41133309 -63.78082999 351.41133309 -68.4375 351.75 C-72 351.5 -72 351.5 -73.9375 350.5 C-75.64764927 347.28089549 -75.58840695 344.01585255 -75 340.5 C-73.34149839 338.09970634 -71.98840151 336.49353635 -69.90698242 334.54638672 C-69.36560135 334.00865631 -68.82422028 333.4709259 -68.26643372 332.91690063 C-66.48063096 331.15188687 -64.6685658 329.41661242 -62.85546875 327.6796875 C-61.60516775 326.45194812 -60.35684791 325.22218822 -59.11042786 323.99050903 C-55.8288936 320.75644377 -52.52540353 317.54582719 -49.21539307 314.34094238 C-43.92321421 309.21043581 -38.66275394 304.0475416 -33.40682411 298.87994766 C-31.57159342 297.08271944 -29.72567636 295.2970591 -27.87797546 293.51266479 C-26.74543111 292.40701107 -25.61315861 291.30107881 -24.48120117 290.19482422 C-23.71191788 289.4605722 -23.71191788 289.4605722 -22.92709351 288.71148682 C-19.27974399 285.12120744 -16.30636394 281.37216197 -15.75 276.15625 C-16.41585015 270.41329245 -17.73743456 267.47193598 -22 263.5 C-25.66078211 261.22437869 -28.77910315 261.29231477 -33.015625 261.9453125 C-36.0977779 262.80685918 -38.4143539 264.66131833 -41 266.5 C-44.25563523 267.69108606 -45.47725452 267.69008927 -48.75 266.5 C-51 264.5 -51 264.5 -52.125 261.3125 C-51.97700806 256.7987459 -50.71615494 254.9585424 -48.22265625 251.33984375 C-45.79488279 247.68654886 -45.87808431 245.25858651 -46.5625 241 C-48.53261096 236.2032081 -51.31410276 233.84294862 -56 231.5 C-62.25017225 230.85343046 -65.0131277 231.85219794 -70.1171875 235.375 C-72.8838889 237.02813279 -74.86785899 237.06948018 -78 236.5 C-80.375 235.5 -80.375 235.5 -82 233.5 C-82.39784374 230.41671102 -82.60303853 228.45664522 -82 225.5 C-80.67189785 223.82916181 -79.33827304 222.16270287 -78 220.5 C-76.74308214 216.06771072 -76.64132097 212.55611047 -78.125 208.1875 C-81.09858175 203.92536615 -83.77344619 201.48887607 -88.9375 200.5625 C-94.28097406 200.11889083 -97.67976403 202.61984269 -102 205.5 C-104.72125725 205.97183089 -107.2751544 205.94753181 -110 205.5 C-112.0625 203.9375 -112.0625 203.9375 -113 201.5 C-112.92226082 197.30208439 -112.39774937 195.05443852 -109.9375 191.625 C-107.36687746 187.47883461 -107.15493335 184.26310293 -108 179.5 C-110.19126777 175.11746446 -112.41674539 172.33330184 -117 170.5 C-122.13153185 169.43830376 -125.72270906 169.77031197 -129.63671875 173.38671875 Z M-255 199.5 C-257.66860957 203.20877049 -259.379377 206.86754096 -259.1875 211.5 C-257.06286007 221.07686338 -245.62924646 229.03432082 -238.86328125 235.8046875 C-237.69452393 236.97666423 -236.52583929 238.14871344 -235.35722351 239.3208313 C-232.92244988 241.76155579 -230.48565607 244.20024246 -228.04760742 246.63769531 C-224.92549067 249.75970983 -221.81034779 252.88858609 -218.69686604 256.01920891 C-216.29222172 258.43496282 -213.88305523 260.84616716 -211.47258568 263.25610733 C-210.32153811 264.40833345 -209.17210827 265.56217804 -208.02434731 266.71767807 C-206.4236891 268.32812955 -204.81682452 269.9321269 -203.20825195 271.53466797 C-202.29670853 272.44763641 -201.3851651 273.36060486 -200.44599915 274.30123901 C-196.14137467 278.17075809 -192.92038584 278.96172068 -187.25 278.8125 C-183.66130423 278.31407003 -181.65610399 276.9031417 -179 274.5 C-176.51360508 271.05112962 -175.7382865 268.30555481 -175.875 264.125 C-177.62490852 254.13556081 -189.1812638 246.15529218 -196.13671875 239.1953125 C-197.30547607 238.02333577 -198.47416071 236.85128656 -199.64277649 235.6791687 C-202.07755012 233.23844421 -204.51434393 230.79975754 -206.95239258 228.36230469 C-210.07450933 225.24029017 -213.18965221 222.11141391 -216.30313396 218.98079109 C-218.70777828 216.56503718 -221.11694477 214.15383284 -223.52741432 211.74389267 C-224.67846189 210.59166655 -225.82789173 209.43782196 -226.97565269 208.28232193 C-228.5763109 206.67187045 -230.18317548 205.0678731 -231.79174805 203.46533203 C-232.70329147 202.55236359 -233.6148349 201.63939514 -234.55400085 200.69876099 C-238.91125876 196.78192859 -242.09360963 196.08334604 -247.8203125 196.26171875 C-251.02363606 196.61190287 -252.60979178 197.31466677 -255 199.5 Z M-288 232.6875 C-289.40270047 236.63259506 -289.8595247 240.37834219 -289 244.5 C-286.47784216 248.61926391 -283.7106549 252.04468793 -280.31079102 255.46386719 C-279.38625626 256.39793396 -278.4617215 257.33200073 -277.50917053 258.29437256 C-276.50774529 259.29553642 -275.50598234 260.29636258 -274.50390625 261.296875 C-273.46763114 262.3370422 -272.43157824 263.37743082 -271.39573669 264.41802979 C-269.23132167 266.58987871 -267.06310861 268.75784812 -264.89233398 270.92333984 C-262.11537103 273.69449325 -259.34997674 276.47688309 -256.58752537 279.26249313 C-254.45402697 281.41073716 -252.31362708 283.55199964 -250.17118645 285.69132233 C-249.14860757 286.71441338 -248.12837942 287.73985975 -247.11059761 288.76772308 C-245.6871322 290.20355893 -244.25307517 291.62887079 -242.81860352 293.05371094 C-242.00682144 293.86612244 -241.19503937 294.67853394 -240.35865784 295.51556396 C-237.34422356 298.05173174 -234.67109678 299.41415599 -230.71875 299.6171875 C-225.70625625 299.0700491 -222.59895894 298.31707766 -219 294.5 C-217.30576553 291.64434686 -216.68314813 289.43944365 -216.625 286.125 C-216.59664063 285.39539063 -216.56828125 284.66578125 -216.5390625 283.9140625 C-217.58060569 278.45920069 -221.89015971 274.35676532 -225.68920898 270.53613281 C-226.61374374 269.60206604 -227.5382785 268.66799927 -228.49082947 267.70562744 C-229.49225471 266.70446358 -230.49401766 265.70363742 -231.49609375 264.703125 C-232.53236886 263.6629578 -233.56842176 262.62256918 -234.60426331 261.58197021 C-236.76867833 259.41012129 -238.93689139 257.24215188 -241.10766602 255.07666016 C-243.88462897 252.30550675 -246.65002326 249.52311691 -249.41247463 246.73750687 C-251.54597303 244.58926284 -253.68637292 242.44800036 -255.82881355 240.30867767 C-256.85139243 239.28558662 -257.87162058 238.26014025 -258.88940239 237.23227692 C-260.3128678 235.79644107 -261.74692483 234.37112921 -263.18139648 232.94628906 C-264.3990696 231.72767181 -264.3990696 231.72767181 -265.64134216 230.48443604 C-268.6707621 227.9356602 -271.42567013 226.75529674 -275.3125 226.125 C-280.33583133 226.82592995 -284.5754986 228.94195159 -288 232.6875 Z M-308.3125 272.375 C-310.62320481 276.65408298 -311.29483524 278.91792513 -310.39892578 283.7253418 C-309.01472971 288.32348637 -306.09544172 291.14287982 -302.7421875 294.45703125 C-302.12030548 295.08606857 -301.49842346 295.7151059 -300.85769653 296.36320496 C-299.54417671 297.68447915 -298.22427686 298.99943792 -296.8984375 300.30834961 C-294.88263402 302.30493875 -292.89787614 304.32910275 -290.9140625 306.35742188 C-289.62937595 307.64239883 -288.34297196 308.92566149 -287.0546875 310.20703125 C-286.46791229 310.8090889 -285.88113708 311.41114655 -285.27658081 312.03144836 C-281.06231455 316.13046257 -277.82314448 317.57535059 -272 318.5 C-267.79454086 317.99836844 -264.72144794 316.12895462 -261.5625 313.375 C-259.47108276 309.52679227 -258.44672215 305.88472693 -259 301.5 C-261.61516897 296.35777938 -264.56263866 292.49002174 -268.6484375 288.453125 C-269.18344879 287.91524353 -269.71846008 287.37736206 -270.26968384 286.82318115 C-271.3938816 285.69695641 -272.5218186 284.57445275 -273.65332031 283.45556641 C-275.37405787 281.75093331 -277.07814769 280.03082653 -278.78125 278.30859375 C-279.88185169 277.20997412 -280.98338344 276.11228526 -282.0859375 275.015625 C-282.58926605 274.50622375 -283.0925946 273.99682251 -283.61117554 273.47198486 C-287.58422083 269.57606295 -291.40378425 266.82452697 -297 266.125 C-302.1372504 266.7671563 -305.06051133 268.33198706 -308.3125 272.375 Z M-335.5249176 348.90466309 C-336.50753822 349.89061462 -336.50753822 349.89061462 -337.51000977 350.89648438 C-338.25070206 351.6372522 -338.99139435 352.37802002 -339.75453186 353.14123535 C-340.55870041 353.95056519 -341.36286896 354.75989502 -342.19140625 355.59375 C-343.01124496 356.41500366 -343.83108368 357.23625732 -344.67576599 358.08239746 C-347.30702087 360.71927291 -349.93478718 363.35959523 -352.5625 366 C-354.34026696 367.78277931 -356.11825874 369.56533445 -357.89648438 371.34765625 C-362.26693998 375.72916813 -366.63453239 380.11351868 -371 384.5 C-369.48258646 388.06843492 -367.39314915 390.35370271 -364.65939331 393.08111572 C-363.74791534 393.99534302 -362.83643738 394.90957031 -361.89733887 395.85150146 C-360.88461387 396.85714871 -359.87179328 397.86269969 -358.85888672 398.86816406 C-357.79413624 399.9323503 -356.72982617 400.99697733 -355.66592407 402.06201172 C-352.77803402 404.95047575 -349.88401759 407.8327304 -346.98887014 410.71391773 C-343.96370845 413.72657973 -340.94420688 416.74490374 -337.92410278 419.76263428 C-332.20494789 425.47557217 -326.4807137 431.18339253 -320.75464165 436.88939643 C-314.23566277 443.38602318 -307.72235975 449.88832763 -301.20952964 456.39111757 C-287.8126633 469.76707693 -274.4086781 483.13588184 -261 496.5 C-255.54397407 491.88632709 -255.54397407 491.88632709 -250.35961914 486.97314453 C-249.73950455 486.35295441 -249.11938995 485.73276428 -248.48048401 485.09378052 C-247.83852585 484.44666107 -247.19656769 483.79954163 -246.53515625 483.1328125 C-245.85698349 482.45322479 -245.17881073 481.77363708 -244.48008728 481.07345581 C-242.33850859 478.92632998 -240.20045471 476.77573373 -238.0625 474.625 C-236.60114411 473.15862227 -235.13955774 471.6924742 -233.67773438 470.2265625 C-230.11582065 466.65369 -226.55706135 463.07770316 -223 459.5 C-224.51708232 455.93440185 -226.60418824 453.64669906 -229.33387756 450.91888428 C-230.24391037 450.00465698 -231.15394318 449.09042969 -232.09155273 448.14849854 C-233.10268688 447.14284747 -234.11392069 446.13729663 -235.12524414 445.13183594 C-236.18836501 444.06764196 -237.25105273 443.00301513 -238.31333923 441.93798828 C-241.19705849 439.04942361 -244.08698574 436.16714429 -246.97819829 433.28608227 C-249.99993354 430.27312763 -253.01639851 427.25490513 -256.03355408 424.23736572 C-261.09847433 419.1733818 -266.16725222 414.11328549 -271.23852539 409.05566406 C-277.10973536 403.20020046 -282.97568125 397.33950556 -288.83865649 391.47579741 C-294.47245108 385.84139358 -300.10909223 380.20984702 -305.74734306 374.57990265 C-308.15043006 372.18035487 -310.55265801 369.77995185 -312.9542408 367.37889862 C-315.77784713 364.5562931 -318.60397672 361.73623861 -321.43212318 358.91818237 C-322.47267443 357.88056393 -323.51236887 356.84208549 -324.55116653 355.80271149 C-325.96283618 354.39055485 -327.37787019 352.98176375 -328.79310608 351.57318115 C-329.58601579 350.78194729 -330.3789255 349.99071342 -331.19586277 349.17550278 C-333.38190455 346.98122113 -333.38190455 346.98122113 -335.5249176 348.90466309 Z M-177.99320984 396.13244629 C-178.75043839 396.89633667 -179.50766693 397.66022705 -180.2878418 398.44726562 C-181.14850754 399.30815796 -182.00917328 400.16905029 -182.8959198 401.05603027 C-183.82100845 401.99660278 -184.74609711 402.93717529 -185.69921875 403.90625 C-186.65834646 404.87097249 -187.61813837 405.83503505 -188.5785675 406.79846191 C-191.10544794 409.33680046 -193.62319076 411.88401883 -196.13916016 414.4331665 C-198.70777661 417.03246298 -201.28489941 419.62329473 -203.86132812 422.21484375 C-208.91593433 427.30163115 -213.96092091 432.39782572 -219 437.5 C-217.00894122 441.73375303 -214.28879234 444.24584091 -210.875 447.40234375 C-207.44710563 451.23730057 -206.49310042 455.25313508 -206.609375 460.37890625 C-207.61098707 465.81765978 -211.75009629 470.19220974 -215 474.5 C-212.20901043 474.98340669 -209.41730344 475.46179062 -206.625 475.9375 C-205.46291016 476.13956055 -205.46291016 476.13956055 -204.27734375 476.34570312 C-180.65212335 480.34832311 -156.41563425 479.46257269 -133 474.5 C-134.119538 471.98103951 -135.31981552 470.10265345 -137.0625 467.9375 C-140.16598623 464.0331141 -140.35112202 460.57820325 -140.2734375 455.76953125 C-139.49528791 449.31088969 -133.48423336 444.75750246 -129 440.5 C-130.48043477 437.07387599 -132.41270339 434.82912893 -135.03491211 432.19042969 C-135.86594955 431.34986023 -136.696987 430.50929077 -137.5532074 429.64324951 C-138.45217239 428.74519592 -139.35113739 427.84714233 -140.27734375 426.921875 C-141.66077721 425.53201385 -141.66077721 425.53201385 -143.07215881 424.11407471 C-145.02152075 422.15726421 -146.97469623 420.2043577 -148.93041992 418.25390625 C-151.43860435 415.75153276 -153.935203 413.23794117 -156.4288702 410.7211113 C-158.80895773 408.32277963 -161.1999716 405.93545675 -163.58984375 403.546875 C-164.48678452 402.64072449 -165.38372528 401.73457397 -166.30784607 400.80096436 C-167.14203568 399.97300354 -167.97622528 399.14504272 -168.83569336 398.29199219 C-169.93584023 397.19090118 -169.93584023 397.19090118 -171.05821228 396.06756592 C-173.83706915 393.82425102 -175.24126221 393.87859092 -177.99320984 396.13244629 Z " fill="#fff" transform="translate(402,-0.5)"/>
<path d="M0 0 C0.92683594 0.40089844 1.85367188 0.80179688 2.80859375 1.21484375 C17.30873161 8.31065589 27.86365275 20.70243484 33.40625 35.77734375 C34.24322032 38.91047607 34.15411883 40.97043807 33 44 C30.84918889 47.02706748 29.74049726 47.87395791 26.0625 48.5 C22.11200078 47.85502054 20.72920539 46.94466898 18 44 C16.91283084 41.85144435 16.00157032 39.66431901 15.0859375 37.4375 C10.11191935 26.27279738 2.16442857 19.58539031 -9 15 C-20.43962556 11.16443973 -33.14164772 11.66131013 -44 17 C-55.79632303 23.8079843 -62.28901754 33.01156138 -66 46 C-68.4907051 56.92589304 -66.75681004 67.74996495 -61.0625 77.4375 C-60.05945936 78.97012657 -59.04101092 80.49290644 -58 82 C-57.13375 83.3303125 -57.13375 83.3303125 -56.25 84.6875 C-47.84380484 93.32720058 -37.66197732 97.96716707 -25.65478516 98.47070312 C-12.3863794 98.64601789 -2.05573749 94.4790404 7.74609375 85.37890625 C11.59365787 81.2115446 14.07758093 76.40428051 16.60546875 71.35546875 C18 69 18 69 21 67 C24.68722891 66.5190571 26.56074794 66.77082501 29.875 68.5 C32.23798395 71.27998112 32.80094179 73.02819975 32.53125 76.67578125 C29.79049338 88.66659147 19.42314056 99.40458656 9.375 106 C-6.36485988 115.20210869 -23.71576132 118.07327493 -41.5625 113.4375 C-57.46619213 108.06717742 -69.34187872 97.99547394 -77.4375 83.41015625 C-84.92511559 68.23436394 -85.98432085 52.07359845 -81 36 C-74.43060154 19.00239913 -63.53654432 7.04220597 -46.83203125 -0.4140625 C-32.14022153 -5.92596952 -14.47383562 -6.35096776 0 0 Z " fill="#fff" transform="translate(426,46)"/>
<path d="M0 0 C3.484375 0.74609375 3.484375 0.74609375 5.984375 2.30859375 C8.16509163 5.85225827 8.23769223 7.63709069 7.484375 11.74609375 C2.66431277 18.68944691 -4.20798078 24.59220367 -10.18774414 30.54858398 C-11.84575455 32.20116557 -13.49826476 33.85911574 -15.15039062 35.51757812 C-16.20540811 36.57193594 -17.26073514 37.62598413 -18.31640625 38.6796875 C-18.809095 39.17440048 -19.30178375 39.66911346 -19.80940247 40.17881775 C-22.88111938 43.22938233 -24.39468197 44.61165148 -28.75830078 45.13500977 C-33.44885147 44.64949662 -35.49058392 42.77280522 -38.6328125 39.5234375 C-39.17543732 38.98513809 -39.71806213 38.44683868 -40.27713013 37.89222717 C-41.41661004 36.75312756 -42.54742721 35.60530377 -43.66992188 34.44946289 C-45.38402984 32.69036202 -47.13006946 30.96855952 -48.8828125 29.24804688 C-49.98906277 28.13357479 -51.09330032 27.01710048 -52.1953125 25.8984375 C-52.97489822 25.13236427 -52.97489822 25.13236427 -53.77023315 24.35081482 C-57.30119017 20.65625459 -58.3957884 17.83839562 -58.515625 12.74609375 C-57.078125 9.80859375 -57.078125 9.80859375 -54.515625 7.74609375 C-50.36563878 6.91609651 -48.12461938 6.72103421 -44.53515625 9.0078125 C-42.41129498 10.8264482 -40.46546723 12.74178665 -38.515625 14.74609375 C-37.68933594 15.56078125 -36.86304688 16.37546875 -36.01171875 17.21484375 C-33.82796407 19.37467623 -31.66490557 21.55203651 -29.515625 23.74609375 C-25.75979352 22.2035585 -23.55729254 19.91039299 -20.8125 16.95703125 C-19.91402344 16.01601562 -19.01554687 15.075 -18.08984375 14.10546875 C-16.67371251 12.61521764 -15.2647575 11.12015241 -13.87158203 9.60839844 C-5.07732738 0.10327745 -5.07732738 0.10327745 0 0 Z " fill="#fff" transform="translate(427.515625,80.25390625)"/>
</svg>
