<svg width="28" height="28" viewBox="0 0 28 28" fill="none" xmlns="http://www.w3.org/2000/svg">
<path d="M18.6668 24.5V22.1667C18.6668 20.929 18.1752 19.742 17.3 18.8668C16.4248 17.9917 15.2378 17.5 14.0002 17.5H7.00016C5.76249 17.5 4.5755 17.9917 3.70033 18.8668C2.82516 19.742 2.3335 20.929 2.3335 22.1667V24.5M25.6668 24.5V22.1667C25.6661 21.1327 25.3219 20.1282 24.6884 19.311C24.0549 18.4938 23.168 17.9102 22.1668 17.6517M18.6668 3.65167C19.6706 3.90868 20.5604 4.49248 21.1957 5.31103C21.8311 6.12957 22.176 7.1363 22.176 8.1725C22.176 9.2087 21.8311 10.2154 21.1957 11.034C20.5604 11.8525 19.6706 12.4363 18.6668 12.6933M15.1668 8.16667C15.1668 10.744 13.0775 12.8333 10.5002 12.8333C7.92283 12.8333 5.8335 10.744 5.8335 8.16667C5.8335 5.58934 7.92283 3.5 10.5002 3.5C13.0775 3.5 15.1668 5.58934 15.1668 8.16667Z" stroke="#71717A" stroke-linecap="round" stroke-linejoin="round"/>
</svg>
